SplineFontDB: 3.2
FontName: sitelen-pona-pona
FullName: sitelen pona pona
FamilyName: sitelen-pona
Weight: Regular
Copyright: Copyright (c) 2020, Jack Humbert
UComments: "2020-3-4: Created with FontForge (http://fontforge.org)"
Version: 0.1
ItalicAngle: 0
UnderlinePosition: -171
UnderlineWidth: 1
Ascent: 800
Descent: 200
InvalidEm: 0
LayerCount: 2
Layer: 0 0 "Vector" 1
Layer: 1 0 "Fore" 0
XUID: [1021 424 2030559194 30619]
FSType: 0
OS2Version: 0
OS2_WeightWidthSlopeOnly: 0
OS2_UseTypoMetrics: 1
CreationTime: 1583342003
ModificationTime: 1584065859
PfmFamily: 17
TTFWeight: 400
TTFWidth: 5
LineGap: 90
VLineGap: 0
OS2TypoAscent: 0
OS2TypoAOffset: 1
OS2TypoDescent: 0
OS2TypoDOffset: 1
OS2TypoLinegap: 90
OS2WinAscent: 0
OS2WinAOffset: 1
OS2WinDescent: 0
OS2WinDOffset: 1
HheadAscent: 0
HheadAOffset: 1
HheadDescent: 0
HheadDOffset: 1
OS2CapHeight: 716
OS2XHeight: 520
OS2Vendor: 'PfEd'
Lookup: 4 0 1 "tokiponaWords" { "tokiponaWords subtable"  } ['liga' ('latn' <'dflt' > 'DFLT' <'dflt' > ) ]
Lookup: 6 0 0 "spaceShorten" { "spaceShorten contextual 0"  "spaceShorten contextual 1"  "spaceShorten contextual 2"  "spaceShorten contextual 3"  } ['salt' ('latn' <'dflt' > 'DFLT' <'dflt' > ) ]
Lookup: 1 0 0 "Single Substitution lookup 2" { "Single Substitution lookup 2 subtable"  } []
Lookup: 6 0 0 "tokiponaWordsSalt1s" { "tokiponaWordsSalt1s contextual 0"  "tokiponaWordsSalt1s contextual 1"  "tokiponaWordsSalt1s contextual 2"  "tokiponaWordsSalt1s contextual 3"  } ['salt' ('latn' <'dflt' > 'DFLT' <'dflt' > ) ]
Lookup: 4 0 0 "Ligature Substitution lookup 4" { "Ligature Substitution lookup 4 subtable"  } []
Lookup: 4 0 0 "Ligature Substitution lookup 5" { "Ligature Substitution lookup 5 subtable"  } []
Lookup: 4 0 0 "Ligature Substitution lookup 6" { "Ligature Substitution lookup 6 subtable"  } []

StartChar: tp_a
Encoding: 60928 60928 0
Width: 333
VWidth: 0
Flags: W
HStem: -12 21G<130.596 197.404> 470 50<113.269 284.796>
VStem: 43 50<59.0075 159.68> 235 50<59.0075 159.179>
DStem2: 113.269 470 55.9871 488.045 0.278219 -0.960518<0 239.846>
LayerCount: 2
Back
SplineSet
164 205 m 5
 80 495 l 5
 260 495 l 1029
68 109 m 4
 68 162 111 205 164 205 c 4
 217 205 260 162 260 109 c 4
 260 56 217 13 164 13 c 4
 111 13 68 56 68 109 c 4
EndSplineSet
Fore
SplineSet
93 109 m 0
 93 69.8071427016 124.807092901 38 164 38 c 0
 203.192857298 38 235 69.8070929007 235 109 c 0
 235 148.192857298 203.192907099 180 164 180 c 0
 124.807142702 180 93 148.192907099 93 109 c 0
183.226625842 228.479660586 m 1
 240.902273645 219.264037541 285 169.264252264 285 109 c 0
 285 42.1929070993 230.807142702 -12 164 -12 c 0
 97.1929070993 -12 43 42.1928572984 43 109 c 0
 43 164.720648334 80.6989473505 211.666311364 131.972785954 225.712846308 c 1
 55.9870577336 488.044527068 l 2
 51.2110752455 504.533038039 64.8780999724 520 80 520 c 2
 260 520 l 2
 273.617128764 520 285 508.617128764 285 495 c 0
 285 481.382871236 273.617128764 470 260 470 c 2
 113.269010288 470 l 1
 183.226625842 228.479660586 l 1
EndSplineSet
Ligature2: "Ligature Substitution lookup 4 subtable" a tp_space
Ligature2: "tokiponaWords subtable" percent a space
LCarets2: 2 0 0
EndChar

StartChar: tp_ala
Encoding: 60930 60930 2
Width: 416
VWidth: 0
Flags: W
HStem: 209.301 101.398<157.301 258.699>
VStem: 179.264 57.4727<231.264 288.736>
DStem2: 89.749 519.327 46.251 494.673 0.493101 -0.869972<-24.7958 239.81 328.024 592.63> 46.251 25.3271 89.749 0.672852 0.493101 0.869972<-24.7954 239.811 328.024 592.63>
LayerCount: 2
Back
SplineSet
68 507 m 1
 348 13 l 1025
68 13 m 1
 348 507 l 1025
EndSplineSet
Fore
SplineSet
55.6728515625 -8.7490234375 m 0
 43.826171875 -2.03515625 39.5361328125 13.4814453125 46.2509765625 25.3271484375 c 2
 179.263671875 260 l 1
 46.2509765625 494.672851562 l 2
 39.5361328125 506.518554688 43.826171875 522.03515625 55.6728515625 528.749023438 c 0
 67.5185546875 535.463867188 83.03515625 531.173828125 89.7490234375 519.327148438 c 2
 208 310.69921875 l 1
 326.250976562 519.327148438 l 2
 332.96484375 531.173828125 348.481445312 535.463867188 360.327148438 528.749023438 c 0
 372.173828125 522.03515625 376.463867188 506.518554688 369.749023438 494.672851562 c 2
 236.736328125 260 l 1
 369.749023438 25.3271484375 l 2
 376.463867188 13.4814453125 372.173828125 -2.03515625 360.327148438 -8.7490234375 c 0
 348.481445312 -15.4638671875 332.96484375 -11.173828125 326.250976562 0.6728515625 c 2
 208 209.30078125 l 1
 89.7490234375 0.6728515625 l 2
 83.03515625 -11.173828125 67.5185546875 -15.4638671875 55.6728515625 -8.7490234375 c 0
EndSplineSet
Ligature2: "Ligature Substitution lookup 60 subtable" a l a
Ligature2: "Ligature Substitution lookup 38 subtable" a l a tp_space
Ligature2: "tokiponaWords subtable" percent a l a space
LCarets2: 4 0 0 0 0
EndChar

StartChar: tp_alasa
Encoding: 60931 60931 3
Width: 550
VWidth: 0
Flags: W
HStem: 0 21G<74.635 346.573> 320 50<105 456.369> 666 50<105 306.119>
VStem: 55 50<50 320 370 666> 456.647 50.3527<181.213 320 370 478.889>
LayerCount: 2
Back
SplineSet
80 345 m 5
 482 345 l 1028
80 691 m 5
 80 25 l 5
 80 25 197 25 275 25 c 7
 399 25 482 122 482 345 c 7
 482 557 353 691 230 691 c 7
 152 691 80 691 80 691 c 5
EndSplineSet
Fore
SplineSet
55 691 m 2
 55 701.729904333 64.8674621445 716 80 716 c 2
 230 716 l 2
 371.868063138 716 507 565.693242294 507 345 c 0
 507 117.05790959 418.146263054 0 275 0 c 2
 80 0 l 2
 69.2700956673 0 55 9.86746214447 55 25 c 2
 55 345 l 1
 55 691 l 2
105 320 m 1
 105 50 l 1
 275 50 l 2
 375.742954544 50 450.908386706 121.027335339 456.647251746 320 c 1
 105 320 l 1
105 370 m 1
 456.368526952 370 l 1
 446.779046819 557.923572446 329.786932663 666 230 666 c 2
 105 666 l 1
 105 370 l 1
EndSplineSet
Ligature2: "Ligature Substitution lookup 234 subtable" a l a s a
Ligature2: "Ligature Substitution lookup 221 subtable" a l a s a tp_space
Ligature2: "tokiponaWords subtable" percent a l a s a space
LCarets2: 6 0 0 0 0 0 0
EndChar

StartChar: tp_ale
Encoding: 60932 60932 4
Width: 733
VWidth: 0
Flags: W
HStem: -12 21G<153.756 255.265 476.328 588.142> 482 50<157.892 252.442 472.028 574.109>
VStem: 43 50<126.214 393.049> 640 50<111.45 392.894>
DStem2: 336.897 234.758 390.222 252.019 0.142486 0.989797<-32.6889 79.3524> 390.222 252.019 337.976 264.484 0.150724 -0.988576<-57.9349 49.2104>
LayerCount: 2
Back
SplineSet
68 260 m 7
 68 119.282226562 121 13 211 13 c 7
 335 13 365 251.900390625 365 251.900390625 c 5
 365 251.900390625 395 507 517 507 c 7
 617 507 665 392.900390625 665 258.900390625 c 7
 665 119.25 631 13 521 13 c 7
 395 13 365 251.900390625 365 251.900390625 c 5
 365.278320312 251.900390625 335 507 205 507 c 7
 121 507 68 392.620117188 68 260 c 7
EndSplineSet
Fore
SplineSet
364.699503667 366.836121551 m 1
 386.078724082 435.282438708 428.298939232 532 517 532 c 0
 641.579191518 532 690 393.51704028 690 258.900390625 c 0
 690 120.34020125 655.284575892 -12 521 -12 c 0
 431.656121494 -12 387.276914795 78.4510357475 365.088663272 143.674349298 c 1
 343.206266713 78.6495822989 299.529184457 -12 211 -12 c 0
 96.512638129 -12 43 118.152470038 43 260 c 0
 43 392.915156661 95.0222214901 532 205 532 c 0
 297.430914353 532 342.271537671 436.023097024 364.699503667 366.836121551 c 1
390.222402591 252.019474301 m 0
 390.58807943 249.522335693 391.196891529 245.577288727 392.051429364 240.669113277 c 0
 402.320454488 181.687316413 442.397470999 38 521 38 c 0
 606.715424108 38 640 118.15979875 640 258.900390625 c 0
 640 392.28374097 592.420808482 482 517 482 c 0
 446.413164483 482 405.273213743 341.015975347 393.207731548 271.185788029 c 0
 391.70158172 262.468794965 390.724636187 255.715557869 390.222402591 252.019474301 c 0
339.802666671 252.187200345 m 0
 339.468921455 254.746647613 338.871374301 258.9781876 337.97569426 264.484369521 c 0
 327.724532754 327.503257449 286.363039658 482 205 482 c 0
 146.97777851 482 93 392.325077715 93 260 c 0
 93 120.411983086 145.487361871 38 211 38 c 0
 284.612262855 38 324.964791033 170.193387652 336.897235547 234.757947058 c 0
 338.368379693 242.718074045 339.314516394 248.828718274 339.802666671 252.187200345 c 0
EndSplineSet
LCarets2: 4 0 0 0 0
Ligature2: "Ligature Substitution lookup 62 subtable" a l i
Ligature2: "Ligature Substitution lookup 61 subtable" a l e
Ligature2: "Ligature Substitution lookup 40 subtable" a l i tp_space
Ligature2: "Ligature Substitution lookup 39 subtable" a l e tp_space
Ligature2: "tokiponaWords subtable" percent a l i space
Ligature2: "tokiponaWords subtable" percent a l e space
EndChar

StartChar: tp_anpa
Encoding: 60933 60933 5
Width: 550
VWidth: 0
Flags: W
HStem: -145 82<238.953 311.047> 0 21G<74.6353 477.566> 512 20G<73.1914 86.8086 463.191 476.809>
VStem: 55 50<50 531.796> 234 82<-140.047 -67.9529> 445 50<50 531.796>
CounterMasks: 1 1c
LayerCount: 2
Back
SplineSet
80 507 m 5
 80 25 l 5
 470 25 l 5
 470 507 l 1029
EndSplineSet
Refer: 153 -1 S 1 0 0 1 275 -104 2
Fore
SplineSet
80 532 m 0
 93.6171875 532 105 520.6171875 105 507 c 2
 105 50 l 1
 445 50 l 1
 445 507 l 2
 445 520.6171875 456.3828125 532 470 532 c 0
 483.6171875 532 495 520.6171875 495 507 c 2
 495 25 l 2
 495 14.2705078125 485.1328125 0 470 0 c 2
 80 0 l 2
 69.2705078125 0 55 9.8671875 55 25 c 2
 55 507 l 2
 55 520.6171875 66.3828125 532 80 532 c 0
EndSplineSet
Refer: 153 -1 N 1 0 0 1 275 -104 2
Ligature2: "Ligature Substitution lookup 151 subtable" a n p a
Ligature2: "Ligature Substitution lookup 82 subtable" a n p a tp_space
Ligature2: "tokiponaWords subtable" percent a n p a space
LCarets2: 5 0 0 0 0 0
EndChar

StartChar: tp_ante
Encoding: 60934 60934 6
Width: 550
VWidth: 0
Flags: W
HStem: -12 21G<463.191 476.809> 512 20G<73.1914 86.8086>
VStem: 55 50<241.552 531.796> 445 50<-11.7959 278.448>
DStem2: 52.52 32.6308 83.48 -6.63082 0.785233 0.619201<-24.7959 460.399> 105 241.552 95.48 170.369 0.785233 0.619201<0 485.194>
LayerCount: 2
Back
SplineSet
68 13 m 5
 470 330 l 5
 470 13 l 1029
80 507 m 5
 80 190 l 4
 482 507 l 1029
EndSplineSet
Fore
SplineSet
48.3691840738 -2.48002151394 m 0
 39.9374462245 8.21259241481 41.8273645573 24.1990780769 52.5199784861 32.6308159262 c 2
 454.519978486 349.630815926 l 2
 465.804088612 358.528982369 482.799401768 355.839578591 490.784821149 343.89212762 c 0
 493.578260902 339.712699727 495 333.357017956 495 330 c 2
 495 13 l 2
 495 -0.617128764476 483.617128764 -12 470 -12 c 0
 456.382871236 -12 445 -0.617128764476 445 13 c 2
 445 278.448371089 l 1
 83.4800215139 -6.63081592619 l 2
 72.7874075852 -15.0625537755 56.8009219231 -13.1726354427 48.3691840738 -2.48002151394 c 0
80 532 m 0
 93.6171287645 532 105 520.617128764 105 507 c 2
 105 241.551628911 l 1
 466.519978486 526.630815926 l 2
 477.212592415 535.062553775 493.199078077 533.172635443 501.630815926 522.480021514 c 0
 510.062553775 511.787407585 508.172635443 495.800921923 497.480021514 487.369184074 c 2
 95.4800215139 170.369184074 l 2
 92.885576533 168.323315768 86.9414629025 165.468989912 81.9614271361 165.077062701 c 0
 67.6353201526 163.949602697 55 175.629596131 55 190 c 2
 55 507 l 2
 55 520.617128764 66.3828712355 532 80 532 c 0
EndSplineSet
Ligature2: "Ligature Substitution lookup 152 subtable" a n t e
Ligature2: "Ligature Substitution lookup 83 subtable" a n t e tp_space
Ligature2: "tokiponaWords subtable" percent a n t e space
LCarets2: 5 0 0 0 0 0
EndChar

StartChar: tp_anu
Encoding: 60935 60935 7
Width: 416
VWidth: 0
Flags: W
HStem: -12 21G<201.191 214.809>
VStem: 183 50<-11.7959 253.408>
DStem2: 89.7493 519.328 46.2507 494.672 0.493101 -0.869972<-24.7959 239.81> 208 310.7 233 253.408 0.493101 0.869972<0 264.606>
LayerCount: 2
Back
SplineSet
68 507 m 5
 208 260 l 13
 208 13 l 1029
208 260 m 5
 348 507 l 1029
EndSplineSet
Fore
SplineSet
55.6724640534 528.749295563 m 0
 67.5189823821 535.463921336 83.0346697896 531.174054275 89.749295563 519.327535947 c 2
 208 310.699507404 l 1
 326.250704437 519.327535947 l 2
 332.96533021 531.174054275 348.481017618 535.463921336 360.327535947 528.749295563 c 0
 372.174054275 522.03466979 376.463921336 506.518982382 369.749295563 494.672464053 c 2
 233 253.407635453 l 1
 233 13 l 2
 233 -0.617128764476 221.617128764 -12 208 -12 c 0
 194.382871236 -12 183 -0.617128764476 183 13 c 2
 183 253.407635453 l 1
 46.250704437 494.672464053 l 2
 39.5360786637 506.518982382 43.8259457247 522.03466979 55.6724640534 528.749295563 c 0
EndSplineSet
Ligature2: "Ligature Substitution lookup 63 subtable" a n u
Ligature2: "Ligature Substitution lookup 41 subtable" a n u tp_space
Ligature2: "tokiponaWords subtable" percent a n u space
LCarets2: 4 0 0 0 0
EndChar

StartChar: tp_awen
Encoding: 60936 60936 8
Width: 550
VWidth: 0
Flags: W
HStem: 0 21G<61.1914 156.926 394.031 488.809>
DStem2: 131.617 50 175.212 18.7713 0.249149 0.968465<0 381.135> 299.212 513.229 275 406.658 0.249149 -0.968465<97.1774 478.312>
LayerCount: 2
Back
SplineSet
68 25 m 5
 151 25 l 5
 275 507 l 5
 399 25 l 5
 482 25 l 1029
EndSplineSet
Fore
SplineSet
43 25 m 0
 43 38.6171287645 54.3828712355 50 68 50 c 2
 131.617495564 50 l 1
 250.788369154 513.228718309 l 2
 254.368737061 527.145954853 269.515660906 535.309548426 283.109092225 530.648311214 c 0
 291.304426485 527.838101186 297.427357797 520.164360323 299.211630846 513.228718309 c 2
 418.382504436 50 l 1
 482 50 l 2
 495.617128764 50 507 38.6171287645 507 25 c 0
 507 11.3828712355 495.617128764 0 482 0 c 2
 399 0 l 2
 389.06179427 0 377.741525407 7.29207754557 374.788369154 18.771281691 c 2
 275 406.658329531 l 1
 175.211630846 18.771281691 l 2
 172.735539487 9.14647495488 162.852985264 0 151 0 c 2
 68 0 l 2
 54.3828712355 0 43 11.3828712355 43 25 c 0
EndSplineSet
LCarets2: 5 0 0 0 0 0
Ligature2: "Ligature Substitution lookup 153 subtable" a w e n
Ligature2: "Ligature Substitution lookup 84 subtable" a w e n tp_space
Ligature2: "tokiponaWords subtable" percent a w e n space
EndChar

StartChar: tp_e
Encoding: 60937 60937 9
Width: 550
VWidth: 0
Flags: W
DStem2: 87.1609 523.058 48.8391 490.942 0.642318 -0.766438<-24.7959 301.319> 48.8391 29.058 87.1609 -3.05796 0.642318 0.766438<-24.7959 301.319> 294.161 523.058 255.839 490.942 0.642318 -0.766438<-24.7959 301.319> 255.839 29.058 294.161 -3.05796 0.642318 0.766438<-24.7959 301.319>
LayerCount: 2
Back
SplineSet
275 507 m 5
 482 260 l 5
 275 13 l 1029
68 507 m 5
 275 260 l 5
 68 13 l 1029
EndSplineSet
Fore
SplineSet
258.942039822 526.160947652 m 0
 269.378723479 534.90748011 285.414415194 533.494643835 294.160947652 523.057960178 c 2
 501.160947652 276.057960178 l 2
 509.206696117 266.45747771 508.085943909 252.205199607 501.160947652 243.942039822 c 2
 294.160947652 -3.05796017798 l 2
 285.414415194 -13.494643835 269.378723479 -14.9074801095 258.942039822 -6.16094765199 c 0
 248.505356165 2.58558480555 247.09251989 18.6212765209 255.839052348 29.057960178 c 2
 449.381571551 260 l 1
 255.839052348 490.942039822 l 2
 247.09251989 501.378723479 248.505356165 517.414415194 258.942039822 526.160947652 c 0
51.942039822 526.160947652 m 0
 62.3787234791 534.90748011 78.4144151945 533.494643835 87.160947652 523.057960178 c 2
 294.160947652 276.057960178 l 2
 302.206696117 266.45747771 301.085943909 252.205199607 294.160947652 243.942039822 c 2
 87.160947652 -3.05796017798 l 2
 78.4144151945 -13.494643835 62.3787234791 -14.9074801095 51.942039822 -6.16094765199 c 0
 41.505356165 2.58558480555 40.0925198905 18.6212765209 48.839052348 29.057960178 c 2
 242.381571551 260 l 1
 48.839052348 490.942039822 l 2
 40.0925198905 501.378723479 41.505356165 517.414415194 51.942039822 526.160947652 c 0
EndSplineSet
Ligature2: "Ligature Substitution lookup 5 subtable" e tp_space
Ligature2: "tokiponaWords subtable" percent e space
LCarets2: 2 0 0
EndChar

StartChar: tp_en
Encoding: 60938 60938 10
Width: 436
VWidth: 0
Flags: W
HStem: 235 50<43.2041 193 243 392.796>
VStem: 193 50<89.2041 235 285 430.796>
LayerCount: 2
Back
SplineSet
68 260 m 5
 368 260 l 1029
218 406 m 5
 218 114 l 1029
EndSplineSet
Fore
SplineSet
218 431 m 0
 231.6171875 431 243 419.6171875 243 406 c 2
 243 285 l 1
 368 285 l 2
 381.6171875 285 393 273.6171875 393 260 c 0
 393 246.3828125 381.6171875 235 368 235 c 2
 243 235 l 1
 243 114 l 2
 243 100.3828125 231.6171875 89 218 89 c 0
 204.3828125 89 193 100.3828125 193 114 c 2
 193 235 l 1
 68 235 l 2
 54.3828125 235 43 246.3828125 43 260 c 0
 43 273.6171875 54.3828125 285 68 285 c 2
 193 285 l 1
 193 406 l 2
 193 419.6171875 204.3828125 431 218 431 c 0
EndSplineSet
LCarets2: 3 0 0 0
Ligature2: "Ligature Substitution lookup 25 subtable" e n
Ligature2: "Ligature Substitution lookup 12 subtable" e n tp_space
Ligature2: "tokiponaWords subtable" percent e n space
EndChar

StartChar: tp_esun
Encoding: 60939 60939 11
Width: 540
VWidth: 0
Flags: W
HStem: -12 21G<120.965 185.922 356.453 441.042> 166 50<102.071 209.887> 312 50<301.653 442.886> 482 50<328.553 437.269>
VStem: 38 50<49.1882 151.79> 247.764 49.0766<186.341 321.202 390.833 442.476> 452 50<48.3308 109.575 373.499 467.002>
LayerCount: 2
Back
SplineSet
103 507 m 5
 103 507 185.989257812 337 373 337 c 7
 439.030273438 337 477 361 477 421 c 7
 477 473.009765625 438 507 375 507 c 7
 178 507 363.0390625 13 157 13 c 7
 96 13 63 42.9921875 63 105 c 7
 63 159.037109375 105.9609375 191 157 191 c 7
 271.00390625 191 285 13 385 13 c 7
 477 13 478 85 478 85 c 1029
EndSplineSet
Fore
SplineSet
296.840727041 321.201855922 m 1
 293.737958439 264.355116881 294.247204635 201.190066082 287.0606868 144.940202829 c 0
 286.5433533 140.890962389 285.974332198 136.80702946 285.363823919 132.793954898 c 0
 287.526760811 129.731000407 289.816592825 126.441881116 291.754864495 123.624399408 c 0
 326.606285342 72.9641941164 349.825089462 38 385 38 c 0
 453.555913371 38 452.801158367 81.8523142108 453.087648532 87.0927613366 c 0
 454.131047951 99.9450020386 465.435123879 110.232517988 478.454343295 109.995871102 c 0
 491.489066884 109.758942402 502.364626684 99.776663987 503.010159169 85.3309653326 c 0
 502.930094129 80.9261563132 497.084291226 -12 385 -12 c 0
 327.905307666 -12 294.545070884 31.5316370538 269.011183065 68.2661150447 c 1
 250.901882041 22.9913482574 214.844916884 -12 157 -12 c 0
 84.9299117835 -12 38 30.3485902823 38 105 c 0
 38 175.22239069 95.7989253094 216 157 216 c 0
 190.890528105 216 218.929282746 202.456228773 240.733665224 184.06900191 c 1
 244.381560803 232.442609192 244.395492526 287.193299441 247.764092017 337.994432583 c 1
 132.449369067 388.99122698 82.2031938423 492.624234965 80.2021331138 496.71046321 c 0
 75.5450488516 507.958442643 79.2605493168 523.211327623 92.0048966888 529.452342933 c 0
 104.748157047 535.692825923 119.104137444 529.228176038 125.073764487 518.758648113 c 0
 126.501919885 515.878959501 167.488462 435.136071576 253.112166674 390.833424651 c 1
 263.507164397 460.961959406 292.568807911 532 375 532 c 0
 447.453649774 532 502 489.0457376 502 421 c 0
 502 344.163845365 445.379570933 312 373 312 c 0
 345.967956921 312 320.301997799 315.411692353 296.840727041 321.201855922 c 1
232.334686866 120.356289227 m 0
 230.412508018 122.790724305 228.434508566 125.219353806 226.544359341 127.447888704 c 0
 205.727379549 151.991647102 185.646734399 166 157 166 c 0
 116.122949691 166 88 142.85182806 88 105 c 0
 88 55.6357847177 107.070088217 38 157 38 c 0
 198.627228592 38 217.784498964 61.0967733639 230.221848268 111.155505266 c 0
 230.930682672 114.008472607 231.664628469 117.21775083 232.334686866 120.356289227 c 0
301.02081977 371.826748737 m 1
 322.750834031 365.668052929 346.674574288 362 373 362 c 0
 432.680975942 362 452 377.836154635 452 421 c 0
 452 456.97379365 428.546350226 482 375 482 c 0
 329.307976785 482 310.212172552 447.018525328 301.02081977 371.826748737 c 1
EndSplineSet
LCarets2: 5 0 0 0 0 0
Ligature2: "Ligature Substitution lookup 154 subtable" e s u n
Ligature2: "Ligature Substitution lookup 85 subtable" e s u n tp_space
Ligature2: "tokiponaWords subtable" percent e s u n space
EndChar

StartChar: tp_ijo
Encoding: 60940 60940 12
Width: 550
VWidth: 0
Flags: W
HStem: -12 21G<204.613 345.388> 482 50<189.678 360.322>
VStem: 43 50<146.908 373.092> 457 50<146.908 373.092>
AnchorPoint: "Small" 275 260 basechar 0
LayerCount: 2
Back
SplineSet
68 260 m 0
 68 406 151 507 275 507 c 0
 399 507 482 406 482 260 c 0
 482 114 399 13 275 13 c 0
 151 13 68 114 68 260 c 0
EndSplineSet
Fore
SplineSet
93 260 m 0
 93 123.278320312 167.774414062 38 275 38 c 0
 382.224609375 38 457 123.278320312 457 260 c 0
 457 396.721679688 382.225585938 482 275 482 c 0
 167.775390625 482 93 396.721679688 93 260 c 0
43 260 m 0
 43 415.278320312 134.224609375 532 275 532 c 0
 415.774414062 532 507 415.278320312 507 260 c 0
 507 104.721679688 415.775390625 -12 275 -12 c 0
 134.225585938 -12 43 104.721679688 43 260 c 0
EndSplineSet
Ligature2: "Ligature Substitution lookup 64 subtable" i j o
Ligature2: "Ligature Substitution lookup 42 subtable" i j o tp_space
Ligature2: "tokiponaWords subtable" percent i j o space
LCarets2: 4 0 0 0 0
EndChar

StartChar: tp_ike
Encoding: 60941 60941 13
Width: 550
VWidth: 0
Flags: W
HStem: -12 21G<73.1914 86.8086 463.191 476.809> 482 50<196.873 353.127>
VStem: 55 50<-11.7959 373.529> 445 50<-11.7959 373.529>
LayerCount: 2
Back
SplineSet
80 13 m 25
 80 13 80 114 80 260 c 0
 80 406 157 507 275 507 c 0
 393 507 470 406 470 260 c 0
 470 114.787109375 470 13 470 13 c 1049
EndSplineSet
Fore
SplineSet
80 -12 m 4
 66.3828125 -12 55 -0.6171875 55 13 c 6
 55 260 l 6
 55 413.923828125 139.004882812 532 275 532 c 4
 410.995117188 532 495 413.923828125 495 260 c 6
 495 13 l 6
 495 -0.6171875 483.6171875 -12 470 -12 c 4
 456.3828125 -12 445 -0.6171875 445 13 c 6
 445 260 l 6
 445 398.076171875 375.004882812 482 275 482 c 4
 174.995117188 482 105 398.076171875 105 260 c 6
 105 13 l 6
 105 -0.6171875 93.6171875 -12 80 -12 c 4
EndSplineSet
Ligature2: "Ligature Substitution lookup 65 subtable" i k e
Ligature2: "Ligature Substitution lookup 43 subtable" i k e tp_space
Ligature2: "tokiponaWords subtable" percent i k e space
LCarets2: 4 0 0 0 0
EndChar

StartChar: tp_ilo
Encoding: 60942 60942 14
Width: 550
VWidth: 0
Flags: W
HStem: -208 21G<268.191 281.809> 470 50<105 250 300 445>
VStem: 55 50<50 470> 250 50<-207.796 -7.10543e-15 50 470> 445 50<50 470>
CounterMasks: 1 38
LayerCount: 2
Back
SplineSet
275 495 m 5
 275 -183 l 1029
80 495 m 5
 80 25 l 5
 470 25 l 5
 470 495 l 5
 80 495 l 5
EndSplineSet
Fore
SplineSet
105 470 m 1
 105 50 l 1
 250 50 l 1
 250 470 l 1
 105 470 l 1
55 495 m 2
 55 505.729904333 64.8674621445 520 80 520 c 2
 275 520 l 1
 470 520 l 2
 480.729904333 520 495 510.132537856 495 495 c 2
 495 25 l 2
 495 14.2700956673 485.132537856 0 470 0 c 2
 300 -8.32667268469e-15 l 1
 300 -183 l 2
 300 -196.617128764 288.617128764 -208 275 -208 c 0
 261.382871236 -208 250 -196.617128764 250 -183 c 2
 250 -8.32667268469e-15 l 1
 80 0 l 2
 69.2700956673 0 55 9.86746214447 55 25 c 2
 55 495 l 2
300 50 m 1
 445 50 l 1
 445 470 l 1
 300 470 l 1
 300 50 l 1
EndSplineSet
LCarets2: 4 0 0 0 0
Ligature2: "Ligature Substitution lookup 66 subtable" i l o
Ligature2: "Ligature Substitution lookup 44 subtable" i l o tp_space
Ligature2: "tokiponaWords subtable" percent i l o space
EndChar

StartChar: tp_insa
Encoding: 60943 60943 15
Width: 550
VWidth: 0
Flags: HW
HStem: 0 21G<74.6353 477.566> 221 78<240.281 309.719> 513 20G<73.1914 86.8086 463.191 476.809>
VStem: 55 50<50 532.796> 236 78<225.281 294.719> 445 50<50 532.796>
CounterMasks: 1 1c
LayerCount: 2
Back
SplineSet
80 508 m 5
 80 25 l 5
 470 25 l 5
 470 508 l 1029
EndSplineSet
Refer: 153 -1 S 1 0 0 1 275 260 2
Fore
SplineSet
80 533 m 0
 93.6171875 533 105 521.6171875 105 508 c 2
 105 50 l 1
 445 50 l 1
 445 508 l 2
 445 521.6171875 456.3828125 533 470 533 c 0
 483.6171875 533 495 521.6171875 495 508 c 2
 495 25 l 2
 495 14.2705078125 485.1328125 0 470 0 c 2
 80 0 l 2
 69.2705078125 0 55 9.8671875 55 25 c 2
 55 508 l 2
 55 521.6171875 66.3828125 533 80 533 c 0
EndSplineSet
Refer: 153 -1 N 1 0 0 1 275 260 2
Ligature2: "Ligature Substitution lookup 155 subtable" i n s a
Ligature2: "Ligature Substitution lookup 86 subtable" i n s a tp_space
Ligature2: "tokiponaWords subtable" percent i n s a space
LCarets2: 5 0 0 0 0 0
EndChar

StartChar: tp_jaki
Encoding: 60944 60944 16
Width: 550
VWidth: 0
Flags: W
HStem: -12 21G<136.525 192.163> 482 50<348.184 436.305>
VStem: 43 50<58.3071 135.259 347.111 451.47> 255 50<77.9427 155.221> 278 50<315.212 462.258> 457 50<364.002 460.254>
DStem2: 210.493 247.159 250.479 210.218 0.910331 0.413882<-157.687 -54.2335 21.1121 105.098 166.742 273.516>
LayerCount: 2
Back
SplineSet
151 507 m 29
 151 507 69 480.005681635 69 392 c 7
 69 300 280 184 280 124 c 7
 280 64 208 13 164 13 c 7
 120 13 68 46 68 109 c 7
 68 209 482 285 482 395 c 7
 482 487 417 507 384 507 c 7
 351 507 303 476 303 374 c 7
 303 279 481 145 481 145 c 1029
EndSplineSet
Fore
SplineSet
383.0827596 270.421529921 m 1xec
 432.933365351 212.612181762 496.046956691 164.9646962 496.046956691 164.9646962 c 2
 506.921430247 156.768842329 509.160550071 140.827516865 500.9646962 129.953043309 c 0
 493.118085588 119.541954857 478.651505478 116.601673965 466.580441847 124.562445557 c 0
 464.508036945 126.124371994 392.015628059 180.448390349 336.47966446 248.191345946 c 1
 308.376559873 235.394988445 278.559808361 222.592718605 250.479488172 210.21839849 c 1
 277.187429947 184.287222463 305 157.782055893 305 124 c 0xf4
 305 45.6874137191 220.325051764 -12 164 -12 c 0
 109.050126619 -12 43 29.7627999593 43 109 c 0
 43 163.107071655 104.37958748 195.812390562 161.381842404 224.14180114 c 1
 108.9445881 271.716461618 44 328.064004278 44 392 c 0
 44 497.989081873 140.379382179 529.814411962 143.857670172 530.970911943 c 0
 155.628424034 534.079013352 170.245864449 528.35334697 174.723069375 514.88771066 c 0
 179.198923588 501.42613675 170.739916292 488.010286808 159.851979918 483.613151628 c 0
 153.99444836 481.565493438 94 458.941716805 94 392 c 0
 94 358.583149022 149.841386585 301.866942401 210.492750296 247.158906156 c 1
 242.071299945 261.334274726 275.380608629 275.501869274 306.658742283 289.575207858 c 1
 290.43117988 315.985515022 278 344.57478849 278 374 c 0
 278 483.675244966 333.012739055 532 384 532 c 0
 425.653729663 532 507 503.575592155 507 395 c 0
 507 337.199785549 443.515783007 300.988525803 383.0827596 270.421529921 c 1xec
352.302645441 310.943961848 m 1
 421.964008088 345.328558341 457 377.528110327 457 395 c 0
 457 470.424407845 408.346270337 482 384 482 c 0
 368.987260945 482 328 468.324755034 328 374 c 0xec
 328 357.919324131 336.615165082 335.312435553 352.302645441 310.943961848 c 1
201.302144051 187.908274563 m 1
 128.502828289 153.450768735 93 122.158654914 93 109 c 0
 93 62.2372000407 130.949873381 38 164 38 c 0
 195.674948236 38 255 82.3125862809 255 124 c 0xf4
 255 128.016477973 237.316001297 154.517830108 201.302144051 187.908274563 c 1
EndSplineSet
LCarets2: 5 0 0 0 0 0
Ligature2: "Ligature Substitution lookup 156 subtable" j a k i
Ligature2: "Ligature Substitution lookup 87 subtable" j a k i tp_space
Ligature2: "tokiponaWords subtable" percent j a k i space
EndChar

StartChar: tp_jan
Encoding: 60945 60945 17
Width: 550
VWidth: 0
Flags: W
HStem: 482 50<189.678 360.322>
VStem: 43 50<146.787 373.092> 457 50<146.787 373.092>
DStem2: 46.322 -173.478 91.678 -194.522 0.420871 0.90712<-24.7959 222.772> 408.471 31.7261 365.198 6.19264 0.420871 -0.90712<3.44327 251.011>
LayerCount: 2
Back
SplineSet
481 -184 m 5
 379.901538462 33.9015384615 l 1029
170.623224728 35.0325814536 m 1029
170.623224728 35.0325814536 m 5
 69 -184 l 1029
EndSplineSet
Refer: 12 60940 S 1 0 0 1 0 0 2
Fore
SplineSet
491.521779586 -206.67801037 m 0
 479.169404093 -212.409067468 464.053046728 -206.874155079 458.32198963 -194.521779586 c 2
 365.197733835 6.19263581705 l 1
 338.204771208 -5.60136601123 307.960562225 -12 275 -12 c 0
 242.039530263 -12 211.795329142 -5.60131314534 184.80233398 6.19278198112 c 1
 91.67801037 -194.521779586 l 2
 85.9469532718 -206.874155079 70.8305959071 -212.409067468 58.4782204139 -206.67801037 c 0
 46.1258449207 -200.946953272 40.5909325318 -185.830595907 46.32198963 -173.478220414 c 2
 141.529497677 31.7263114942 l 1
 79.3352989781 79.3613303499 43 162.002078897 43 260 c 0
 43 415.278320312 134.224609375 532 275 532 c 0
 415.774414062 532 507 415.278320312 507 260 c 0
 507 162.001912087 470.664966291 79.3610490114 408.470615182 31.7260682446 c 1
 503.67801037 -173.478220414 l 2
 509.409067468 -185.830595907 503.874155079 -200.946953272 491.521779586 -206.67801037 c 0
93 260 m 0
 93 123.278320312 167.774414062 38 275 38 c 0
 382.224609375 38 457 123.278320312 457 260 c 0
 457 396.721679688 382.225585938 482 275 482 c 0
 167.775390625 482 93 396.721679688 93 260 c 0
EndSplineSet
Ligature2: "Ligature Substitution lookup 67 subtable" j a n
Ligature2: "Ligature Substitution lookup 45 subtable" j a n tp_space
Ligature2: "tokiponaWords subtable" percent j a n space
LCarets2: 4 0 0 0 0
EndChar

StartChar: tp_jelo
Encoding: 60946 60946 18
Width: 506
VWidth: 0
Flags: W
HStem: -196 50<105.937 400.063> 196.618 135.382<185.309 320.691> 382 50<43.2041 136.38 369.62 462.796>
VStem: 228 50<265.139 290.38 523.62 631.796>
DStem2: 45.0269 -161.139 105.937 -146 0.394434 0.918924<37.9366 410.783> 278 265.139 253 196.618 0.394434 -0.918924<53.1045 425.951>
LayerCount: 2
Back
SplineSet
68 407 m 5
 153 407 l 1053
438 407 m 5
 353 407 l 1029
153 407 m 4
 153 462 198 507 253 507 c 4
 308 507 353 462 353 407 c 4
 353 352 308 307 253 307 c 4
 198 307 153 352 153 407 c 4
253 307 m 5
 253 260 l 1029
253 607 m 29
 253 507 l 1053
438 -171 m 5
 253 260 l 5
 68 -171 l 5
 438 -171 l 5
EndSplineSet
Fore
SplineSet
400.063419275 -146 m 1
 253 196.618020041 l 1
 105.936580725 -146 l 1
 400.063419275 -146 l 1
460.973108161 -161.139153109 m 2
 461.332702352 -161.976910385 462.718548385 -166.441498525 462.922937299 -169.038572864 c 0
 464.050397303 -183.364679847 452.370403869 -196 438 -196 c 2
 68 -196 l 2
 67.0883283301 -196 62.4390850584 -195.512502829 59.9719523592 -194.675946678 c 0
 46.3626357296 -190.061295202 39.3587177461 -174.344466806 45.0268918385 -161.139153109 c 2
 228 265.138736716 l 1
 228 284.519332316 l 1
 179.144945068 294.504347502 140.504356552 333.144761401 130.519325069 382 c 1
 68 382 l 2
 54.3828712355 382 43 393.382871236 43 407 c 0
 43 420.617128764 54.3828712355 432 68 432 c 2
 130.519332316 432 l 1
 140.504347502 480.855054932 179.144761401 519.495643448 228 529.480674931 c 1
 228 607 l 2
 228 620.617128764 239.382871236 632 253 632 c 0
 266.617128764 632 278 620.617128764 278 607 c 2
 278 529.480667684 l 1
 326.855054932 519.495652498 365.495643448 480.855238599 375.480674931 432 c 1
 438 432 l 2
 451.617128764 432 463 420.617128764 463 407 c 0
 463 393.382871236 451.617128764 382 438 382 c 2
 375.480667684 382 l 1
 365.495652498 333.144945068 326.855238599 294.504356552 278 284.519325069 c 1
 278 265.138736716 l 1
 460.973108161 -161.139153109 l 2
253 482 m 0
 211.84455479 482 178 448.155851107 178 407 c 0
 178 365.84455479 211.844148893 332 253 332 c 0
 294.15544521 332 328 365.844148893 328 407 c 0
 328 448.15544521 294.155851107 482 253 482 c 0
EndSplineSet
LCarets2: 5 0 0 0 0 0
Ligature2: "Ligature Substitution lookup 157 subtable" j e l o
Ligature2: "Ligature Substitution lookup 88 subtable" j e l o tp_space
Ligature2: "tokiponaWords subtable" percent j e l o space
EndChar

StartChar: tp_jo
Encoding: 60947 60947 19
Width: 550
VWidth: 0
Flags: W
HStem: -208 50<191.486 413.857> -12 21G<259.764 345.388> 482 50<189.678 360.322>
VStem: 43 50<147.927 372.073> 93 50<-118.629 -16.4183> 457 50<146.908 373.092>
LayerCount: 2
Back
SplineSet
68 260 m 4
 68 406 151 507 275 507 c 4
 399 507 482 406 482 260 c 4
 482 114 399 13 275 13 c 4
 151 13 68 114 68 260 c 4
468 -128 m 5
 468 -128 425 -183 305 -183 c 7
 185 -183 118 -136.056640625 118 -76 c 7
 118 6.02438661764 189 30 189 30 c 1029
EndSplineSet
Fore
SplineSet
483.470998689 -108.362072422 m 0xec
 494.617835417 -117.143686252 495.042565367 -132.836775001 488.124053312 -142.853953285 c 0
 483.104323478 -149.225687452 432.890443561 -208 305 -208 c 0
 182.280954939 -208 93 -158.991323922 93 -76 c 0xec
 93 -21.5665114216 118.581487735 11.8639695499 142.274782206 31.1581956257 c 1
 79.6257650948 78.7025372054 43 161.611257253 43 260 c 0xf4
 43 415.278585301 134.22454825 532 275 532 c 0
 415.774006754 532 507 415.278511214 507 260 c 0
 507 104.721414699 415.77545175 -12 275 -12 c 0
 244.527747902 -12 216.377111914 -6.53091113695 190.970812134 3.61448123649 c 1
 175.759426989 -3.93067843566 143.000000006 -25.8794141924 143 -76 c 0
 143 -113.121957328 187.719045061 -158 305 -158 c 0
 410.348432218 -158 446.364406591 -114.863045964 449.451710031 -111.237687157 c 0
 456.4669842 -103.400197987 472.337053213 -99.5906144775 483.470998689 -108.362072422 c 0xec
93 260 m 0xf4
 93 123.278511214 167.774006754 38 275 38 c 0
 382.22454825 38 457 123.278585301 457 260 c 0
 457 396.721488786 382.225993246 482 275 482 c 0
 167.77545175 482 93 396.721414699 93 260 c 0xf4
EndSplineSet
Ligature2: "Ligature Substitution lookup 26 subtable" j o
Ligature2: "Ligature Substitution lookup 13 subtable" j o tp_space
Ligature2: "tokiponaWords subtable" percent j o space
LCarets2: 3 0 0 0
EndChar

StartChar: tp_kala
Encoding: 60948 60948 20
Width: 655
VWidth: 0
Flags: W
HStem: -12 21G<61.1914 74.8086 320.296 450.387> 482 50<301.778 465.322>
VStem: 43 50<-11.7959 161.179 358.821 531.796> 562 50<146.908 373.092>
LayerCount: 2
Back
SplineSet
68 507 m 7
 68 345 173 13 380 13 c 7
 504 13 587 114 587 260 c 7
 587 406 504 507 380 507 c 7
 173 507 68 175 68 13 c 1028
EndSplineSet
Fore
SplineSet
122.369767729 191.35013308 m 1
 102.821896113 125.22121243 93 59.9795440262 93 13 c 0
 93 -0.617128764476 81.6171287645 -12 68 -12 c 0
 54.3828712355 -12 43 -0.617128764476 43 13 c 0
 43 75.8244132049 57.4767812821 159.485762142 86.1577123978 241.993553624 c 0
 88.1509490322 247.727591754 90.4205559853 254.008841047 92.6571793033 260 c 1
 90.4205559853 265.991158953 88.1509490322 272.272408246 86.1577123978 278.006446376 c 0
 57.4767054642 360.514455967 43 444.175256412 43 507 c 0
 43 520.617128764 54.3828712355 532 68 532 c 0
 81.6171287645 532 93 520.617128764 93 507 c 0
 93 460.020896117 102.821989855 394.778470448 122.369767729 328.64986692 c 1
 175.916054289 435.962554103 260.604005943 532 380 532 c 0
 520.77545175 532 612 415.278585301 612 260 c 0
 612 104.721488786 520.774006754 -12 380 -12 c 0
 260.592423457 -12 175.921817511 84.0258957616 122.369767729 191.35013308 c 1
146.309962537 260 m 0
 148.260551616 255.184991539 150.304257008 250.285712927 152.310160707 245.630357687 c 0
 202.86162734 128.309154701 281.183999889 38 380 38 c 0
 487.225993246 38 562 123.278511214 562 260 c 0
 562 396.721414699 487.22454825 482 380 482 c 0
 281.42649901 482 203.264562495 392.173448743 152.686844435 275.242179167 c 0
 150.549035193 270.299750795 148.379743205 265.109231633 146.309962537 260 c 0
EndSplineSet
LCarets2: 5 0 0 0 0 0
Ligature2: "Ligature Substitution lookup 158 subtable" k a l a
Ligature2: "Ligature Substitution lookup 89 subtable" k a l a tp_space
Ligature2: "tokiponaWords subtable" percent k a l a space
EndChar

StartChar: tp_kalama
Encoding: 60949 60949 21
Width: 550
VWidth: 0
Flags: HW
HStem: -12 21G<204.009 345.991> 470 50<105 445>
VStem: 55 50<140.295 470> 250 50<578.204 727.796> 445 50<140.295 470>
CounterMasks: 1 38
AnchorPoint: "Small" 275 260 basechar 0
LayerCount: 2
Back
SplineSet
398 604 m 5
 475 673 l 1029
275 603 m 5
 275 703 l 1029
75 673 m 5
 152 604 l 1029
EndSplineSet
Refer: 112 61040 S 1 0 0 1 5 0 2
Fore
SplineSet
379.381620375 587.315997479 m 0
 370.294091949 597.457152388 371.174842569 613.5308512 381.315997479 622.618379625 c 2
 458.315997479 691.618379625 l 2
 468.457152388 700.705908051 484.5308512 699.825157431 493.618379625 689.684002521 c 0
 502.705908051 679.542847612 501.825157431 663.4691488 491.684002521 654.381620375 c 2
 414.684002521 585.381620375 l 2
 404.542847612 576.294091949 388.4691488 577.174842569 379.381620375 587.315997479 c 0
275 578 m 0
 261.382871236 578 250 589.382871236 250 603 c 2
 250 703 l 2
 250 716.617128764 261.382871236 728 275 728 c 0
 288.617128764 728 300 716.617128764 300 703 c 2
 300 603 l 2
 300 589.382871236 288.617128764 578 275 578 c 0
56.3816203748 689.684002521 m 0
 65.4691488004 699.825157431 81.5428476116 700.705908051 91.6840025213 691.618379625 c 2
 168.684002521 622.618379625 l 2
 178.825157431 613.5308512 179.705908051 597.457152388 170.618379625 587.315997479 c 0
 161.5308512 577.174842569 145.457152388 576.294091949 135.315997479 585.381620375 c 2
 58.3159974787 654.381620375 l 2
 48.174842569 663.4691488 47.2940919492 679.542847612 56.3816203748 689.684002521 c 0
EndSplineSet
Refer: 112 61040 N 1 0 0 1 5 0 2
Ligature2: "Ligature Substitution lookup 257 subtable" k a l a m a
Ligature2: "Ligature Substitution lookup 246 subtable" k a l a m a tp_space
Ligature2: "tokiponaWords subtable" percent k a l a m a space
LCarets2: 7 0 0 0 0 0 0 0
EndChar

StartChar: tp_kama
Encoding: 60950 60950 22
Width: 654
VWidth: 0
Flags: MW
HStem: 0 50<371.191 593.185> 235 50
DStem2: 91.0409 269.701 44.9591 250.299 0.388057 -0.921635<-24.7959 208.34> 171.889 77.6881 195.074 3.37798 0.384881 0.922966<0 416.641> 400.954 516.905 378.394 442.99 0.396217 -0.918157<58.9274 486.948>
LayerCount: 2
Back
SplineSet
378 25 m 1
 586 25 l 1
 378 507 l 1
 172 13 l 1
 68 260 l 1025
EndSplineSet
Fore
SplineSet
353 25 m 0
 353 38.6171287645 364.382871236 50 378 50 c 2
 547.983155564 50 l 1
 378.394129978 442.989953522 l 1
 195.074158288 3.37798257628 l 2
 189.543267231 -9.88541636532 173.385888129 -15.8025662304 160.597311314 -9.248116566 c 0
 155.357799 -6.56274193656 151.105331658 -1.79868808735 148.959115622 3.29857499855 c 2
 44.9591156215 250.298574999 l 2
 39.6748934838 262.848602576 45.7485474214 277.756662241 58.2985749985 283.040884378 c 0
 70.8486025757 288.325106516 85.7566622407 282.251452579 91.0408843785 269.701425001 c 2
 171.888610678 77.6880750406 l 1
 354.925841712 516.622017424 l 2
 356.695986567 520.866927902 361.114211351 526.354237225 366.324208983 529.106015112 c 0
 379.031103586 535.817448408 395.260122342 530.099711775 400.953921675 516.905426781 c 2
 608.953921675 34.9054267811 l 2
 609.36181433 33.960213996 610.716612029 29.5831058436 610.922937299 26.9614271361 c 0
 612.050397303 12.6353201526 600.370403869 0 586 0 c 2
 378 0 l 2
 364.382871236 0 353 11.3828712355 353 25 c 0
EndSplineSet
Ligature2: "Ligature Substitution lookup 159 subtable" k a m a
Ligature2: "Ligature Substitution lookup 90 subtable" k a m a tp_space
Ligature2: "tokiponaWords subtable" percent k a m a space
LCarets2: 5 0 0 0 0 0
EndChar

StartChar: tp_kasi
Encoding: 60951 60951 23
Width: 550
VWidth: 0
Flags: W
HStem: -12 21G<268.191 281.809> 480.525 51.4747<93.9406 157.005 392.995 456.059>
VStem: 43 464<356.326 522.133> 250 50<-11.7959 238.6>
LayerCount: 2
Back
SplineSet
275 13 m 5
 275 260 l 1028
482 507 m 5
 325 507 279 370 275 260 c 5
 399 260 482 356 482 507 c 5
68 507 m 5
 225 507 271 370 275 260 c 5
 151 260 68 356 68 507 c 5
EndSplineSet
Fore
SplineSet
93.9405956325 480.525284292 m 1xc0
 102.519018644 366.556267071 161.459080291 298.676908476 248.076188134 286.770869171 c 1
 238.485657485 378.10873558 199.2994892 467.591727914 93.9405956325 480.525284292 c 1xc0
456.059404368 480.525284292 m 1
 350.7005108 467.591727914 311.514342515 378.10873558 301.923811866 286.770869171 c 1
 388.540919709 298.676908476 447.480981356 366.556267071 456.059404368 480.525284292 c 1
482 532 m 0
 492.729904333 532 507 522.132537856 507 507 c 0xe0
 507 356.326333376 426.086198521 248.726678551 300 236.219383582 c 1
 300 13 l 2
 300 -0.617128764476 288.617128764 -12 275 -12 c 0
 261.382871236 -12 250 -0.617128764476 250 13 c 2
 250 236.219383582 l 1xd0
 123.913801479 248.726678551 43 356.326333376 43 507 c 0xe0
 43 522.132537856 57.2700956673 532 68 532 c 0
 183.193881268 532 244.794974899 465.642296556 275 388.128078521 c 1
 305.205025101 465.642296556 366.806118732 532 482 532 c 0
EndSplineSet
LCarets2: 5 0 0 0 0 0
Ligature2: "Ligature Substitution lookup 160 subtable" k a s i
Ligature2: "Ligature Substitution lookup 91 subtable" k a s i tp_space
Ligature2: "tokiponaWords subtable" percent k a s i space
EndChar

StartChar: tp_ken
Encoding: 60952 60952 24
Width: 398
VWidth: 0
Flags: W
HStem: -12 21G<73.1914 86.8086> 512 20G<73.1914 86.8086>
VStem: 55 50<-11.7959 196.136 323.864 531.796>
LayerCount: 2
Back
SplineSet
330 507 m 5
 75 260 l 5
 330 13 l 1029
80 507 m 5
 80 13 l 1029
EndSplineSet
Fore
SplineSet
80 532 m 0
 93.6171287645 532 105 520.617128764 105 507 c 2
 105 323.863987826 l 1
 312.606254874 524.957105292 l 2
 322.387223474 534.431219976 338.482990609 534.174713726 347.957105292 524.393745126 c 0
 357.431219976 514.612776526 357.174713726 498.517009391 347.393745126 489.042894708 c 2
 110.932457068 260 l 1
 347.393745126 30.9571052924 l 2
 357.174713726 21.4829906091 357.431219976 5.38722347381 347.957105292 -4.39374512632 c 0
 338.482990609 -14.1747137264 322.387223474 -14.4312199756 312.606254874 -4.95710529235 c 2
 105 196.136012174 l 1
 105 13 l 2
 105 -0.617128764476 93.6171287645 -12 80 -12 c 0
 66.3828712355 -12 55 -0.617128764476 55 13 c 2
 55 245.094287026 l 1
 49.2309478574 253.239848128 48.2552639341 265.823653487 55 274.977482576 c 1
 55 507 l 2
 55 520.617128764 66.3828712355 532 80 532 c 0
EndSplineSet
Ligature2: "Ligature Substitution lookup 68 subtable" k e n
Ligature2: "Ligature Substitution lookup 46 subtable" k e n tp_space
Ligature2: "tokiponaWords subtable" percent k e n space
LCarets2: 4 0 0 0 0
EndChar

StartChar: tp_kepeken
Encoding: 60953 60953 25
Width: 540
VWidth: 0
Flags: W
HStem: -196 21G<463.191 476.809> 150 48.8252<190.478 250 300 359.523> 320 50<105 250 300 445> 666 50<105 250 300 445>
VStem: 55 50<-119.217 54.1033 370 666> 250 50<196.538 320 370 666> 445 50<-195.796 54.0899 370 666>
CounterMasks: 1 0e
LayerCount: 2
Back
SplineSet
-17 -92 m 5
 -17 -92 80 -173 80 -171 c 4
 80 -65 l 7
 80 85.0302734375 151 175 275 175 c 7
 399 175 470 85 470 -65 c 6
 470 -171 l 1029
275 691 m 5
 275 175 l 1028
80 691 m 5
 80 345 l 5
 470 345 l 5
 470 691 l 5
 80 691 l 5
EndSplineSet
Fore
SplineSet
105 666 m 1
 105 370 l 1
 250 370 l 1
 250 666 l 1
 105 666 l 1
55 691 m 2
 55 701.729904333 64.8674621445 716 80 716 c 2
 275 716 l 1
 470 716 l 2
 480.729904333 716 495 706.132537856 495 691 c 2
 495 345 l 2
 495 334.270095667 485.132537856 320 470 320 c 2
 300 320 l 1
 300 198.824885714 l 1
 425.056090621 186.799291896 495 83.4747217362 495 -65 c 2
 495 -171 l 2
 495 -184.617128764 483.617128764 -196 470 -196 c 0
 456.382871236 -196 445 -184.617128764 445 -171 c 2
 445 -65 l 2
 445 76.9045369508 382.301915299 150 275 150 c 0
 167.694584894 150 105 76.933895679 105 -65 c 2
 105 -171 l 2
 105 -194.890701715 76.9525596777 -195.935278876 74.9991018112 -195.542573428 c 0
 50.0745629667 -190.531970258 -31.3103617519 -112.620190883 -33.0231202526 -111.190091646 c 0
 -43.4756782103 -102.462535978 -44.9176473132 -86.4294377051 -36.1900916457 -75.9768797474 c 0
 -27.4625359782 -65.5243217897 -11.4294377051 -64.0823526868 -0.97687974742 -72.8099083543 c 2
 -0.97687974742 -72.8099083543 30.082466782 -98.7260651669 55 -119.216974755 c 1
 55 -65 l 2
 55 83.5037888892 124.946786055 186.802546417 250 198.82515694 c 1
 250 320 l 1
 80 320 l 2
 69.2700956673 320 55 329.867462144 55 345 c 2
 55 691 l 2
300 370 m 1
 445 370 l 1
 445 666 l 1
 300 666 l 1
 300 370 l 1
EndSplineSet
Ligature2: "Ligature Substitution lookup 272 subtable" k e p e k e n
Ligature2: "Ligature Substitution lookup 268 subtable" k e p e k e n tp_space
Ligature2: "tokiponaWords subtable" percent k e p e k e n space
LCarets2: 8 0 0 0 0 0 0 0 0
EndChar

StartChar: tp_kili
Encoding: 60954 60954 26
Width: 630
VWidth: 0
Flags: W
HStem: -12 21G<223.015 405.429> 482 50<147.65 272.132 357.652 483.124>
VStem: 43 50<185.05 412.381> 290 50<507.729 661.796> 537 50<178.962 414.084>
CounterMasks: 1 38
LayerCount: 2
Back
SplineSet
315 457 m 5
 315 637 l 1028
315 13 m 7
 478.029296875 13 562 148 562 300 c 7
 562 400 522 507 435 507 c 7
 356 507 315 457 315 457 c 5
 315 457 273 507 195 507 c 7
 110 507 68 400 68 300 c 7
 68 162 149.918945312 13 315 13 c 7
EndSplineSet
Fore
SplineSet
315 38 m 0
 460.201479286 38 537 156.096763082 537 300 c 0
 537 399.488666192 496.711411631 482 435 482 c 0
 369.851380901 482 336.222856863 443.336836798 333.419474537 440.084252926 c 0
 332.209173235 438.833018969 330.937653113 437.754258824 329.622485266 436.834080722 c 0
 325.487076816 433.803717534 320.420557607 431.99999962 315 432 c 0
 309.6243194 432 304.596839031 433.773975626 300.480418236 436.759070312 c 0
 298.966941467 437.756358822 297.648001055 438.881262158 296.583620663 440.086327407 c 0
 293.952978123 443.09213031 259.073743569 482 195 482 c 0
 135.288933465 482 93 399.196673423 93 300 c 0
 93 169.612702762 168.807833597 38 315 38 c 0
315 -12 m 0
 131.030057028 -12 43 154.387297238 43 300 c 0
 43 400.803326577 84.7110665349 532 195 532 c 0
 235.223838595 532 266.844383342 520.593984593 290 507.626015483 c 1
 290 637 l 2
 290 650.617128764 301.382871236 662 315 662 c 0
 328.617128764 662 340 650.617128764 340 637 c 2
 340 507.728556552 l 1
 362.835172306 520.373573391 394.817574953 532 435 532 c 0
 547.288588369 532 587 400.511333808 587 300 c 0
 587 139.903236918 495.857114464 -12 315 -12 c 0
EndSplineSet
LCarets2: 5 0 0 0 0 0
Ligature2: "Ligature Substitution lookup 161 subtable" k i l i
Ligature2: "Ligature Substitution lookup 92 subtable" k i l i tp_space
Ligature2: "tokiponaWords subtable" percent k i l i space
EndChar

StartChar: tp_kiwen
Encoding: 60955 60955 27
Width: 670
VWidth: 0
Flags: W
HStem: 470 50<219.364 450.636>
DStem2: 46.4022 272.591 97.0618 260.212 0.503642 0.863912<14.82 257.655> 97.0618 260.212 46.5883 247.095 0.516201 -0.856468<0 460.941> 335 -134.569 356.412 -195.905 0.516201 0.856468<0 460.941> 486.598 507.591 450.636 470 0.503642 -0.863912<14.3637 257.198>
LayerCount: 2
Back
SplineSet
335 -183 m 5
 68 260 l 5
 205 495 l 5
 465 495 l 5
 602 260 l 5
 335 -183 l 5
EndSplineSet
Fore
SplineSet
335 -134.569217573 m 1
 572.938200456 260.212141237 l 1
 450.636342369 470 l 1
 219.363657631 470 l 1
 97.0617995436 260.212141237 l 1
 335 -134.569217573 l 1
313.588307544 -195.905015543 m 2
 46.5883075441 247.094984457 l 2
 41.7587472264 255.108075171 42.3317512178 265.608912989 46.4021948716 272.591060862 c 2
 183.402194872 507.591060862 l 2
 188.044188485 515.553604651 197.54338764 520 205 520 c 2
 465 520 l 2
 474.216843728 520 482.842338726 514.032919289 486.597805128 507.591060862 c 2
 623.597805128 272.591060862 l 2
 628.309871355 264.508319524 627.583631516 254.016965744 623.411692456 247.094984457 c 2
 356.411692456 -195.905015543 l 2
 348.993681044 -208.212802268 332.142717604 -211.693979241 320.454865287 -203.333200834 c 0
 317.714883734 -201.373184744 313.967380397 -196.533964134 313.588307544 -195.905015543 c 2
EndSplineSet
LCarets2: 6 0 0 0 0 0 0
Ligature2: "Ligature Substitution lookup 236 subtable" k i w e n
Ligature2: "Ligature Substitution lookup 223 subtable" k i w e n tp_space
Ligature2: "tokiponaWords subtable" percent k i w e n space
EndChar

StartChar: tp_ko
Encoding: 60956 60956 28
Width: 590
VWidth: 0
Flags: W
HStem: -12 21G<150.813 213.884 376.59 441.34> 482 50<237.986 353.017>
VStem: 43 50<71.9491 198.383> 149 50<290.563 443.148> 389 50<280.858 445.791> 497 50<70.0737 200.668>
LayerCount: 2
Back
SplineSet
202 270 m 5
 202 270 68 250 68 145 c 7
 68 54 126 13 188 13 c 7
 249 13 295 103 295 103 c 5
 295 103 342 13 402 13 c 7
 467.901367188 13 522 54 522 148 c 7
 522 248 392 270 392 270 c 5
 392 270 414 334.892578125 414 377 c 7
 414 437 375.385742188 507 295 507 c 7
 218.138671875 507 174 438 174 375 c 7
 174 334.987304688 202 270 202 270 c 5
EndSplineSet
Fore
SplineSet
168.403556551 287.578821777 m 1
 160.400325796 310.113019287 149 344.950884067 149 375 c 0
 149 447.684597754 200.564747455 532 295 532 c 0
 393.455019394 532 439 445.623817234 439 377 c 0
 439 346.496457889 430.198814325 311.532793967 423.515805838 287.715565937 c 1
 461.384148472 275.70525135 547 239.656290068 547 148 c 0
 547 41.760734553 480.680185012 -12 402 -12 c 0
 351.180837632 -12 315.983625643 28.7377236177 295.14272219 56.6424261712 c 1
 276.40011437 31.2127572686 239.768750127 -12 188 -12 c 0
 113.625804587 -12 43 40.7339923903 43 145 c 0
 43 238.680219878 127.524910167 275.071176242 168.403556551 287.578821777 c 1
206.068118953 245.332638789 m 0
 197.585045912 244.006079538 93 223.10272341 93 145 c 0
 93 67.2660076097 138.374195413 38 188 38 c 0
 226.777675123 38 270.375354063 109.813150314 272.759000771 114.416564864 c 0
 279.321426687 127.201050519 295.896128623 131.821961433 308.126337188 124.276730765 c 0
 311.952605555 121.916175973 315.341140888 118.041531717 317.14040449 114.610447409 c 0
 319.555231735 110.005521336 364.22452123 38 402 38 c 0
 455.122549363 38 497 66.239265447 497 148 c 0
 497 221.675262781 395.514403923 243.993711427 386.748866465 245.54072065 c 0
 371.197093687 249.477314056 363.728734894 264.433098659 368.316396248 278.005430239 c 2
 368.316396248 278.005430239 389 341.290865421 389 377 c 0
 389 428.376182766 357.316464981 482 295 482 c 0
 235.712596295 482 199 428.315402246 199 375 c 0
 199 343.474387319 224.96972995 279.868713495 224.96972995 279.868713495 c 2
 231.970963642 263.573129748 219.056037259 247.564469014 206.068118953 245.332638789 c 0
EndSplineSet
LCarets2: 3 0 0 0
Ligature2: "Ligature Substitution lookup 27 subtable" k o
Ligature2: "Ligature Substitution lookup 14 subtable" k o tp_space
Ligature2: "tokiponaWords subtable" percent k o space
EndChar

StartChar: tp_kon
Encoding: 60957 60957 29
Width: 550
VWidth: 0
Flags: W
HStem: -12.0011 22G<61.1752 95.3704 325.175 359.37> 481 50.0011<130.875 242.741 391.318 506.61>
VStem: 43 50<337.061 448.71> 193 50<70.3683 182.415> 307 50<337.598 449.71> 457 50<71.3683 182.986>
LayerCount: 2
Back
SplineSet
332 14 m 29
 332 14 482 14 482 114 c 7
 482 260.123235661 332 259.986395187 332 407 c 7
 332 507 482 507 482 507 c 1029
68 13 m 29
 68 13 218 13 218 113 c 7
 218 260.013604813 68 260 68 406 c 7
 68 506 218 506 218 506 c 1029
EndSplineSet
Fore
SplineSet
307.000026485 13.9636099367 m 0
 306.980205358 27.5807242753 318.346495598 38.9801523881 331.963609937 38.9999735153 c 0
 342.097301091 39.0147241574 457 45.6105533254 457 114 c 0
 457 236.65949831 307 236.572975135 307 407 c 0
 307 537.913258848 482.749200146 532.001121151 482.749200146 532.001121151 c 1
 497.181808731 531.114187772 506.980997009 520.073250191 506.999973515 507.036390063 c 0
 507.019794642 493.419275725 495.653504402 482.019847612 482.036390063 482.000026485 c 0
 471.882482852 481.955295616 357 475.422232244 357 407 c 0
 357 283.399815239 507 283.586973012 507 114 c 0
 507 -16.4013162859 331.250799854 -11.001121151 331.250799854 -11.001121151 c 1
 319.099688381 -10.2543936077 307.02068213 -0.226818326638 307.000026485 13.9636099367 c 0
43.0000264847 12.9636099367 m 0
 42.9802053576 26.5807242753 54.346495598 37.9801523881 67.9636099367 37.9999735153 c 0
 78.0973010908 38.0147241574 193 44.6105533254 193 113 c 0
 193 236.720196448 43 236.422018858 43 406 c 0
 43 536.913258848 218.749200146 531.001121151 218.749200146 531.001121151 c 1
 233.181808731 530.114187772 242.980997009 519.073250191 242.999973515 506.036390063 c 0
 243.019794642 492.419275725 231.653504402 481.019847612 218.036390063 481.000026485 c 0
 207.882482852 480.955295616 93 474.422232244 93 406 c 0
 93 283.577981142 243 283.307013177 243 113 c 0
 243 -17.4013162859 67.2507998539 -12.001121151 67.2507998539 -12.001121151 c 1
 55.0996883806 -11.2543936077 43.02068213 -1.22681832664 43.0000264847 12.9636099367 c 0
EndSplineSet
LCarets2: 4 0 0 0 0
Ligature2: "Ligature Substitution lookup 70 subtable" k o n
Ligature2: "Ligature Substitution lookup 48 subtable" k o n tp_space
Ligature2: "tokiponaWords subtable" percent k o n space
EndChar

StartChar: tp_kule
Encoding: 60958 60958 30
Width: 540
VWidth: 0
Flags: W
HStem: -12 21G<61.7756 484.185> 166 50<38.2041 100.005 175.169 364.831 439.995 501.796>
LayerCount: 2
Back
SplineSet
63 191 m 5
 477 191 l 1029
270 507 m 5
 63 13 l 5
 477 13 l 5
 270 507 l 5
EndSplineSet
Fore
SplineSet
246.942456487 516.661764184 m 2
 248.981940084 521.528937599 253.304555861 526.523968961 258.55899062 529.228434591 c 0
 271.336253918 535.804911609 287.503805376 529.915612685 293.057543513 516.661764184 c 2
 419.043343485 216 l 1
 477 216 l 2
 490.617128764 216 502 204.617128764 502 191 c 0
 502 177.382871236 490.617128764 166 477 166 c 2
 439.994760489 166 l 1
 500.057543513 22.6617641845 l 2
 501.00395559 20.4031769094 501.715718615 17.5944580424 501.922937299 14.9614271361 c 0
 503.050397303 0.63532015256 491.370403869 -12 477 -12 c 2
 63 -12 l 2
 60.5511406127 -12 57.6855788531 -11.5709731026 55.1770459429 -10.7445023073 c 0
 41.5283224298 -6.24774193727 34.3887183504 9.40791568409 39.9424564872 22.6617641845 c 2
 100.005239511 166 l 1
 63 166 l 2
 49.3828712355 166 38 177.382871236 38 191 c 0
 38 204.617128764 49.3828712355 216 63 216 c 2
 120.956656515 216 l 1
 246.942456487 516.661764184 l 2
154.217432554 166 m 1
 100.581805023 38 l 1
 439.418194977 38 l 1
 385.782567446 166 l 1
 154.217432554 166 l 1
175.168849558 216 m 1
 364.831150442 216 l 1
 270 442.312020862 l 1
 175.168849558 216 l 1
EndSplineSet
Ligature2: "Ligature Substitution lookup 162 subtable" k u l e
Ligature2: "Ligature Substitution lookup 93 subtable" k u l e tp_space
Ligature2: "tokiponaWords subtable" percent k u l e space
LCarets2: 5 0 0 0 0 0
EndChar

StartChar: tp_kulupu
Encoding: 60959 60959 31
Width: 600
VWidth: 0
Flags: W
HStem: 25 50<116.825 203.175 396.825 483.175> 185 50<116.825 203.175 396.825 483.175> 265 50<256.825 343.175> 425 50<256.825 343.175>
VStem: 55 50<86.8249 173.175> 195 50<326.825 413.175> 215 50<86.8249 173.175> 335 50<86.8249 173.175> 355 50<326.825 413.175> 495 50<86.8249 173.175>
LayerCount: 2
Back
SplineSet
360 130 m 0
 360 174 396 210 440 210 c 0
 484 210 520 174 520 130 c 0
 520 86 484 50 440 50 c 0
 396 50 360 86 360 130 c 0
80 130 m 0
 80 174 116 210 160 210 c 0
 204 210 240 174 240 130 c 0
 240 86 204 50 160 50 c 0
 116 50 80 86 80 130 c 0
220 370 m 0
 220 414 256 450 300 450 c 0
 344 450 380 414 380 370 c 0
 380 326 344 290 300 290 c 0
 256 290 220 326 220 370 c 0
EndSplineSet
Fore
SplineSet
195 370 m 0xfcc0
 195 427.844147731 242.155680827 475 300 475 c 0
 357.844147731 475 405 427.844319173 405 370 c 0
 405 312.155852269 357.844319173 265 300 265 c 0
 242.155852269 265 195 312.155680827 195 370 c 0xfcc0
245 370 m 0
 245 339.844319173 269.844147731 315 300 315 c 0
 330.155680827 315 355 339.844147731 355 370 c 0
 355 400.155680827 330.155852269 425 300 425 c 0
 269.844319173 425 245 400.155852269 245 370 c 0
55 130 m 0
 55 187.844147731 102.155680827 235 160 235 c 0
 217.844147731 235 265 187.844319173 265 130 c 0xfa40
 265 72.1558522686 217.844319173 25 160 25 c 0
 102.155852269 25 55 72.1556808271 55 130 c 0
105 130 m 0
 105 99.8443191729 129.844147731 75 160 75 c 0
 190.155680827 75 215 99.8441477314 215 130 c 0
 215 160.155680827 190.155852269 185 160 185 c 0
 129.844319173 185 105 160.155852269 105 130 c 0
335 130 m 0xf940
 335 187.844147731 382.155680827 235 440 235 c 0
 497.844147731 235 545 187.844319173 545 130 c 0
 545 72.1558522686 497.844319173 25 440 25 c 0
 382.155852269 25 335 72.1556808271 335 130 c 0xf940
385 130 m 0
 385 99.8443191729 409.844147731 75 440 75 c 0
 470.155680827 75 495 99.8441477314 495 130 c 0
 495 160.155680827 470.155852269 185 440 185 c 0
 409.844319173 185 385 160.155852269 385 130 c 0
EndSplineSet
LCarets2: 7 0 0 0 0 0 0 0
Ligature2: "Ligature Substitution lookup 259 subtable" k u l u p u
Ligature2: "Ligature Substitution lookup 248 subtable" k u l u p u tp_space
Ligature2: "tokiponaWords subtable" percent k u l u p u space
EndChar

StartChar: tp_kute
Encoding: 60960 60960 32
Width: 488
VWidth: 0
Flags: HW
HStem: -12 21G<179.356 283.783> 220 78<178.656 248.094> 482 50<130.119 298.634>
VStem: 174.375 78<224.281 293.719> 395 50<146.908 373.092>
LayerCount: 2
Back
SplineSet
68 442.375 m 5
 107.875 482.25 152.875 507 213.375 507 c 4
 337.375 507 420 406 420 260 c 4
 420 114 337.375 13 213.375 13 c 4
 152.875 13 107.875 37.75 68 77.625 c 1029
EndSplineSet
Refer: 153 -1 S 1 0 0 1 213.375 259 2
Fore
SplineSet
50.3223304703 424.69733047 m 0
 40.6935663807 434.32609456 40.6935663807 450.42390544 50.3223304703 460.05266953 c 0
 93.2607450979 502.991084157 145.3365256 532 213.375 532 c 0
 354.189208806 532 445 415.217997216 445 260 c 0
 445 104.781920896 354.190672023 -12 213.375 -12 c 0
 145.336402909 -12 93.260772459 17.0088884816 50.3223304703 59.9473304703 c 0
 40.6935663807 69.57609456 40.6935663807 85.67390544 50.3223304703 95.3026695297 c 0
 59.95109456 104.931433619 76.04890544 104.931433619 85.6776695297 95.3026695297 c 0
 122.489227541 58.4911115184 160.413597091 38 213.375 38 c 0
 320.559327977 38 395 123.218079104 395 260 c 0
 395 396.782002784 320.560791194 482 213.375 482 c 0
 160.4134744 482 122.489254902 461.508915843 85.6776695297 424.69733047 c 0
 76.04890544 415.068566381 59.95109456 415.068566381 50.3223304703 424.69733047 c 0
EndSplineSet
Refer: 153 -1 N 1 0 0 1 213.375 259 2
Ligature2: "Ligature Substitution lookup 163 subtable" k u t e
Ligature2: "Ligature Substitution lookup 94 subtable" k u t e tp_space
Ligature2: "tokiponaWords subtable" percent k u t e space
LCarets2: 5 0 0 0 0 0
EndChar

StartChar: tp_la
Encoding: 60961 60961 33
Width: 488
VWidth: 0
Flags: W
HStem: -12 21G<179.356 283.783> 482 50<130.119 298.634>
VStem: 395 50<146.908 373.092>
LayerCount: 2
Back
SplineSet
68 442.375 m 5
 107.875 482.25 152.875 507 213.375 507 c 4
 337.375 507 420 406 420 260 c 4
 420 114 337.375 13 213.375 13 c 4
 152.875 13 107.875 37.75 68 77.625 c 1029
EndSplineSet
Fore
SplineSet
50.3223304703 424.69733047 m 0
 40.6935663807 434.32609456 40.6935663807 450.42390544 50.3223304703 460.05266953 c 0
 93.2607450979 502.991084157 145.3365256 532 213.375 532 c 0
 354.189208806 532 445 415.217997216 445 260 c 0
 445 104.781920896 354.190672023 -12 213.375 -12 c 0
 145.336402909 -12 93.260772459 17.0088884816 50.3223304703 59.9473304703 c 0
 40.6935663807 69.57609456 40.6935663807 85.67390544 50.3223304703 95.3026695297 c 0
 59.95109456 104.931433619 76.04890544 104.931433619 85.6776695297 95.3026695297 c 0
 122.489227541 58.4911115184 160.413597091 38 213.375 38 c 0
 320.559327977 38 395 123.218079104 395 260 c 0
 395 396.782002784 320.560791194 482 213.375 482 c 0
 160.4134744 482 122.489254902 461.508915843 85.6776695297 424.69733047 c 0
 76.04890544 415.068566381 59.95109456 415.068566381 50.3223304703 424.69733047 c 0
EndSplineSet
Ligature2: "Ligature Substitution lookup 28 subtable" l a
Ligature2: "Ligature Substitution lookup 15 subtable" l a tp_space
Ligature2: "tokiponaWords subtable" percent l a space
LCarets2: 3 0 0 0
EndChar

StartChar: tp_lape
Encoding: 60962 60962 34
Width: 550
VWidth: 0
Flags: W
HStem: 139 50<335.427 435.992> 235 50<43.2041 273.596> 331 50<335.427 435.992>
VStem: 457 50<210.008 309.992>
CounterMasks: 1 e0
LayerCount: 2
Back
SplineSet
68 260 m 1
 290 260 l 1025
290 260 m 0
 290 313 333 356 386 356 c 0
 439 356 482 313 482 260 c 0
 482 207 439 164 386 164 c 0
 333 164 290 207 290 260 c 0
EndSplineSet
Fore
SplineSet
43 260 m 0
 43 273.6171875 54.3828125 285 68 285 c 2
 267.587890625 285 l 1
 279.111328125 339.819335938 327.762695312 381 386 381 c 0
 452.806640625 381 507 326.807617188 507 260 c 0
 507 193.193359375 452.807617188 139 386 139 c 0
 327.762695312 139 279.111328125 180.180664062 267.587890625 235 c 1
 68 235 l 2
 54.3828125 235 43 246.3828125 43 260 c 0
315 260 m 0
 315 220.807617188 346.806640625 189 386 189 c 0
 425.192382812 189 457 220.806640625 457 260 c 0
 457 299.192382812 425.193359375 331 386 331 c 0
 346.807617188 331 315 299.193359375 315 260 c 0
EndSplineSet
Ligature2: "Ligature Substitution lookup 164 subtable" l a p e
Ligature2: "Ligature Substitution lookup 95 subtable" l a p e tp_space
Ligature2: "tokiponaWords subtable" percent l a p e space
LCarets2: 5 0 0 0 0 0
EndChar

StartChar: tp_laso
Encoding: 60963 60963 35
Width: 506
VWidth: 0
Flags: W
HStem: -196 50<105.937 400.063> 196.618 307.207<99.3965 406.604> 565.522 51.4777<105.552 162.814 343.186 400.448>
VStem: 55 50.5522<451.448 565.522> 228 50<265.139 323.734> 400.448 50.5522<451.448 565.522>
DStem2: 45.0269 -161.139 105.937 -146 0.394434 0.918924<37.9366 410.783> 278 265.139 253 196.618 0.394434 -0.918924<53.1045 425.951>
LayerCount: 2
Back
SplineSet
253 260 m 5
 253 345 l 1028
426 592 m 5
 269 592 257 455 253 345 c 5
 377 345 426 441 426 592 c 5
80 592 m 5
 237 592 249 455 253 345 c 5
 129 345 80 441 80 592 c 5
438 -171 m 5
 253 260 l 5
 68 -171 l 5
 438 -171 l 5
EndSplineSet
Fore
SplineSet
400.063419275 -146 m 1
 253 196.618020041 l 1
 105.936580725 -146 l 1
 400.063419275 -146 l 1
460.973108161 -161.139153109 m 2
 461.332702352 -161.976910385 462.718548385 -166.441498525 462.922937299 -169.038572864 c 0
 464.050397303 -183.364679847 452.370403869 -196 438 -196 c 2
 68 -196 l 2
 67.0883283301 -196 62.4390850584 -195.512502829 59.9719523592 -194.675946678 c 0
 46.3626357296 -190.061295202 39.3587177461 -174.344466806 45.0268918385 -161.139153109 c 2
 228 265.138736716 l 1
 228 321.25588806 l 1
 102.650454629 334.261748531 55 446.850102715 55 592 c 0
 55 607.132537856 69.2700956673 617 80 617 c 0
 179.976287451 617 228.731734283 566.745590248 253 503.825042416 c 1
 277.268265717 566.745590248 326.023712549 617 426 617 c 0
 436.729904333 617 451 607.132537856 451 592 c 0
 451 446.850102715 403.349545371 334.261748531 278 321.25588806 c 1
 278 265.138736716 l 1
 460.973108161 -161.139153109 l 2
105.552225313 565.522341106 m 1
 110.854307324 446.703153612 147.955977076 383.338932859 226.782421202 371.765956871 c 1
 221.324881569 468.902051715 203.868237281 553.185461355 105.552225313 565.522341106 c 1
400.447774687 565.522341106 m 1
 302.131762719 553.185461355 284.675118431 468.902051715 279.217578798 371.765956871 c 1
 358.044022924 383.338932859 395.145692676 446.703153612 400.447774687 565.522341106 c 1
EndSplineSet
Ligature2: "Ligature Substitution lookup 165 subtable" l a s o
Ligature2: "Ligature Substitution lookup 96 subtable" l a s o tp_space
Ligature2: "tokiponaWords subtable" percent l a s o space
LCarets2: 5 0 0 0 0 0
EndChar

StartChar: tp_lawa
Encoding: 60964 60964 36
Width: 550
VWidth: 0
Flags: W
HStem: -12 21G<204.613 345.388> 235 50<93.8642 456.136> 482 50<190.174 359.826>
VStem: 43 50.8642<145.889 235 285 374.111> 456.136 50.8642<145.889 235 285 374.111>
LayerCount: 2
Back
SplineSet
80 260 m 5
 210 260 340 260 470 260 c 1029
EndSplineSet
Refer: 12 60940 S 1 0 0 1 0 0 2
Fore
SplineSet
43 260 m 0
 43 415.278320312 134.224609375 532 275 532 c 0
 415.774414062 532 507 415.278320312 507 260 c 0
 507 104.721679688 415.775390625 -12 275 -12 c 0
 134.225585938 -12 43 104.721679688 43 260 c 0
93.8642341646 285 m 1
 456.135776544 285 l 1
 447.535956253 407.038440477 375.530632709 482 275 482 c 0
 174.470282878 482 102.464158082 407.038440477 93.8642341646 285 c 1
456.135765835 235 m 1
 93.8642234564 235 l 1
 102.464043747 112.961559523 174.469367291 38 275 38 c 0
 375.529717122 38 447.535841918 112.961559523 456.135765835 235 c 1
EndSplineSet
Ligature2: "Ligature Substitution lookup 166 subtable" l a w a
Ligature2: "Ligature Substitution lookup 97 subtable" l a w a tp_space
Ligature2: "tokiponaWords subtable" percent l a w a space
LCarets2: 5 0 0 0 0 0
EndChar

StartChar: tp_len
Encoding: 60965 60965 37
Width: 550
VWidth: 0
Flags: MW
HStem: -196 50 0 50<105 250 300 445> 470 50<105 445>
VStem: 55 50<-149.796 0 50 470> 250 50<-149.796 0> 445 50<-149.796 0 50 470>
CounterMasks: 1 1c
LayerCount: 2
Back
SplineSet
80 -171 m 5
 80 25 l 1028
470 -171 m 4
 470 25 l 1028
275 -171 m 4
 275 25 l 1029
80 495 m 5
 80 25 l 5
 470 25 l 5
 470 495 l 5
 80 495 l 5
EndSplineSet
Fore
SplineSet
105 470 m 1
 105 50 l 1
 275 50 l 1
 445 50 l 1
 445 470 l 1
 105 470 l 1
55 495 m 2
 55 505.729904333 64.8674621445 520 80 520 c 2
 470 520 l 2
 480.729904333 520 495 510.132537856 495 495 c 2
 495 25 l 1
 495 -171 l 2
 495 -184.617128764 483.617128764 -196 470 -196 c 0
 456.382871236 -196 445 -184.617128764 445 -171 c 2
 445 2.44249065418e-15 l 1
 300 -2.77555756156e-16 l 1
 300 -171 l 2
 300 -184.617128764 288.617128764 -196 275 -196 c 0
 261.382871236 -196 250 -184.617128764 250 -171 c 2
 250 2.44249065418e-15 l 1
 105 -2.77555756156e-16 l 1
 105 -171 l 2
 105 -184.617128764 93.6171287645 -196 80 -196 c 0
 66.3828712355 -196 55 -184.617128764 55 -171 c 2
 55 25 l 1
 55 495 l 2
EndSplineSet
Ligature2: "Ligature Substitution lookup 71 subtable" l e n
Ligature2: "Ligature Substitution lookup 49 subtable" l e n tp_space
Ligature2: "tokiponaWords subtable" percent l e n space
LCarets2: 4 0 0 0 0
EndChar

StartChar: tp_lete
Encoding: 60966 60966 38
Width: 436
VWidth: 0
Flags: W
HStem: 212.299 95.4023<170.299 265.701> 235 50<43.2041 173.261 262.739 392.796>
DStem2: 159.291 403.103 116.709 376.897 0.524097 -0.851658<-24.7952 107.905 197.383 330.083> 116.709 143.103 159.291 116.897 0.524097 0.851658<-24.7959 107.904 197.382 330.082>
LayerCount: 2
Back
SplineSet
68 260 m 5
 368 260 l 1029
138 130 m 5
 298 390 l 1029
138 390 m 5
 298 130 l 1029
EndSplineSet
Fore
SplineSet
124.897460938 411.291015625 m 0x40
 136.495117188 418.427734375 152.154296875 414.69921875 159.291015625 403.102539062 c 2
 218 307.701171875 l 1x80
 276.708984375 403.102539062 l 2
 283.845703125 414.69921875 299.504882812 418.427734375 311.102539062 411.291015625 c 0
 322.69921875 404.154296875 326.427734375 388.495117188 319.291015625 376.897460938 c 2
 262.739257812 285 l 1
 368 285 l 2
 381.6171875 285 393 273.6171875 393 260 c 0
 393 246.3828125 381.6171875 235 368 235 c 2
 262.739257812 235 l 1x40
 319.291015625 143.102539062 l 2
 326.427734375 131.504882812 322.69921875 115.845703125 311.102539062 108.708984375 c 0
 299.504882812 101.572265625 283.845703125 105.30078125 276.708984375 116.897460938 c 2
 218 212.298828125 l 1x80
 159.291015625 116.897460938 l 2
 152.154296875 105.30078125 136.495117188 101.572265625 124.897460938 108.708984375 c 0
 113.30078125 115.845703125 109.572265625 131.504882812 116.708984375 143.102539062 c 2
 173.260742188 235 l 1
 68 235 l 2
 54.3828125 235 43 246.3828125 43 260 c 0
 43 273.6171875 54.3828125 285 68 285 c 2
 173.260742188 285 l 1
 116.708984375 376.897460938 l 2
 109.572265625 388.495117188 113.30078125 404.154296875 124.897460938 411.291015625 c 0x40
EndSplineSet
LCarets2: 5 0 0 0 0 0
Ligature2: "Ligature Substitution lookup 168 subtable" l e t e
Ligature2: "Ligature Substitution lookup 99 subtable" l e t e tp_space
Ligature2: "tokiponaWords subtable" percent l e t e space
EndChar

StartChar: tp_li
Encoding: 60967 60967 39
Width: 343
VWidth: 0
Flags: W
DStem2: 87.1609 523.058 48.8391 490.942 0.642318 -0.766438<-24.7959 301.319> 48.8391 29.058 87.1609 -3.05796 0.642318 0.766438<-24.7959 301.319>
LayerCount: 2
Back
SplineSet
68 507 m 1
 275 260 l 1
 68 13 l 1025
EndSplineSet
Fore
SplineSet
51.942039822 526.160947652 m 0
 62.3787234791 534.90748011 78.4144151945 533.494643835 87.160947652 523.057960178 c 2
 294.160947652 276.057960178 l 2
 302.206696117 266.45747771 301.085943909 252.205199607 294.160947652 243.942039822 c 2
 87.160947652 -3.05796017798 l 2
 78.4144151945 -13.494643835 62.3787234791 -14.9074801095 51.942039822 -6.16094765199 c 0
 41.505356165 2.58558480555 40.0925198905 18.6212765209 48.839052348 29.057960178 c 2
 242.381571551 260 l 1
 48.839052348 490.942039822 l 2
 40.0925198905 501.378723479 41.505356165 517.414415194 51.942039822 526.160947652 c 0
EndSplineSet
Ligature2: "Ligature Substitution lookup 29 subtable" l i
Ligature2: "Ligature Substitution lookup 16 subtable" l i tp_space
Ligature2: "tokiponaWords subtable" percent l i space
LCarets2: 3 0 0 0
EndChar

StartChar: tp_lili
Encoding: 60968 60968 40
Width: 550
VWidth: 0
Flags: MW
HStem: 0 50<68 482>
DStem2: 90.9717 516.865 45.0283 497.135 0.39461 -0.918849<-24.7964 466.357> 275 88.3535 312.944 50 0.39461 0.918849<0 491.153>
LayerCount: 2
Back
SplineSet
68 25 m 5
 482 25 l 1029
68 507 m 4
 275 25 l 5
 482 507 l 1029
EndSplineSet
Fore
SplineSet
58.134765625 529.971679688 m 0
 70.646484375 535.344726562 85.59765625 529.376953125 90.9716796875 516.865234375 c 2
 275 88.353515625 l 1
 459.028320312 516.865234375 l 2
 464.40234375 529.376953125 479.353515625 535.344726562 491.865234375 529.971679688 c 0
 504.376953125 524.59765625 510.344726562 509.646484375 504.971679688 497.134765625 c 2
 312.944335938 50 l 1
 482 50 l 2
 495.6171875 50 507 38.6171875 507 25 c 0
 507 11.3828125 495.6171875 0 482 0 c 2
 68 0 l 2
 54.3828125 0 43 11.3828125 43 25 c 0
 43 38.6171875 54.3828125 50 68 50 c 2
 237.055664062 50 l 1
 45.0283203125 497.134765625 l 2
 39.6552734375 509.646484375 45.623046875 524.59765625 58.134765625 529.971679688 c 0
EndSplineSet
Ligature2: "Ligature Substitution lookup 169 subtable" l i l i
Ligature2: "Ligature Substitution lookup 100 subtable" l i l i tp_space
Ligature2: "tokiponaWords subtable" percent l i l i space
LCarets2: 5 0 0 0 0 0
EndChar

StartChar: tp_linja
Encoding: 60969 60969 41
Width: 550
VWidth: 0
Flags: W
HStem: 160 50<334.762 421.19> 310 50<129.772 210.769>
VStem: 42.9878 49.9971<160.259 264.353> 457.01 50.0023<252.525 359.803>
LayerCount: 2
Back
SplineSet
68 185 m 29
 68 185 73 335 173 335 c 7
 223 335 268 260 268 260 c 5
 268 260 328 185 378 185 c 7
 478 185 482 335 482 335 c 1029
EndSplineSet
Fore
SplineSet
67.1309603188 160.015109165 m 0
 52.9490932684 160.508391497 43.3293948918 172.914683458 42.9877966734 185.083922672 c 1
 42.9877966734 185.083922672 43.2927238966 360 173 360 c 0
 239.093896077 360 283.247765303 282.718734854 288.393507422 274.55481707 c 0
 298.154555669 262.808779533 350.331345435 210 378 210 c 0
 447.076623556 210 456.708090105 325.98410905 457.009875473 335.702620893 c 0
 457.39258264 349.314370634 469.090871151 360.372831694 482.702620893 359.990124527 c 0
 495.734345004 359.623725327 506.510215038 349.533778146 507.01220753 335.082660592 c 1
 507.01220753 335.082660592 508.381929299 160 378 160 c 0
 309.296728605 160 248.509976172 244.343067674 248.509976172 244.343067674 c 2
 247.98343299 244.999830001 247.143744479 246.173165205 246.586752516 247.097564874 c 0
 244.087160513 251.21041396 201.600718753 310 173 310 c 0
 103.78622849 310 93.3323526334 193.717556929 92.9848908349 184.130960319 c 0
 92.5115378253 170.522061292 80.7398593454 159.541756155 67.1309603188 160.015109165 c 0
EndSplineSet
LCarets2: 6 0 0 0 0 0 0
Ligature2: "Ligature Substitution lookup 237 subtable" l i n j a
Ligature2: "Ligature Substitution lookup 224 subtable" l i n j a tp_space
Ligature2: "tokiponaWords subtable" percent l i n j a space
EndChar

StartChar: tp_lipu
Encoding: 60970 60970 42
Width: 550
VWidth: 0
Flags: W
HStem: 0 21G<74.6353 477.566> 470 50<105 445>
VStem: 55 50<50 470> 445 50<50 470>
AnchorPoint: "Small" 275 260 basechar 0
LayerCount: 2
Back
SplineSet
80 495 m 1
 80 25 l 1
 470 25 l 1
 470 495 l 1
 80 495 l 1
EndSplineSet
Fore
SplineSet
55 495 m 2
 55 505.729492188 64.8671875 520 80 520 c 2
 470 520 l 2
 480.729492188 520 495 510.1328125 495 495 c 2
 495 25 l 2
 495 14.2705078125 485.1328125 0 470 0 c 2
 80 0 l 2
 69.2705078125 0 55 9.8671875 55 25 c 2
 55 495 l 2
105 470 m 1
 105 50 l 1
 445 50 l 1
 445 470 l 1
 105 470 l 1
EndSplineSet
Ligature2: "Ligature Substitution lookup 170 subtable" l i p u
Ligature2: "Ligature Substitution lookup 101 subtable" l i p u tp_space
Ligature2: "tokiponaWords subtable" percent l i p u space
LCarets2: 5 0 0 0 0 0
EndChar

StartChar: tp_loje
Encoding: 60971 60971 43
Width: 550
VWidth: 0
Flags: W
HStem: -196 50<127.937 422.063> 196.618 88.382<230.809 319.191> 666 50<115 435>
VStem: 65 50<357.068 666> 435 50<359.64 666>
DStem2: 67.0269 -161.139 127.937 -146 0.394434 0.918924<37.9366 410.783> 311.853 237.525 275 196.618 0.394434 -0.918924<23.0547 395.901>
LayerCount: 2
Back
SplineSet
460 -171 m 5
 275 260 l 5
 90 -171 l 5
 460 -171 l 5
275 260 m 1053
90 691 m 5
 90 691 90 483 90 450 c 7
 90 344 151 260 275 260 c 4
 398 260 460 345 460 450 c 7
 460 480 460 691 460 691 c 5
 90 691 l 5
EndSplineSet
Fore
SplineSet
115 666 m 1
 115 450 l 2
 115 354.545378035 165.778902602 285 275 285 c 0
 383.138430747 285 435 355.648145094 435 450 c 2
 435 666 l 1
 115 666 l 1
65 691 m 2
 65 701.729904333 74.8674621445 716 90 716 c 2
 460 716 l 2
 470.729904333 716 485 706.132537856 485 691 c 2
 485 450 l 2
 485 345.137764316 425.690047894 253.673826606 311.852674407 237.525208772 c 1
 482.973108161 -161.139153109 l 2
 483.332702352 -161.976910385 484.718548385 -166.441498525 484.922937299 -169.038572864 c 0
 486.050397303 -183.364679847 474.370403869 -196 460 -196 c 2
 90 -196 l 2
 89.0883283301 -196 84.4390850584 -195.512502829 81.9719523592 -194.675946678 c 0
 68.3626357296 -190.061295202 61.3587177461 -174.344466806 67.0268918385 -161.139153109 c 2
 238.126795246 237.477378612 l 1
 123.62076309 253.421291016 65 344.26556277 65 450 c 2
 65 691 l 2
422.063419275 -146 m 1
 275 196.618020041 l 1
 127.936580725 -146 l 1
 422.063419275 -146 l 1
EndSplineSet
LCarets2: 5 0 0 0 0 0
Ligature2: "Ligature Substitution lookup 171 subtable" l o j e
Ligature2: "Ligature Substitution lookup 102 subtable" l o j e tp_space
Ligature2: "tokiponaWords subtable" percent l o j e space
EndChar

StartChar: tp_lon
Encoding: 60972 60972 44
Width: 436
VWidth: 0
Flags: HW
HStem: 150 50<43.2041 392.796> 304 82<182.953 255.047>
VStem: 178 82<308.953 381.047>
LayerCount: 2
Back
SplineSet
368 175 m 1
 68 175 l 1025
EndSplineSet
Refer: 153 -1 N 1 0 0 1 219 345 2
Fore
SplineSet
393 175 m 4
 393 161.382871236 381.617128764 150 368 150 c 6
 68 150 l 6
 54.3828712355 150 43 161.382871236 43 175 c 4
 43 188.617128764 54.3828712355 200 68 200 c 6
 368 200 l 6
 381.617128764 200 393 188.617128764 393 175 c 4
EndSplineSet
Refer: 153 -1 S 1 0 0 1 219 345 2
Ligature2: "Ligature Substitution lookup 72 subtable" l o n
Ligature2: "Ligature Substitution lookup 50 subtable" l o n tp_space
Ligature2: "tokiponaWords subtable" percent l o n space
LCarets2: 4 0 0 0 0
EndChar

StartChar: tp_luka
Encoding: 60973 60973 45
Width: 550
VWidth: 0
Flags: W
HStem: -12 21G<463.191 476.809> 482 50<218.131 372.356>
VStem: 98 50<76.6783 396.131> 445 50<-11.7959 395.135>
LayerCount: 2
Back
SplineSet
30 113 m 5
 139 13 l 5
 139 13 123 176.999023438 123 260 c 7
 123 406.030818665 171 507 295 507 c 7
 419 507 470 406 470 260 c 4
 470 13 l 1028
EndSplineSet
Fore
SplineSet
11.578163497 129.900767434 m 0
 20.7837605517 139.934868224 36.8666666444 140.627433558 46.900767434 131.421836503 c 2
 108.365227587 75.0324235188 l 1
 103.693848066 131.156318076 98 208.729972163 98 260 c 0
 98 409.100294191 150.348906484 532 295 532 c 0
 439.309772187 532 495 409.647133096 495 260 c 2
 495 13 l 2
 495 -0.617128764476 483.617128764 -12 470 -12 c 0
 456.382871236 -12 445 -0.617128764476 445 13 c 2
 445 260 l 2
 445 402.352866904 398.690227813 482 295 482 c 0
 191.651093516 482 148 402.961343139 148 260 c 0
 148 179.164179839 163.882105408 15.4250423613 163.882105408 15.4250423613 c 2
 164.473680924 9.35519195921 162.644776968 2.65096061799 158.691035998 -2.40334708165 c 0
 149.836943258 -13.7220726775 132.688401788 -15.136670652 122.099232566 -5.42183650301 c 2
 13.099232566 94.578163497 l 2
 3.06513177647 103.783760552 2.37256644233 119.866666644 11.578163497 129.900767434 c 0
EndSplineSet
Ligature2: "Ligature Substitution lookup 172 subtable" l u k a
Ligature2: "Ligature Substitution lookup 103 subtable" l u k a tp_space
Ligature2: "tokiponaWords subtable" percent l u k a space
LCarets2: 5 0 0 0 0 0
EndChar

StartChar: tp_lukin
Encoding: 60974 60974 46
Width: 560
VWidth: 0
Flags: HW
HStem: -12 21G<199.613 340.388> 221 78<235.281 304.719> 482 50<184.678 355.322>
VStem: 38 50<146.908 373.092> 231 78<225.281 294.719> 452 50<146.908 373.092>
CounterMasks: 1 1c
LayerCount: 2
Back
Refer: 153 -1 S 1 0 0 1 270 260 2
Refer: 12 60940 S 1 0 0 1 0 0 2
Fore
SplineSet
88 260 m 0
 88 123.278320312 162.774414062 38 270 38 c 0
 377.224609375 38 452 123.278320312 452 260 c 0
 452 396.721679688 377.225585938 482 270 482 c 0
 162.775390625 482 88 396.721679688 88 260 c 0
38 260 m 0
 38 415.278320312 129.224609375 532 270 532 c 0
 410.774414062 532 502 415.278320312 502 260 c 0
 502 104.721679688 410.775390625 -12 270 -12 c 0
 129.225585938 -12 38 104.721679688 38 260 c 0
231 260 m 0
 231 281.462890625 248.537109375 299 270 299 c 0
 291.462890625 299 309 281.462890625 309 260 c 0
 309 238.537109375 291.462890625 221 270 221 c 0
 248.537109375 221 231 238.537109375 231 260 c 0
EndSplineSet
Ligature2: "Ligature Substitution lookup 238 subtable" l u k i n
Ligature2: "Ligature Substitution lookup 225 subtable" l u k i n tp_space
Ligature2: "tokiponaWords subtable" percent l u k i n space
LCarets2: 6 0 0 0 0 0 0
EndChar

StartChar: tp_lupa
Encoding: 60975 60975 47
Width: 550
VWidth: 0
Flags: W
HStem: -208 50<180.359 370.136> 470 50<45.2041 175.888 374.112 506.796>
VStem: 43 50<-65.0765 162.742> 457 50<-65.0779 162.899>
LayerCount: 2
Back
Refer: 64 60992 S 1 0 0 -1 0 520 2
Fore
SplineSet
45 495 m 0
 45 508.6171875 56.3828125 520 70 520 c 2
 215 520 l 2
 229.370117188 520 241.05078125 507.364257812 239.922851562 493.038085938 c 0
 239.688476562 490.056640625 238.166992188 485.4921875 237.537109375 484.178710938 c 2
 237.537109375 484.178710938 93 178.112304688 93 43 c 0
 93 -91.5654296875 164.65625 -158 275 -158 c 0
 386.462890625 -158 457 -91.685546875 457 43 c 0
 457 178.11328125 312.462890625 484.178710938 312.462890625 484.178710938 c 2
 306.243164062 497.133789062 312.578125 513.131835938 325.98046875 518.31640625 c 0
 328.76953125 519.395507812 333.54296875 520 335 520 c 2
 482 520 l 2
 495.6171875 520 507 508.6171875 507 495 c 0
 507 481.3828125 495.6171875 470 482 470 c 2
 374.112304688 470 l 1
 412.189453125 385.775390625 507 168.723632812 507 43 c 0
 507 -114.314453125 413.82421875 -208 275 -208 c 0
 137.34375 -208 43 -114.434570312 43 43 c 0
 43 168.75390625 136.948242188 383.868164062 175.887695312 470 c 1
 70 470 l 2
 56.3828125 470 45 481.3828125 45 495 c 0
EndSplineSet
LCarets2: 5 0 0 0 0 0
Ligature2: "Ligature Substitution lookup 173 subtable" l u p a
Ligature2: "Ligature Substitution lookup 104 subtable" l u p a tp_space
Ligature2: "tokiponaWords subtable" percent l u p a space
EndChar

StartChar: tp_ma
Encoding: 60976 60976 48
Width: 550
VWidth: 0
Flags: W
HStem: -12 21G<204.613 345.388> 235 50<93.8642 250 300 456.136> 480.392 51.6083<190.166 250 300 359.834>
VStem: 43 50.8642<146.53 235 285 373.47> 250 50<39.6083 235 285 480.392> 456.136 50.8642<146.53 235 285 373.47>
LayerCount: 2
Back
SplineSet
80 260 m 5
 470 260 l 1029
275 495 m 5
 275 25 l 1053
EndSplineSet
Refer: 12 60940 S 1 0 0 1 0 0 2
Fore
SplineSet
43 260 m 0
 43 415.278320312 134.224609375 532 275 532 c 0
 415.774414062 532 507 415.278320312 507 260 c 0
 507 104.721679688 415.775390625 -12 275 -12 c 0
 134.225585938 -12 43 104.721679688 43 260 c 0
300 235 m 1
 300 39.6082708691 l 1
 387.314786173 51.0861294358 448.266973432 123.336785004 456.135765835 235 c 1
 300 235 l 1
250 235 m 1
 93.8642234564 235 l 1
 101.732926984 123.336700695 162.684521475 51.0860203337 250 39.608244871 c 1
 250 235 l 1
300 285 m 1
 456.135776544 285 l 1
 448.267073016 396.663299305 387.315478525 468.913979666 300 480.391755129 c 1
 300 285 l 1
250 285 m 1
 250 480.391729131 l 1
 162.685213827 468.913870564 101.733026568 396.663214996 93.8642341646 285 c 1
 250 285 l 1
EndSplineSet
Ligature2: "Ligature Substitution lookup 30 subtable" m a
Ligature2: "Ligature Substitution lookup 17 subtable" m a tp_space
Ligature2: "tokiponaWords subtable" percent m a space
LCarets2: 3 0 0 0
EndChar

StartChar: tp_mama
Encoding: 60977 60977 49
Width: 540
VWidth: 0
Flags: HW
HStem: -213 50<217.125 322.875> 482 50<184.678 355.322>
VStem: 38 50<146.534 373.092> 144 50<-139.913 -35.37> 346 50<-139.913 -35.3701> 452 50<146.534 373.092>
LayerCount: 2
Back
SplineSet
169 -88 m 4
 169 -32 214 13 270 13 c 4
 326 13 371 -32 371 -88 c 4
 371 -144 326 -188 270 -188 c 4
 214 -188 169 -144 169 -88 c 4
EndSplineSet
Refer: 12 60940 S 1 0 0 1 0 0 2
Fore
SplineSet
194 -88 m 0
 194 -129.998785937 227.429498588 -163 270 -163 c 0
 312.570489906 -163 346 -129.998806552 346 -88 c 0
 346 -45.7649129117 312.235100043 -12 270 -12 c 0
 227.764912912 -12 194 -45.7648999571 194 -88 c 0
38 260 m 0
 38 415.278320312 129.224609375 532 270 532 c 0
 410.774414062 532 502 415.278320312 502 260 c 0
 502 139.139629791 446.733978231 41.6377826235 355.852845448 4.3524644913 c 1
 380.572059797 -18.6287140161 396 -51.4584223373 396 -88 c 0
 396 -158.001193448 339.429510094 -213 270 -213 c 0
 200.570501412 -213 144 -158.001214063 144 -88 c 0
 144 -51.4583673052 159.427988848 -18.6286094024 184.147274928 4.35257650685 c 1
 93.266502703 41.6379779051 38 139.139750823 38 260 c 0
270 38 m 0
 377.224609375 38 452 123.278320312 452 260 c 0
 452 396.721679688 377.225585938 482 270 482 c 0
 162.775390625 482 88 396.721679688 88 260 c 0
 88 123.278320312 162.774414062 38 270 38 c 0
EndSplineSet
Ligature2: "Ligature Substitution lookup 174 subtable" m a m a
Ligature2: "Ligature Substitution lookup 105 subtable" m a m a tp_space
Ligature2: "tokiponaWords subtable" percent m a m a space
LCarets2: 5 0 0 0 0 0
EndChar

StartChar: tp_mani
Encoding: 60978 60978 50
Width: 550
VWidth: 0
Flags: W
HStem: -12 21G<204.613 345.388> 482 50<190.268 359.743>
VStem: 43 50<146.908 373.371> 62.1057 49.8402<517.958 610.428> 436.014 49.9982<605.947 630.736> 457 50<146.908 373.296>
LayerCount: 2
Back
SplineSet
461 606 m 5
 461 606 457 481.579101562 399 477 c 1028
87 608 m 5
 87 608 79 489.706054688 151 477 c 1028
EndSplineSet
Refer: 12 60940 S 1 0 0 1 0 0 2
Fore
SplineSet
88.6436558517 632.945909393 m 0xd0
 102.231322266 632.050634458 112.841184328 619.944010562 111.945909393 606.356344148 c 0
 111.322678199 596.897509508 112.822725772 509.123556791 155.344690496 501.619578885 c 0
 156.739231573 501.373480063 158.088584278 501.010352455 159.384404327 500.542116527 c 0
 192.306425828 520.732590813 231.261588112 532.000000002 275 532 c 0
 318.744883773 532 357.705224518 520.729099758 390.630462208 500.532732998 c 0
 392.655243476 501.268538273 394.801638579 501.746332053 397.032372018 501.922448518 c 0
 422.734617922 503.951641524 435.671301559 596.616699287 436.014043638 606.837845252 c 0
 436.470405505 620.447324656 448.228365849 631.44231823 461.837845252 630.985956362 c 0
 476.020317679 630.510380522 485.655496551 618.116134278 486.012289522 605.947274155 c 1xd8
 486.012289522 605.947274155 489.953232172 499.828253618 435.471114672 463.691711648 c 1
 481.049274449 414.668840547 507 342.81847822 507 260 c 0
 507 104.721679688 415.775390625 -12 275 -12 c 0
 134.225585938 -12 43 104.721679688 43 260 c 0xe4
 43 342.938031694 69.0254239044 414.876258363 114.726003105 463.903871327 c 1
 49.643566893 502.341245369 62.1057313357 610.427510291 62.1057313357 610.427510291 c 1
 63.667317675 622.501044533 74.4839146649 633.878877644 88.6436558517 632.945909393 c 0xd0
93 260 m 0xe4
 93 123.278320312 167.774414062 38 275 38 c 0
 382.224609375 38 457 123.278320312 457 260 c 0
 457 396.721679688 382.225585938 482 275 482 c 0
 167.775390625 482 93 396.721679688 93 260 c 0xe4
EndSplineSet
Ligature2: "Ligature Substitution lookup 175 subtable" m a n i
Ligature2: "Ligature Substitution lookup 106 subtable" m a n i tp_space
Ligature2: "tokiponaWords subtable" percent m a n i space
LCarets2: 5 0 0 0 0 0
EndChar

StartChar: tp_meli
Encoding: 60979 60979 51
Width: 550
VWidth: 0
Flags: W
HStem: -12 21G<73.1914 86.8086 463.191 476.809> 139 50<225.008 324.992> 331 50<225.008 324.992> 470 50<187.217 362.79>
VStem: 55 50<-11.7959 377.476> 154 50<210.008 309.992> 346 50<210.008 309.992> 445 50<-11.7959 377.469>
LayerCount: 2
Back
SplineSet
179 260 m 4
 179 313 222 356 275 356 c 4
 328 356 371 313 371 260 c 4
 371 207 328 164 275 164 c 4
 222 164 179 207 179 260 c 4
80 13 m 5
 80 13 80 124 80 260 c 7
 80 406.013697988 151 495 275 495 c 7
 399.016127983 495 470 406 470 260 c 7
 470 118 470 13 470 13 c 1053
EndSplineSet
Fore
SplineSet
204 260 m 0
 204 220.807142702 235.807092901 189 275 189 c 0
 314.192857298 189 346 220.807092901 346 260 c 0
 346 299.192857298 314.192907099 331 275 331 c 0
 235.807142702 331 204 299.192907099 204 260 c 0
154 260 m 0
 154 326.807092901 208.192857298 381 275 381 c 0
 341.807092901 381 396 326.807142702 396 260 c 0
 396 193.192907099 341.807142702 139 275 139 c 0
 208.192907099 139 154 193.192857298 154 260 c 0
80 -12 m 0
 66.3828712355 -12 55 -0.617128764476 55 13 c 2
 55 260 l 2
 55 414.503858476 134.627941356 520 275 520 c 0
 415.389507521 520 495 414.48798083 495 260 c 2
 495 13 l 2
 495 -0.617128764476 483.617128764 -12 470 -12 c 0
 456.382871236 -12 445 -0.617128764476 445 13 c 2
 445 260 l 2
 445 397.51201917 382.642748446 470 275 470 c 0
 167.372058644 470 105 397.523537499 105 260 c 2
 105 13 l 2
 105 -0.617128764476 93.6171287645 -12 80 -12 c 0
EndSplineSet
Ligature2: "Ligature Substitution lookup 176 subtable" m e l i
Ligature2: "Ligature Substitution lookup 107 subtable" m e l i tp_space
Ligature2: "tokiponaWords subtable" percent m e l i space
LCarets2: 5 0 0 0 0 0
EndChar

StartChar: tp_mi
Encoding: 60980 60980 52
Width: 550
VWidth: 0
Flags: HW
HStem: -12 21G<243.505 351.711> 482 50<199.216 365.305>
VStem: 55 50<-207.796 82.3566 147.764 372.23> 457 50<144.55 375.45>
LayerCount: 2
Back
SplineSet
80 260 m 7
 80 140.53515625 80 -61.2724609375 80 -183 c 1029
80 260 m 7
 80 406 163 507 281 507 c 7
 405 507 482 406 482 260 c 7
 482 114 405 13 281 13 c 7
 163 13 80 113.987304688 80 260 c 7
EndSplineSet
Fore
SplineSet
55 260 m 2
 55 414.922810065 145.664758978 532 281 532 c 0
 422.421312821 532 507 414.295322918 507 260 c 0
 507 105.704615187 422.421792867 -12 281 -12 c 0
 206.009871406 -12 144.73460369 23.9433051571 105 82.3565863769 c 1
 105 -183 l 2
 105 -196.617128764 93.6171287645 -208 80 -208 c 0
 66.3828712355 -208 55 -196.617128764 55 -183 c 2
 55 259.999996388 l 1
 55 260 l 2
105 260 m 0
 105 122.910459577 180.334041364 38 281 38 c 0
 387.578207133 38 457 122.295384813 457 260 c 0
 457 397.704677082 387.578687179 482 281 482 c 0
 180.335241022 482 105 397.077189935 105 260 c 0
EndSplineSet
Ligature2: "Ligature Substitution lookup 31 subtable" m i
Ligature2: "Ligature Substitution lookup 18 subtable" m i tp_space
Ligature2: "tokiponaWords subtable" percent m i space
LCarets2: 3 0 0 0
EndChar

StartChar: tp_mije
Encoding: 60981 60981 53
Width: 550
VWidth: 0
Flags: W
HStem: -12 21G<73.1914 86.8086 463.191 476.809> 139 50<224.427 325.573> 235 50<105 162.596 387.404 445> 331 50<224.803 325.197>
VStem: 55 50<-11.7959 235> 445 50<-11.7959 235>
LayerCount: 2
Back
SplineSet
470 13 m 29
 470 260 l 5
 371 260 l 1029
80 13 m 29
 80 260 l 5
 179 260 l 1029
179 260 m 4
 179 313 222 356 275 356 c 4
 328 356 371 313 371 260 c 4
 371 207 328 164 275 164 c 4
 222 164 179 207 179 260 c 4
EndSplineSet
Fore
SplineSet
80 -12 m 0
 66.3828712355 -12 55 -0.617128764476 55 13 c 2
 55 260 l 2
 55 275.132537856 69.2700956673 285 80 285 c 2
 156.587679646 285 l 1
 168.11156733 339.819268494 216.763039299 381 275 381 c 0
 333.236922446 381 381.888430149 339.819299043 393.412321272 285 c 1
 470 285 l 2
 480.729904333 285 495 275.132537856 495 260 c 2
 495 13 l 2
 495 -0.617128764476 483.617128764 -12 470 -12 c 0
 456.382871236 -12 445 -0.617128764476 445 13 c 2
 445 235 l 1
 393.412320354 235 l 1
 381.88843267 180.180731506 333.236960701 139 275 139 c 0
 216.763077554 139 168.111569851 180.180700957 156.587678728 235 c 1
 105 235 l 1
 105 13 l 2
 105 -0.617128764476 93.6171287645 -12 80 -12 c 0
204 260 m 0
 204 220.807142702 235.807092901 189 275 189 c 0
 314.192857298 189 346 220.807092901 346 260 c 0
 346 299.192857298 314.192907099 331 275 331 c 0
 235.807142702 331 204 299.192907099 204 260 c 0
EndSplineSet
Ligature2: "Ligature Substitution lookup 177 subtable" m i j e
Ligature2: "Ligature Substitution lookup 108 subtable" m i j e tp_space
Ligature2: "tokiponaWords subtable" percent m i j e space
LCarets2: 5 0 0 0 0 0
EndChar

StartChar: tp_moku
Encoding: 60982 60982 54
Width: 550
VWidth: 0
Flags: W
HStem: -196 21G<463.191 476.809> 150 48.8386<190.576 250.14 300.14 359.621> 321.112 48.8877<187.33 250.859 300.86 364.002> 666 50<105 445>
VStem: 55 50<-119.217 54.1424 448.447 666> 250.14 50.0007<196.559 323.188> 445 50<-195.796 54.0507 448.773 666>
LayerCount: 2
Back
SplineSet
275 175 m 25
 276 345 l 1053
-17 -92 m 1
 -17 -92 80 -173 80 -171 c 0
 80 -65 l 3
 80 85.0302734375 151 175 275 175 c 3
 399 175 470 85 470 -65 c 2
 470 -171 l 1025
80 691 m 5
 80 691 80 568 80 535 c 7
 80 429 152 345 276 345 c 4
 399 345 470 430 470 535 c 7
 470 565 470 691 470 691 c 5
 80 691 l 5
EndSplineSet
Fore
SplineSet
105 666 m 1
 105 535 l 2
 105 441.632844645 165.42214848 370 276 370 c 0
 385.25655049 370 445 442.367370823 445 535 c 2
 445 666 l 1
 105 666 l 1
55 691 m 2
 55 701.729904333 64.8674621445 716 80 716 c 2
 470 716 l 2
 480.729904333 716 495 706.132537856 495 691 c 2
 495 535 l 2
 495 424.927661126 422.651067012 332.213058412 300.859919877 321.112850243 c 1
 300.140499195 198.811334432 l 1
 425.108476952 186.72188341 495 83.4191092962 495 -65 c 2
 495 -171 l 2
 495 -184.617128764 483.617128764 -196 470 -196 c 0
 456.382871236 -196 445 -184.617128764 445 -171 c 2
 445 -65 l 2
 445 76.9045369508 382.301915299 150 275 150 c 0
 167.694584894 150 105 76.933895679 105 -65 c 2
 105 -171 l 2
 105 -194.890701715 76.9525596777 -195.935278876 74.9991018112 -195.542573428 c 0
 50.0745629667 -190.531970258 -31.3103617519 -112.620190883 -33.0231202526 -111.190091646 c 0
 -43.4756782103 -102.462535978 -44.9176473132 -86.4294377051 -36.1900916457 -75.9768797474 c 0
 -27.4625359782 -65.5243217897 -11.4294377051 -64.0823526868 -0.97687974742 -72.8099083543 c 2
 -0.97687974742 -72.8099083543 30.082466782 -98.7260651669 55 -119.216974755 c 1
 55 -65 l 2
 55 83.5591161965 124.998915206 186.879511136 250.139794281 198.838556539 c 1
 250.859051836 321.112340978 l 1
 128.452078567 332.139129982 55 423.785506599 55 535 c 2
 55 691 l 2
EndSplineSet
Ligature2: "Ligature Substitution lookup 178 subtable" m o k u
Ligature2: "Ligature Substitution lookup 109 subtable" m o k u tp_space
Ligature2: "tokiponaWords subtable" percent m o k u space
LCarets2: 5 0 0 0 0 0
EndChar

StartChar: tp_moli
Encoding: 60983 60983 55
Width: 416
VWidth: 0
Flags: W
HStem: 135 50<169.931 246.069> 335 50<163.144 252.856>
VStem: 83 50<207.92 312.08> 283 50<207.92 312.08>
DStem2: 46.2507 25.3275 89.7493 0.672464 0.493101 0.869972<-24.7959 167.539 400.296 592.63> 89.7493 519.328 46.2507 494.672 0.493101 -0.869972<-24.7959 167.539 400.296 592.63>
LayerCount: 2
Back
SplineSet
108 260 m 4
 108 315 153 360 208 360 c 4
 263 360 308 315 308 260 c 4
 308 205 263 160 208 160 c 4
 153 160 108 205 108 260 c 4
68 507 m 5
 151 360.564285714 l 1029
265 159.435714286 m 5
 348 13 l 1029
68 13 m 5
 151 159.435714286 l 1029
265 360.564285714 m 5
 348 507 l 1029
EndSplineSet
Fore
SplineSet
55.6724640534 -8.74929556296 m 0
 43.8259457247 -2.03466978961 39.5360786637 13.4810176179 46.250704437 25.3275359466 c 2
 125.907681765 165.86520309 l 1
 99.6395980008 188.809601729 83 222.524839309 83 260 c 0
 83 297.475016847 99.6395462001 331.190335656 125.907679496 354.134800913 c 1
 46.250704437 494.672464053 l 2
 39.5360786637 506.518982382 43.8259457247 522.03466979 55.6724640534 528.749295563 c 0
 67.5189823821 535.463921336 83.0346697896 531.174054275 89.749295563 519.327535947 c 2
 169.359724525 378.871993422 l 1
 181.536418048 382.848686861 194.525151109 385 208 385 c 0
 221.47482405 385 234.46355943 382.848684975 246.640269339 378.871982595 c 1
 326.250704437 519.327535947 l 2
 332.96533021 531.174054275 348.481017618 535.463921336 360.327535947 528.749295563 c 0
 372.174054275 522.03466979 376.463921336 506.518982382 369.749295563 494.672464053 c 2
 290.092318235 354.13479691 l 1
 316.360401999 331.190398271 333 297.475160691 333 260 c 0
 333 222.524983153 316.3604538 188.809664344 290.092320504 165.865199087 c 1
 369.749295563 25.3275359466 l 2
 376.463921336 13.4810176179 372.174054275 -2.03466978961 360.327535947 -8.74929556296 c 0
 348.481017618 -15.4639213363 332.96533021 -11.1740542753 326.250704437 0.672464053384 c 2
 246.640275475 141.128006578 l 1
 234.463581952 137.151313139 221.474848891 135 208 135 c 0
 194.52517595 135 181.53644057 137.151315025 169.359730661 141.128017405 c 1
 89.749295563 0.672464053384 l 2
 83.0346697896 -11.1740542753 67.5189823821 -15.4639213363 55.6724640534 -8.74929556296 c 0
133 260 m 0
 133 218.84455479 166.844148893 185 208 185 c 0
 249.15544521 185 283 218.844148893 283 260 c 0
 283 301.15544521 249.155851107 335 208 335 c 0
 166.84455479 335 133 301.155851107 133 260 c 0
EndSplineSet
Ligature2: "Ligature Substitution lookup 179 subtable" m o l i
Ligature2: "Ligature Substitution lookup 110 subtable" m o l i tp_space
Ligature2: "tokiponaWords subtable" percent m o l i space
LCarets2: 5 0 0 0 0 0
EndChar

StartChar: tp_monsi
Encoding: 60984 60984 56
Width: 468
VWidth: 0
Flags: W
HStem: 0.000491333 49.8433<105 423.385> 235 50<105 299.796> 470 50<105 423.796>
VStem: 55 50<49.8438 235 285 470>
LayerCount: 2
Back
SplineSet
275 260 m 5
 80 260 l 1028
399 495 m 5
 80 495 l 5
 80 25 l 5
 399 23 l 1029
EndSplineSet
Fore
SplineSet
424 495 m 0
 424 481.382871236 412.617128764 470 399 470 c 2
 105 470 l 1
 105 285 l 1
 275 285 l 2
 288.617128764 285 300 273.617128764 300 260 c 0
 300 246.382871236 288.617128764 235 275 235 c 2
 105 235 l 1
 105 49.8437515306 l 1
 399.156736731 47.9995086671 l 2
 412.773597874 47.9141364969 424.084880837 36.4601244113 423.999508667 22.8432632685 c 0
 423.914136497 9.2264021258 412.460124411 -2.08488083729 398.843263269 -1.99950866711 c 2
 79.8432632685 0.000491332887906 l 2
 67.6066844233 0.0772096955537 55 10.7409567015 55 25 c 2
 55 259.999999782 l 1
 55 260 l 1
 55 495 l 2
 55 505.729904333 64.8674621445 520 80 520 c 2
 399 520 l 2
 412.617128764 520 424 508.617128764 424 495 c 0
EndSplineSet
LCarets2: 6 0 0 0 0 0 0
Ligature2: "Ligature Substitution lookup 239 subtable" m o n s i
Ligature2: "Ligature Substitution lookup 226 subtable" m o n s i tp_space
Ligature2: "tokiponaWords subtable" percent m o n s i space
EndChar

StartChar: tp_mu
Encoding: 60985 60985 57
Width: 550
VWidth: 0
Flags: W
HStem: -12 21G<204.612 345.387> 221 78<240.281 309.719> 406 50<126.201 185.587 364.413 423.799> 558 50<102.413 185.587 364.413 447.587>
VStem: 43 50<146.908 372.211 465.476 548.587> 195 50<465.413 548.587> 236 78<225.281 294.719> 305 50<465.413 548.587> 457 50<146.908 372.211 465.476 548.587>
LayerCount: 2
Back
Refer: 153 -1 S 1 0 0 1 275 260 2
Refer: 59 60987 S 1 0 0 1 0 0 2
Fore
SplineSet
43 507 m 0xfd80
 43 562.796875 88.2021484375 608 144 608 c 0
 199.796875 608 245 562.797851562 245 507 c 0
 245 451.203125 199.797851562 406 144 406 c 0
 140.12890625 406 136.30859375 406.217773438 132.55078125 406.641601562 c 0
 107.764648438 369.578125 93 319.532226562 93 260 c 0
 93 123.278320312 167.775390625 38 275 38 c 0
 382.225585938 38 457 123.278320312 457 260 c 0
 457 319.534179688 442.235351562 369.57421875 417.448242188 406.641601562 c 0
 413.69140625 406.217773438 409.87109375 406 406 406 c 0
 350.203125 406 305 451.202148438 305 507 c 0
 305 562.796875 350.202148438 608 406 608 c 0
 461.796875 608 507 562.797851562 507 507 c 0
 507 473.235351562 490.448242188 443.350585938 465.01171875 425.013671875 c 1
 492.40625 379.759765625 507 323.186523438 507 260 c 0
 507 104.721679688 415.774414062 -12 275 -12 c 0
 134.224609375 -12 43 104.721679688 43 260 c 0
 43 323.188476562 57.5927734375 379.756835938 84.98828125 425.013671875 c 1
 59.552734375 443.349609375 43 473.235351562 43 507 c 0xfd80
93 507 m 0
 93 478.797851562 115.796875 456 144 456 c 0
 172.202148438 456 195 478.796875 195 507 c 0
 195 535.202148438 172.203125 558 144 558 c 0
 115.797851562 558 93 535.203125 93 507 c 0
355 507 m 0
 355 478.797851562 377.796875 456 406 456 c 0
 434.202148438 456 457 478.796875 457 507 c 0
 457 535.202148438 434.203125 558 406 558 c 0
 377.797851562 558 355 535.203125 355 507 c 0
236 260 m 0xfa80
 236 281.462890625 253.537109375 299 275 299 c 0
 296.462890625 299 314 281.462890625 314 260 c 0
 314 238.537109375 296.462890625 221 275 221 c 0
 253.537109375 221 236 238.537109375 236 260 c 0xfa80
EndSplineSet
Ligature2: "Ligature Substitution lookup 32 subtable" m u
Ligature2: "Ligature Substitution lookup 19 subtable" m u tp_space
Ligature2: "tokiponaWords subtable" percent m u space
LCarets2: 3 0 0 0
EndChar

StartChar: tp_mun
Encoding: 60986 60986 58
Width: 484
VWidth: 0
Flags: W
HStem: -12 21G<178.293 279.638> 482 50<125.846 294.572>
VStem: 184.25 50<178.57 341.753> 391.25 50<146.908 373.092>
LayerCount: 2
Back
SplineSet
68 448.25 m 5
 104.25 484.5 154.25 507 209.25 507 c 4
 333.25 507 416.25 406 416.25 260 c 4
 416.25 114 333.25 13 209.25 13 c 4
 154.25 13 104.25 35.5 68 71.75 c 5
 68 71.75 209.25 113.99609375 209.25 260 c 7
 209.25 406.00390625 68 448.25 68 448.25 c 5
EndSplineSet
Fore
SplineSet
115.402068293 454.49731269 m 1
 160.6923903 429.437684513 234.25 371.093731367 234.25 260 c 0
 234.25 149.497090936 162.175260447 91.382803681 115.402068293 65.5026873104 c 1
 142.552383889 48.2615695993 174.63304622 38 209.25 38 c 0
 316.47454825 38 391.25 123.278585301 391.25 260 c 0
 391.25 396.721488786 316.475993246 482 209.25 482 c 0
 174.69192087 482 143.706585499 472.471376791 115.402068293 454.49731269 c 1
50.3223304703 465.92766953 m 0
 91.017346397 506.622685456 147.33669976 532 209.25 532 c 0
 350.024006754 532 441.25 415.278511214 441.25 260 c 0
 441.25 104.721414699 350.02545175 -12 209.25 -12 c 0
 147.336789919 -12 91.0173013141 13.3773596265 50.3223304703 54.0723304703 c 0
 40.160920446 64.2337404946 40.8364384473 81.4272636181 51.7637604578 90.7601163996 c 0
 54.2389597945 92.8741449779 60.1950157381 95.500562271 60.3760414556 95.5593815918 c 0
 66.1653574039 97.3573836629 184.25 136.111614275 184.25 260 c 0
 184.25 384.413047019 65.7482590853 422.772155586 59.7422273456 424.637463613 c 0
 45.5842688855 430.1432048 39.7644446833 444.619653507 44.6997926797 457.310923729 c 0
 45.9471008789 460.518382538 49.5462892587 465.151628318 50.3223304703 465.92766953 c 0
EndSplineSet
LCarets2: 4 0 0 0 0
Ligature2: "Ligature Substitution lookup 73 subtable" m u n
Ligature2: "Ligature Substitution lookup 51 subtable" m u n tp_space
Ligature2: "tokiponaWords subtable" percent m u n space
EndChar

StartChar: tp_musi
Encoding: 60987 60987 59
Width: 550
VWidth: 0
Flags: W
HStem: -12 21G<204.612 345.387> 406 50<126.201 185.587 364.413 423.799> 558 50<102.413 185.587 364.413 447.587>
VStem: 43 50<147.927 372.056 465.554 548.572> 195 50<465.413 548.587> 305 50<465.413 548.587> 457 50<146.908 372.211 465.477 548.587>
LayerCount: 2
Back
SplineSet
116.042427422 426.692704002 m 5
 85.3524366863 384.105201502 68 326.756574552 68 260 c 4
 68 114 151 13 275 13 c 4
 399 13 482 114 482 260 c 4
 482 327.626552506 464.192339082 385.598349093 432.750921363 428.350184273 c 1029
116.042427422 426.692704002 m 1029
330 507 m 4
 330 549 364 583 406 583 c 4
 448 583 482 549 482 507 c 4
 482 465 448 431 406 431 c 4
 364 431 330 465 330 507 c 4
68 507 m 4
 68 549 102 583 144 583 c 4
 186 583 220 549 220 507 c 4
 220 465 186 431 144 431 c 4
 102 431 68 465 68 507 c 4
EndSplineSet
Fore
SplineSet
43 507 m 0
 43 562.797343156 88.2023552744 608 144 608 c 0
 199.797343156 608 245 562.797644726 245 507 c 0
 245 451.202656844 199.797644726 406 144 406 c 0
 140.128847676 406 136.308691995 406.217577782 132.551090255 406.641176349 c 0
 107.76503202 369.578210465 93 319.53185739 93 260 c 0
 93 123.278585301 167.77545175 38 275 38 c 0
 382.225993246 38 457 123.278511214 457 260 c 0
 457 319.534039537 442.235495259 369.574214583 417.448544993 406.641133155 c 0
 413.691062887 406.217563055 409.87102932 406 406 406 c 0
 350.202656844 406 305 451.202355274 305 507 c 0
 305 562.797343156 350.202355274 608 406 608 c 0
 461.797343156 608 507 562.797644726 507 507 c 0
 507 473.235454723 490.447795829 443.35047302 465.01182591 425.013693783 c 1
 492.406660365 379.759490079 507 323.186274258 507 260 c 0
 507 104.721488786 415.774006754 -12 275 -12 c 0
 134.22454825 -12 43 104.721414699 43 260 c 0
 43 323.188525452 57.5929785384 379.756623676 84.988615548 425.01338448 c 1
 59.552449365 443.350085585 43 473.235134783 43 507 c 0
93 507 m 0
 93 478.797644726 115.797343156 456 144 456 c 0
 172.202355274 456 195 478.797343156 195 507 c 0
 195 535.202355274 172.202656844 558 144 558 c 0
 115.797644726 558 93 535.202656844 93 507 c 0
355 507 m 0
 355 478.797644726 377.797343156 456 406 456 c 0
 434.202355274 456 457 478.797343156 457 507 c 0
 457 535.202355274 434.202656844 558 406 558 c 0
 377.797644726 558 355 535.202656844 355 507 c 0
EndSplineSet
LCarets2: 5 0 0 0 0 0
Ligature2: "Ligature Substitution lookup 180 subtable" m u s i
Ligature2: "Ligature Substitution lookup 111 subtable" m u s i tp_space
Ligature2: "tokiponaWords subtable" percent m u s i space
EndChar

StartChar: tp_mute
Encoding: 60988 60988 60
Width: 480
VWidth: 0
Flags: W
HStem: -12 21G<73.1914 86.8086 233.191 246.809 393.191 406.809> 512 20G<73.1914 86.8086 233.191 246.809 393.191 406.809>
VStem: 55 50<-11.7959 531.796> 215 50<-11.7959 531.796> 375 50<-11.7959 531.796>
CounterMasks: 1 38
LayerCount: 2
Back
SplineSet
400 507 m 1
 400 13 l 1025
240 507 m 1
 240 13 l 1025
80 507 m 1
 80 13 l 1025
EndSplineSet
Fore
SplineSet
400 532 m 0
 413.617128764 532 425 520.617128764 425 507 c 2
 425 13 l 2
 425 -0.617128764476 413.617128764 -12 400 -12 c 0
 386.382871236 -12 375 -0.617128764476 375 13 c 2
 375 507 l 2
 375 520.617128764 386.382871236 532 400 532 c 0
240 532 m 0
 253.617128764 532 265 520.617128764 265 507 c 2
 265 13 l 2
 265 -0.617128764476 253.617128764 -12 240 -12 c 0
 226.382871236 -12 215 -0.617128764476 215 13 c 2
 215 507 l 2
 215 520.617128764 226.382871236 532 240 532 c 0
80 532 m 0
 93.6171287645 532 105 520.617128764 105 507 c 2
 105 13 l 2
 105 -0.617128764476 93.6171287645 -12 80 -12 c 0
 66.3828712355 -12 55 -0.617128764476 55 13 c 2
 55 507 l 2
 55 520.617128764 66.3828712355 532 80 532 c 0
EndSplineSet
Ligature2: "Ligature Substitution lookup 181 subtable" m u t e
Ligature2: "Ligature Substitution lookup 112 subtable" m u t e tp_space
Ligature2: "tokiponaWords subtable" percent m u t e space
LCarets2: 5 0 0 0 0 0
EndChar

StartChar: tp_nanpa
Encoding: 60989 60989 61
Width: 550
VWidth: 0
Flags: W
HStem: -12 21G<188.191 201.809 348.191 361.809> 137 50<43.2041 170 220 330 380 506.796> 320 50<43.2041 170 220 330 380 506.796> 512 20G<188.191 201.809 348.191 361.809>
VStem: 170 50<-11.7959 137 187 320 370 531.796> 330 50<-11.7959 137 187 320 370 531.796>
LayerCount: 2
Back
SplineSet
68 162 m 5
 482 162 l 1029
68 345 m 5
 482 345 l 1029
355 507 m 5
 355 13 l 1029
195 507 m 5
 195 13 l 1029
EndSplineSet
Fore
SplineSet
195 532 m 0
 208.617128764 532 220 520.617128764 220 507 c 2
 220 370 l 1
 330 370 l 1
 330 507 l 2
 330 520.617128764 341.382871236 532 355 532 c 0
 368.617128764 532 380 520.617128764 380 507 c 2
 380 370 l 1
 482 370 l 2
 495.617128764 370 507 358.617128764 507 345 c 0
 507 331.382871236 495.617128764 320 482 320 c 2
 380 320 l 1
 380 187 l 1
 482 187 l 2
 495.617128764 187 507 175.617128764 507 162 c 0
 507 148.382871236 495.617128764 137 482 137 c 2
 380 137 l 1
 380 13 l 2
 380 -0.617128764476 368.617128764 -12 355 -12 c 0
 341.382871236 -12 330 -0.617128764476 330 13 c 2
 330 137 l 1
 220 137 l 1
 220 13 l 2
 220 -0.617128764476 208.617128764 -12 195 -12 c 0
 181.382871236 -12 170 -0.617128764476 170 13 c 2
 170 137 l 1
 68 137 l 2
 54.3828712355 137 43 148.382871236 43 162 c 0
 43 175.617128764 54.3828712355 187 68 187 c 2
 170 187 l 1
 170 320 l 1
 68 320 l 2
 54.3828712355 320 43 331.382871236 43 345 c 0
 43 358.617128764 54.3828712355 370 68 370 c 2
 170 370 l 1
 170 507 l 2
 170 520.617128764 181.382871236 532 195 532 c 0
330 320 m 1
 220 320 l 1
 220 187 l 1
 330 187 l 1
 330 320 l 1
EndSplineSet
LCarets2: 6 0 0 0 0 0 0
Ligature2: "Ligature Substitution lookup 240 subtable" n a n p a
Ligature2: "Ligature Substitution lookup 227 subtable" n a n p a tp_space
Ligature2: "tokiponaWords subtable" percent n a n p a space
EndChar

StartChar: tp_nasa
Encoding: 60990 60990 62
Width: 550
VWidth: 0
Flags: W
HStem: -12 21G<204.519 344.951> 139.681 50<225.184 316.07> 344 50<231.734 390.614> 482 50<189.678 394.883>
VStem: 43 50<147.767 373.092> 156.103 49.995<209.883 318.607> 457 50<135.057 285.874>
LayerCount: 2
Back
SplineSet
423 474 m 5
 423 474 371 507 275 507 c 7
 151 507 68 406 68 260 c 7
 68 115.96875339 151 13 275 13 c 7
 400 13 482 114 482 220 c 7
 482 323.01953125 384.400390625 369 297 369 c 7
 216.900390625 369 182 317 181.100585938 253.16015625 c 4
 180.462890625 207.924804688 224.200195312 164.680664062 277.400390625 164.680664062 c 4
 330.600585938 164.680664062 347.700195312 216.879882812 347.700195312 216.879882812 c 1053
EndSplineSet
Fore
SplineSet
444.144329571 460.661434598 m 0
 436.575617585 448.663492103 420.822205041 446.703000176 410.552087969 452.3129482 c 0
 407.145178912 454.384579653 361.508272048 482 275 482 c 0
 167.774006754 482 93 396.721488786 93 260 c 0
 93 125.1960471 167.962697173 38 275 38 c 0
 385.097097577 38 457 126.449831552 457 220 c 0
 457 302.587317335 378.73211508 344 297 344 c 0
 231.574500095 344 206.857132349 306.683245381 206.098102142 252.807759322 c 0
 205.68628389 223.595150947 236.818970342 189.680664062 277.400390625 189.680664062 c 0
 309.812389754 189.680664062 322.382337389 220.336024474 324.390382064 225.922727283 c 0
 329.506232102 238.585775977 343.22791738 244.714243685 355.590851564 240.601972601 c 0
 367.961332776 236.487191155 375.363677169 223.715109492 371.670161253 209.734353412 c 0
 371.126981496 208.101363891 349.903380685 139.680664062 277.400390625 139.680664062 c 0
 211.581420283 139.680664062 155.23949736 192.254458428 156.103069733 253.512553178 c 0
 157.142867651 327.316754619 202.226281155 394 297 394 c 0
 390.06866617 394 507 343.451745165 507 220 c 0
 507 101.550168448 414.902902423 -12 275 -12 c 0
 134.037302827 -12 43 106.74145968 43 260 c 0
 43 415.278511214 134.225993246 532 275 532 c 0
 376.544020746 532 432.052232977 497.848302674 437.002963369 494.725212821 c 0
 446.871335993 487.59609532 451.715536242 472.663331673 444.144329571 460.661434598 c 0
EndSplineSet
Ligature2: "Ligature Substitution lookup 182 subtable" n a s a
Ligature2: "Ligature Substitution lookup 113 subtable" n a s a tp_space
Ligature2: "tokiponaWords subtable" percent n a s a space
LCarets2: 5 0 0 0 0 0
EndChar

StartChar: tp_nasin
Encoding: 60991 60991 63
Width: 436
VWidth: 0
Flags: W
HStem: -12 21G<211.191 224.809> 708 20G<211.191 224.809>
VStem: 193 50<-11.7959 358.203 431.797 727.796>
DStem2: 49.656 276.985 86.344 243.015 0.679408 0.733761<-24.7959 156.984> 243 431.797 243 358.203 0.679408 -0.733761<54 235.78>
LayerCount: 2
Back
SplineSet
68 260 m 5
 218 422 l 5
 368 260 l 1029
218 703 m 5
 218 13 l 1029
EndSplineSet
Fore
SplineSet
218 728 m 0
 231.617128764 728 243 716.617128764 243 703 c 2
 243 431.796738986 l 1
 386.34401685 276.985200787 l 2
 395.595603499 266.993487207 394.976914368 250.907569798 384.985200787 241.65598315 c 0
 374.993487207 232.404396501 358.907569798 233.023085632 349.65598315 243.014799213 c 2
 243 358.203261014 l 1
 243 13 l 2
 243 -0.617128764476 231.617128764 -12 218 -12 c 0
 204.382871236 -12 193 -0.617128764476 193 13 c 2
 193 358.203261014 l 1
 86.3440168505 243.014799213 l 2
 77.0924302019 233.023085632 61.006512793 232.404396501 51.0147992125 241.65598315 c 0
 41.0230856321 250.907569798 40.404396501 266.993487207 49.6559831495 276.985200787 c 2
 193 431.796738986 l 1
 193 703 l 2
 193 716.617128764 204.382871236 728 218 728 c 0
EndSplineSet
Ligature2: "Ligature Substitution lookup 241 subtable" n a s i n
Ligature2: "Ligature Substitution lookup 228 subtable" n a s i n tp_space
Ligature2: "tokiponaWords subtable" percent n a s i n space
LCarets2: 6 0 0 0 0 0 0
EndChar

StartChar: tp_nena
Encoding: 60992 60992 64
Width: 550
VWidth: 0
Flags: W
HStem: 0 21G<63.1914 222.185 334.271 488.809> 30 20G<374.113 488.809> 678 50<180.359 370.136>
VStem: 43 50<357.258 585.077> 457 50<357.101 585.078>
LayerCount: 2
Back
SplineSet
70 25 m 5
 215 25 l 5
 215 25 68 331 68 477 c 7
 68 623 151 703 275 703 c 7
 400.143554688 703 482 623 482 477 c 7
 482 331 335 25 335 25 c 5
 482 25 l 1029
EndSplineSet
Fore
SplineSet
45 25 m 0
 45 38.6171287645 56.3828712355 50 70 50 c 2
 175.887410894 50 l 1
 136.948554723 136.131718101 43 351.246195018 43 477 c 0
 43 634.434784259 137.343589479 728 275 728 c 0
 413.824154911 728 507 634.314343456 507 477 c 0
 507 351.276332173 412.189243986 134.224551691 374.112589106 50 c 1
 482 50 l 2
 495.617128764 50 507 38.6171287645 507 25 c 0
 507 11.3828712355 495.617128764 0 482 0 c 2
 335 0 l 2
 333.542767031 0 328.76982675 0.604713990974 325.980433432 1.68375204007 c 0
 312.577877436 6.86834461226 306.243136962 22.8666140529 312.463273467 35.8210885396 c 2
 312.463273467 35.8210885396 457 341.887135296 457 477 c 0
 457 611.685656544 386.462954464 678 275 678 c 0
 164.656410521 678 93 611.565215741 93 477 c 0
 93 341.887233448 237.536726533 35.8210885396 237.536726533 35.8210885396 c 2
 238.167480412 34.5074381031 239.688285833 29.9430335623 239.922937299 26.9614271361 c 0
 241.050397303 12.6353201526 229.370403869 0 215 0 c 2
 70 0 l 2
 56.3828712355 0 45 11.3828712355 45 25 c 0
EndSplineSet
Ligature2: "Ligature Substitution lookup 183 subtable" n e n a
Ligature2: "Ligature Substitution lookup 114 subtable" n e n a tp_space
Ligature2: "tokiponaWords subtable" percent n e n a space
LCarets2: 5 0 0 0 0 0
EndChar

StartChar: tp_ni
Encoding: 60993 60993 65
Width: 436
VWidth: 0
Flags: W
HStem: 512 20G<211.191 224.809>
VStem: 193 50<73.3553 531.796>
LayerCount: 2
Back
SplineSet
368 163 m 5
 218 13 l 1028
68 163 m 5
 218 13 l 5
 218 507 l 1029
EndSplineSet
Fore
SplineSet
50.3223304703 180.67766953 m 0
 59.95109456 190.306433619 76.04890544 190.306433619 85.6776695297 180.67766953 c 2
 193 73.3553390593 l 1
 193 507 l 2
 193 520.617128764 204.382871236 532 218 532 c 0
 231.617128764 532 243 520.617128764 243 507 c 2
 243 73.3553390593 l 1
 350.32233047 180.67766953 l 2
 359.95109456 190.306433619 376.04890544 190.306433619 385.67766953 180.67766953 c 0
 395.306433619 171.04890544 395.306433619 154.95109456 385.67766953 145.32233047 c 2
 235.67766953 -4.67766952966 l 2
 227.914117715 -12.4412213439 215.945041944 -13.945118626 206.552165008 -9.1893608433 c 0
 204.29935519 -8.0498508438 202.191828674 -6.54716853586 200.32233047 -4.67766952966 c 2
 50.3223304703 145.32233047 l 2
 40.6935663807 154.95109456 40.6935663807 171.04890544 50.3223304703 180.67766953 c 0
EndSplineSet
Ligature2: "Ligature Substitution lookup 33 subtable" n i
Ligature2: "Ligature Substitution lookup 20 subtable" n i tp_space
Ligature2: "tokiponaWords subtable" percent n i space
LCarets2: 3 0 0 0
EndChar

StartChar: tp_nimi
Encoding: 60994 60994 66
Width: 550
VWidth: 0
Flags: W
HStem: 0 21G<79.4292 477.566> 470 50<105 416.77>
VStem: 55 50<94.2783 470> 445 50<50 425.722>
LayerCount: 2
Back
SplineSet
470 495 m 1
 80 25 l 1025
80 495 m 1
 80 25 l 1
 470 25 l 1
 470 495 l 1
 80 495 l 1
EndSplineSet
Fore
SplineSet
55 495 m 2
 55 505.729492188 64.8671875 520 80 520 c 2
 470 520 l 2
 471.141601562 520 472.323242188 519.888671875 473.522460938 519.670898438 c 0
 477.98046875 519.065429688 482.309570312 517.271484375 485.963867188 514.239257812 c 0
 489.756835938 511.091796875 492.372070312 506.985351562 493.752929688 502.528320312 c 0
 494.55078125 500.201171875 495 497.68359375 495 495 c 2
 495 25 l 2
 495 14.2705078125 485.1328125 0 470 0 c 2
 80 0 l 2
 78.8583984375 0 77.6767578125 0.111328125 76.4775390625 0.3291015625 c 0
 72.01953125 0.9345703125 67.6904296875 2.728515625 64.0361328125 5.7607421875 c 0
 60.2431640625 8.908203125 57.6279296875 13.0146484375 56.2470703125 17.4716796875 c 0
 55.44921875 19.798828125 55 22.31640625 55 25 c 2
 55 495 l 2
105 94.2783203125 m 1
 416.76953125 470 l 1
 105 470 l 1
 105 94.2783203125 l 1
133.23046875 50 m 1
 445 50 l 1
 445 425.721679688 l 1
 133.23046875 50 l 1
EndSplineSet
Ligature2: "Ligature Substitution lookup 184 subtable" n i m i
Ligature2: "Ligature Substitution lookup 115 subtable" n i m i tp_space
Ligature2: "tokiponaWords subtable" percent n i m i space
LCarets2: 5 0 0 0 0 0
EndChar

StartChar: tp_noka
Encoding: 60995 60995 67
Width: 550
VWidth: 0
Flags: W
HStem: 0 21G<74.635 339.575> 320 50<307.547 419.173> 512 20G<73.1914 86.8086>
VStem: 55 50<50 531.796> 250.123 49.1736<259.318 309.944> 457 50<107.97 277.587>
LayerCount: 2
Back
SplineSet
80 507 m 5
 80 25 l 5
 80 25 197 25 275 25 c 7
 399 25 482 62 482 199 c 7
 482 251 454 345 364 345 c 7
 283 345 275 284 275 284 c 1028
EndSplineSet
Fore
SplineSet
80 532 m 0
 93.6171287645 532 105 520.617128764 105 507 c 2
 105 50 l 1
 275 50 l 2
 393.850275625 50 457 79.1857632869 457 199 c 0
 457 247.628408258 431.274126206 320 364 320 c 0
 304.52072553 320 300.532000895 284.669569972 299.296376669 278.010978016 c 0
 297.123622799 267.193275994 284.509726198 257.473757478 271.625766548 259.22875561 c 0
 258.708179085 260.988334381 249.074557344 272.173857353 250.122736348 286.596044994 c 0
 250.828369139 291.776303729 265.157269425 370 364 370 c 0
 476.725873795 370 507 254.371591742 507 199 c 0
 507 44.8142367131 404.149724375 0 275 0 c 2
 80 0 l 2
 69.2700956673 0 55 9.86746214447 55 25 c 2
 55 507 l 2
 55 520.617128764 66.3828712355 532 80 532 c 0
EndSplineSet
LCarets2: 5 0 0 0 0 0
Ligature2: "Ligature Substitution lookup 185 subtable" n o k a
Ligature2: "Ligature Substitution lookup 116 subtable" n o k a tp_space
Ligature2: "tokiponaWords subtable" percent n o k a space
EndChar

StartChar: tp_o
Encoding: 60996 60996 68
Width: 328
VWidth: 0
Flags: W
HStem: -12 21G<130.596 197.404>
VStem: 43 50<59.0075 159.562> 138.926 50.0002<221.428 531.589> 235 50<59.0075 159.583>
LayerCount: 2
Back
SplineSet
163 507 m 5
 164 205 l 1029
68 109 m 4
 68 162 111 205 164 205 c 4
 217 205 260 162 260 109 c 4
 260 56 217 13 164 13 c 4
 111 13 68 56 68 109 c 4
EndSplineSet
Fore
SplineSet
93 109 m 0
 93 69.8071427016 124.807092901 38 164 38 c 0
 203.192857298 38 235 69.8070929007 235 109 c 0
 235 148.192857298 203.192907099 180 164 180 c 0
 124.807142702 180 93 148.192907099 93 109 c 0
162.917218997 531.999862946 m 0
 176.53427311 532.044952529 187.954773363 520.699835116 187.999862946 507.082781003 c 2
 188.925872556 227.427878756 l 1
 243.782140818 215.932283978 285 167.263207392 285 109 c 0
 285 42.1929070993 230.807142702 -12 164 -12 c 0
 97.1929070993 -12 43 42.1928572984 43 109 c 0
 43 167.210609404 84.1434962196 215.844464016 138.925701759 227.396678105 c 1
 138.000137054 506.917218997 l 2
 137.955047471 520.53427311 149.300164884 531.954773363 162.917218997 531.999862946 c 0
EndSplineSet
Ligature2: "Ligature Substitution lookup 6 subtable" o tp_space
Ligature2: "tokiponaWords subtable" percent o space
LCarets2: 2 0 0
EndChar

StartChar: tp_olin
Encoding: 60997 60997 69
Width: 550
VWidth: 0
Flags: W
HStem: 482 50<114.104 218.424 319.593 432.114> 678 50<118.289 218.424 319.593 427.509>
VStem: 43 50<296.992 460.634> 50 50<520.173 659.46> 450 50<513.672 656.979> 457 50<304.986 456.982>
LayerCount: 2
Back
SplineSet
100 484 m 5
 92.08203125 501.159179688 75 535.9535135 75 579 c 7
 75 656.058419397 103 703 171 703 c 7
 239 703 275 621 275 621 c 5
 275 621 291 703 367 703 c 7
 443 703 475 655 475 579 c 7
 475 535.895475875 468.452148438 497.8828125 458 480 c 1029
87.267578125 522.014648438 m 1029
275 13 m 5
 166.930664062 173.001953125 68 270.928710938 68 383 c 7
 68 461 103 507 171 507 c 7
 239 507 275 425 275 425 c 5
 275 425 291 507 367 507 c 7
 443 507 482 459 482 383 c 7
 482 268 349 141 275 13 c 5
EndSplineSet
Fore
SplineSet
254.282867975 -0.992871066242 m 0xc4
 148.845137863 155.112860543 43 256.448130513 43 383 c 0xe4
 43 423.619817711 52.7512729505 459.096297428 71.9123236846 485.232021274 c 1
 62.8984614345 505.382270059 49.999999999 538.741908646 50 579 c 0
 50 661.63169415 85.0628101044 728 171 728 c 0
 218.707395909 728 252.266192613 697.112940833 270.722144903 674.374702161 c 1
 288.192814708 701.155514549 318.072741243 728 367 728 c 0
 458.878308328 728 500 662.877506865 500 579 c 0xd8
 500 537.223785859 495.43268735 499.607427515 483.013677689 473.847731081 c 1
 498.812005611 449.179848148 507 418.008069262 507 383 c 0
 507 251.942112809 366.995245662 122.177155799 296.643370778 0.487426269054 c 0
 289.45094126 -11.9535328977 272.666233341 -15.7412950394 260.827920588 -7.59495484675 c 0
 258.258704087 -5.82699077244 255.603416781 -2.94800835098 254.282867975 -0.992871066242 c 0xc4
273.806845553 58.8298246133 m 1
 351.653364408 179.183797444 457 293.126912078 457 383 c 0
 457 448.89658187 428.531559514 482 367 482 c 0
 315.107801257 482 300.816921807 426.263448986 299.396074516 419.536358042 c 0
 298.144156801 413.794858826 293.396628814 406.517185799 286.866060197 402.995531922 c 0
 274.880559515 396.532268548 259.805544863 400.505483429 252.575855814 413.912185229 c 0
 249.8772007 419.904080447 217.721363443 482 171 482 c 0
 119.251614518 482 93 452.962391815 93 383 c 0
 93 292.068706269 171.829577392 204.389342931 273.806845553 58.8298246133 c 1
112.003397268 519.177303095 m 1
 128.712476007 527.469102776 148.398892097 532 171 532 c 0
 218.707395909 532 252.266192613 501.112940833 270.722144903 478.374702161 c 1
 288.192814708 505.155514549 318.072741243 532 367 532 c 0
 396.961870917 532 422.433617163 525.101245447 443.103029958 512.745499054 c 1
 446.885143851 529.234801761 450 553.051729425 450 579 c 0
 450 647.122493135 427.121691672 678 367 678 c 0
 315.107801257 678 300.816921807 622.263448986 299.396074516 615.536358042 c 0
 298.144156801 609.794858826 293.396628814 602.517185799 286.866060197 598.995531922 c 0
 274.880559515 592.532268548 259.805544863 596.505483429 252.575855814 609.912185229 c 0
 249.8772007 615.904080447 217.721363443 678 171 678 c 0
 120.937189896 678 100 650.485144645 100 579 c 0xd8
 100 556.106970902 105.739225767 535.5918452 112.003397268 519.177303095 c 1
EndSplineSet
LCarets2: 5 0 0 0 0 0
Ligature2: "Ligature Substitution lookup 186 subtable" o l i n
Ligature2: "Ligature Substitution lookup 117 subtable" o l i n tp_space
Ligature2: "tokiponaWords subtable" percent o l i n space
EndChar

StartChar: tp_ona
Encoding: 60998 60998 70
Width: 623
VWidth: 0
Flags: W
HStem: 0 21G<56.1914 422.522> 482 50<267.678 438.322>
VStem: 121 50<149.503 373.092> 535 50<149.353 373.092>
LayerCount: 2
Back
SplineSet
146 260 m 7
 146 406 229 507 353 507 c 7
 477 507 560 406 560 260 c 7
 560 114 477 25 353 25 c 7
 229 25 146 114 146 260 c 7
353 25 m 4
 63 25 l 1028
EndSplineSet
Fore
SplineSet
121 260 m 0
 121 415.278585301 212.22454825 532 353 532 c 0
 493.774006754 532 585 415.278511214 585 260 c 0
 585 103.508347235 492.043838235 0 353 0 c 2
 63 0 l 2
 49.3828712355 0 38 11.3828712355 38 25 c 0
 38 38.6171287645 49.3828712355 50 63 50 c 2
 206.895432497 50 l 1
 152.750462131 95.1788832159 121 168.540852842 121 260 c 0
353 50 m 0
 461.956161765 50 535 124.491652765 535 260 c 0
 535 396.721488786 460.225993246 482 353 482 c 0
 245.77545175 482 171 396.721414699 171 260 c 0
 171 124.491639589 244.043869345 50 353 50 c 0
EndSplineSet
Ligature2: "Ligature Substitution lookup 75 subtable" o n a
Ligature2: "Ligature Substitution lookup 53 subtable" o n a tp_space
Ligature2: "tokiponaWords subtable" percent o n a space
LCarets2: 4 0 0 0 0
EndChar

StartChar: tp_open
Encoding: 60999 60999 71
Width: 550
VWidth: 0
Flags: W
HStem: 0 21G<74.635 477.566> 470 50<105 445> 708 20G<73.1914 86.8086 463.191 476.809>
VStem: 55 50<50 470 520 727.796> 445 50<50 470 520 727.796>
LayerCount: 2
Back
SplineSet
80 703 m 5
 80 25 l 5
 470 25 l 5
 470 703 l 1029
80 495 m 5
 470 495 l 1029
EndSplineSet
Fore
SplineSet
80 728 m 0
 93.6171287645 728 105 716.617128764 105 703 c 2
 105 520 l 1
 445 520 l 1
 445 703 l 2
 445 716.617128764 456.382871236 728 470 728 c 0
 483.617128764 728 495 716.617128764 495 703 c 2
 495 495 l 1
 495 25 l 2
 495 14.2700956673 485.132537856 0 470 0 c 2
 80 0 l 2
 69.2700956673 0 55 9.86746214447 55 25 c 2
 55 495 l 1
 55 703 l 2
 55 716.617128764 66.3828712355 728 80 728 c 0
445 470 m 1
 105 470 l 1
 105 50 l 1
 445 50 l 1
 445 470 l 1
EndSplineSet
Ligature2: "Ligature Substitution lookup 187 subtable" o p e n
Ligature2: "Ligature Substitution lookup 118 subtable" o p e n tp_space
Ligature2: "tokiponaWords subtable" percent o p e n space
LCarets2: 5 0 0 0 0 0
EndChar

StartChar: tp_pakala
Encoding: 61000 61000 72
Width: 550
VWidth: 0
Flags: HW
HStem: 0 21G<74.6353 477.566> 236 50<235.126 314.961> 470 50<105 240.874 293.314 445>
VStem: 55 50<50 470> 445 50<50 470>
DStem2: 177.163 268.538 235.126 286 0.301525 0.953458<34.1264 211.296> 256.639 50 309.039 50 0.299194 0.954192<15.6779 194.929>
LayerCount: 2
Back
SplineSet
275 495 m 5
 201 261 l 1
 349 261 l 1
 275 25 l 1025
80 495 m 5
 80 25 l 1
 470 25 l 1
 470 495 l 5
 80 495 l 5
EndSplineSet
Fore
SplineSet
105 470 m 1
 105 50 l 1
 256.638671875 50 l 1
 314.9609375 236 l 1
 201 236 l 2
 199.559570312 236 197.178710938 236.22265625 195.35546875 236.645507812 c 0
 181.356445312 239.890625 172.830078125 254.836914062 177.163085938 268.538085938 c 2
 240.874023438 470 l 1
 105 470 l 1
55 495 m 2
 55 505.729492188 64.8671875 520 80 520 c 2
 470 520 l 2
 480.729492188 520 495 510.1328125 495 495 c 2
 495 25 l 2
 495 14.2705078125 485.1328125 0 470 0 c 2
 80 0 l 2
 69.2705078125 0 55 9.8671875 55 25 c 2
 55 495 l 2
309.0390625 50 m 1
 445 50 l 1
 445 470 l 1
 293.314453125 470 l 1
 235.125976562 286 l 1
 349 286 l 2
 365.858398438 286 377.701171875 268.975585938 372.854492188 253.520507812 c 2
 309.0390625 50 l 1
EndSplineSet
Ligature2: "Ligature Substitution lookup 261 subtable" p a k a l a
Ligature2: "Ligature Substitution lookup 250 subtable" p a k a l a tp_space
Ligature2: "tokiponaWords subtable" percent p a k a l a space
LCarets2: 7 0 0 0 0 0 0 0
EndChar

StartChar: tp_pali
Encoding: 61001 61001 73
Width: 550
VWidth: 0
Flags: W
HStem: -196 21G<463.191 476.809> 150 48.8386<190.576 250.14 300.14 359.621> 320.906 49.0935<174.295 250.858 300.859 376.972> 678 50<177.032 371.034>
VStem: 43 50<442.137 599.282> 55 50<-119.217 54.1424> 250.14 50.0007<196.559 322.69> 445 50<-195.796 54.0507> 457 50<442.552 598.74>
LayerCount: 2
Back
SplineSet
275 175 m 29
 276 345 l 1053
-17 -92 m 5
 -17 -92 80 -173 80 -171 c 4
 80 -65 l 7
 80 85.0302734375 151 175 275 175 c 7
 399 175 470 85 470 -65 c 6
 470 -171 l 1029
275 703 m 7
 143.369230769 703 68 617.265625 68 525 c 7
 68 419 144.408163265 345 276 345 c 4
 406.608247423 345 482 420 482 525 c 7
 482 616 406.630769231 703 275 703 c 7
EndSplineSet
Fore
SplineSet
275 678 m 0xfa80
 155.136280253 678 93 602.375245637 93 525 c 0
 93 434.081734083 154.824214122 370 276 370 c 0
 395.866003723 370 457 434.858095253 457 525 c 0
 457 601.136162231 394.718700849 678 275 678 c 0xfa80
275 728 m 0
 418.542837613 728 507 630.863837769 507 525 c 0xfa80
 507 412.328120123 427.77828278 330.334336107 300.858710859 320.907317266 c 1
 300.140499195 198.811334432 l 1
 425.108476952 186.72188341 495 83.4191092962 495 -65 c 2
 495 -171 l 2
 495 -184.617128764 483.617128764 -196 470 -196 c 0
 456.382871236 -196 445 -184.617128764 445 -171 c 2
 445 -65 l 2
 445 76.9045369508 382.301915299 150 275 150 c 0
 167.694584894 150 105 76.933895679 105 -65 c 2
 105 -171 l 2
 105 -194.890701715 76.9525596777 -195.935278876 74.9991018112 -195.542573428 c 0
 50.0745629667 -190.531970258 -31.3103617519 -112.620190883 -33.0231202526 -111.190091646 c 0
 -43.4756782103 -102.462535978 -44.9176473132 -86.4294377051 -36.1900916457 -75.9768797474 c 0
 -27.4625359782 -65.5243217897 -11.4294377051 -64.0823526868 -0.97687974742 -72.8099083543 c 2
 -0.97687974742 -72.8099083543 30.082466782 -98.7260651669 55 -119.216974755 c 1
 55 -65 l 2xf7
 55 83.5591161965 124.998915206 186.879511136 250.139794281 198.838556539 c 1
 250.857840926 320.906486142 l 1
 123.341678227 330.263372214 43 411.224904672 43 525 c 0
 43 632.156004363 131.602181286 728 275 728 c 0
EndSplineSet
Ligature2: "Ligature Substitution lookup 189 subtable" p a l i
Ligature2: "Ligature Substitution lookup 120 subtable" p a l i tp_space
Ligature2: "tokiponaWords subtable" percent p a l i space
LCarets2: 5 0 0 0 0 0
EndChar

StartChar: tp_palisa
Encoding: 61002 61002 74
Width: 320
VWidth: 0
Flags: HW
HStem: 0.000488267 50.1563<105 215> 482 50<134.204 186.387>
VStem: 55 50<50.1567 446.853> 215 50<50.8442 447.227>
LayerCount: 2
Back
SplineSet
160 507 m 7
 224 507 240 447 240 300 c 4
 240 26 l 5
 80 25 l 5
 80 300 l 7
 80 446 96 507 160 507 c 7
EndSplineSet
Fore
SplineSet
160 482 m 0
 123.488796046 482 105 452.787387073 105 300 c 2
 105 50.1567382765 l 1
 215 50.8442382765 l 1
 215 300 l 2
 215 453.739440183 196.633946262 482 160 482 c 0
160 532 m 0
 251.366053738 532 265 440.260559817 265 300 c 2
 265 26 l 2
 265 11.741131816 252.393722847 1.07697249131 240.156246948 1.00048826695 c 2
 80.1562469483 0.000488266945353 l 2
 65.0751267672 -0.0937687341867 55 13.9810018106 55 25 c 2
 55 300 l 2
 55 439.212612927 68.5112039542 532 160 532 c 0
EndSplineSet
Ligature2: "Ligature Substitution lookup 262 subtable" p a l i s a
Ligature2: "Ligature Substitution lookup 251 subtable" p a l i s a tp_space
Ligature2: "tokiponaWords subtable" percent p a l i s a space
LCarets2: 7 0 0 0 0 0 0 0
EndChar

StartChar: tp_pan
Encoding: 61003 61003 75
Width: 550
VWidth: 0
Flags: W
LayerCount: 2
Back
SplineSet
68 507 m 5
 275 260 l 5
 482 507 l 1029
68 260 m 5
 275 13 l 5
 482 260 l 1029
EndSplineSet
Fore
SplineSet
51.942039822 526.160947652 m 0
 62.3787234791 534.90748011 78.4144151945 533.494643835 87.160947652 523.057960178 c 2
 275 298.92150641 l 1
 462.839052348 523.057960178 l 2
 471.585584806 533.494643835 487.621276521 534.90748011 498.057960178 526.160947652 c 0
 508.494643835 517.414415194 509.90748011 501.378723479 501.160947652 490.942039822 c 2
 294.160947652 243.942039822 l 2
 285.754949414 233.911694099 266.535755985 231.178340314 255.839052348 243.942039822 c 2
 48.839052348 490.942039822 l 2
 40.0925198905 501.378723479 41.505356165 517.414415194 51.942039822 526.160947652 c 0
51.942039822 279.160947652 m 0
 62.3787234791 287.90748011 78.4144151945 286.494643835 87.160947652 276.057960178 c 2
 275 51.9215064101 l 1
 462.839052348 276.057960178 l 2
 471.585584806 286.494643835 487.621276521 287.90748011 498.057960178 279.160947652 c 0
 508.494643835 270.414415194 509.90748011 254.378723479 501.160947652 243.942039822 c 2
 294.160947652 -3.05796017798 l 2
 285.754949414 -13.0883059011 266.535755985 -15.8216596863 255.839052348 -3.05796017798 c 2
 48.839052348 243.942039822 l 2
 40.0925198905 254.378723479 41.505356165 270.414415194 51.942039822 279.160947652 c 0
EndSplineSet
Ligature2: "Ligature Substitution lookup 76 subtable" p a n
Ligature2: "Ligature Substitution lookup 54 subtable" p a n tp_space
Ligature2: "tokiponaWords subtable" percent p a n space
LCarets2: 4 0 0 0 0
EndChar

StartChar: tp_pana
Encoding: 61004 61004 76
Width: 550
VWidth: 0
Flags: W
HStem: -12 21G<463.191 476.809> 482 50<218.131 372.356> 708 20G<288.191 301.809>
VStem: 98 50<76.6783 396.131> 270 50<582.204 727.796> 445 50<-11.7959 395.135>
DStem2: 112.572 690.783 77.4285 655.217 0.711328 -0.70286<-24.7959 142.885> 386.877 607.103 425.123 574.897 0.644136 0.764911<-24.7959 148.993>
AnchorPoint: "Small" 302 254 basechar 0
LayerCount: 2
Back
SplineSet
486 686 m 5
 406 591 l 1029
295 703 m 5
 295 607 l 1029
95 673 m 5
 179 590 l 1029
EndSplineSet
Refer: 45 60973 S 1 0 0 1 0 0 2
Fore
SplineSet
502.103393645 705.122779953 m 0
 512.519287923 696.351500561 513.894059345 680.312500634 505.122779953 669.896606355 c 2
 425.122779953 574.896606355 l 2
 416.351500561 564.480712077 400.312500634 563.105940655 389.896606355 571.877220047 c 0
 379.480712077 580.648499439 378.105940655 596.687499366 386.877220047 607.103393645 c 2
 466.877220047 702.103393645 l 2
 475.648499439 712.519287923 491.687499366 713.894059345 502.103393645 705.122779953 c 0
295 728 m 0
 308.617128764 728 320 716.617128764 320 703 c 2
 320 607 l 2
 320 593.382871236 308.617128764 582 295 582 c 0
 281.382871236 582 270 593.382871236 270 607 c 2
 270 703 l 2
 270 716.617128764 281.382871236 728 295 728 c 0
77.21679498 690.571500198 m 0
 86.7877302115 700.257747902 102.885252494 700.354140251 112.571500198 690.78320502 c 2
 196.571500198 607.78320502 l 2
 206.257747902 598.212269789 206.354140251 582.114747506 196.78320502 572.428499802 c 0
 187.212269789 562.742252098 171.114747506 562.645859749 161.428499802 572.21679498 c 2
 77.4284998017 655.21679498 l 2
 67.7422520976 664.787730211 67.6458597486 680.885252494 77.21679498 690.571500198 c 0
EndSplineSet
Refer: 45 60973 N 1 0 0 1 0 0 2
Ligature2: "Ligature Substitution lookup 190 subtable" p a n a
Ligature2: "Ligature Substitution lookup 121 subtable" p a n a tp_space
Ligature2: "tokiponaWords subtable" percent p a n a space
LCarets2: 5 0 0 0 0 0
EndChar

StartChar: tp_pi
Encoding: 61005 61005 77
Width: 343
VWidth: 0
Flags: W
HStem: 0 21G<74.6353 281.809> 512 20G<73.1914 86.8086>
VStem: 55 50<50 531.796>
LayerCount: 2
Back
SplineSet
80 507 m 1
 80 25 l 0
 275 25 l 1025
EndSplineSet
Fore
SplineSet
80 532 m 0
 93.6171875 532 105 520.6171875 105 507 c 2
 105 50 l 1
 275 50 l 2
 288.6171875 50 300 38.6171875 300 25 c 0
 300 11.3828125 288.6171875 0 275 0 c 2
 80 0 l 2
 69.2705078125 0 55 9.8671875 55 25 c 2
 55 507 l 2
 55 520.6171875 66.3828125 532 80 532 c 0
EndSplineSet
LCarets2: 3 0 0 0
Ligature2: "Ligature Substitution lookup 34 subtable" p i
Ligature2: "Ligature Substitution lookup 21 subtable" p i tp_space
Ligature2: "tokiponaWords subtable" percent p i space
EndChar

StartChar: tp_pilin
Encoding: 61006 61006 78
Width: 550
VWidth: 0
Flags: W
HStem: 482 50<122.723 218.424 319.593 433.517>
VStem: 43 50<300.374 451.43> 457 50<323.787 459.024>
LayerCount: 2
Back
SplineSet
275 13 m 5
 166.930664062 173.001953125 68 274.928710938 68 387 c 7
 68 441 103 507 171 507 c 7
 239 507 275 425 275 425 c 5
 275 425 291 507 367 507 c 7
 443 507 482 463 482 387 c 7
 482 303 349 141 275 13 c 5
EndSplineSet
Fore
SplineSet
273.597280368 59.1823248182 m 1
 350.229366543 182.477283692 457 326.940675978 457 387 c 0
 457 452.125875665 429.654093439 482 367 482 c 0
 315.107801257 482 300.816921807 426.263448986 299.396074516 419.536358042 c 0
 298.144156801 413.794858826 293.396628814 406.517185799 286.866060197 402.995531922 c 0
 274.880559515 396.532268548 259.805544863 400.505483429 252.575855814 413.912185229 c 0
 249.8772007 419.904080447 217.721363443 482 171 482 c 0
 122.54391194 482 93 433.421995971 93 387 c 0
 93 295.883786874 171.332794689 205.532864481 273.597280368 59.1823248182 c 1
254.282867975 -0.992871066242 m 0
 148.65288201 155.397504765 43 260.581039132 43 387 c 0
 43 448.578004029 83.4560880601 532 171 532 c 0
 218.707395909 532 252.266192613 501.112940833 270.722144903 478.374702161 c 1
 288.192814708 505.155514549 318.072741243 532 367 532 c 0
 456.345906561 532 507 473.874124335 507 387 c 0
 507 285.596194457 368.458608809 124.708378539 296.643370778 0.487426269054 c 0
 289.45094126 -11.9535328977 272.666233341 -15.7412950394 260.827920588 -7.59495484675 c 0
 258.258704087 -5.82699077244 255.603416781 -2.94800835098 254.282867975 -0.992871066242 c 0
EndSplineSet
Ligature2: "Ligature Substitution lookup 242 subtable" p i l i n
Ligature2: "Ligature Substitution lookup 229 subtable" p i l i n tp_space
Ligature2: "tokiponaWords subtable" percent p i l i n space
LCarets2: 6 0 0 0 0 0 0
EndChar

StartChar: tp_pimeja
Encoding: 61007 61007 79
Width: 550
VWidth: 0
Flags: W
HStem: -12 21G<66.7756 489.185>
VStem: 247.189 55.6215<167.813 223.434>
DStem2: 44.9425 22.6618 105.582 38 0.386471 0.922302<37.5818 298.871 346.099 475.955> 170.373 38 225.994 38 0.438098 0.898927<24.3677 136.231 238.827 292.45> 232.473 339.952 206.562 278.988 0.438098 -0.898927<43.4513 97.0735 199.67 311.533> 298.058 516.662 275 442.312 0.386471 -0.922302<59.6618 189.518 236.745 498.035>
LayerCount: 2
Back
SplineSet
186 13 m 5
 340 329 l 1029
210 329 m 5
 364 13 l 1029
275 507 m 5
 68 13 l 5
 482 13 l 5
 275 507 l 5
EndSplineSet
Fore
SplineSet
251.942456487 516.661764184 m 2
 253.981940084 521.528937599 258.304555861 526.523968961 263.55899062 529.228434591 c 0
 276.336253918 535.804911609 292.503805376 529.915612685 298.057543513 516.661764184 c 2
 505.057543513 22.6617641845 l 2
 506.00395559 20.4031769094 506.715718615 17.5944580424 506.922937299 14.9614271361 c 0
 508.050397303 0.63532015256 496.370403869 -12 482 -12 c 2
 68 -12 l 2
 65.5511406127 -12 62.6855788531 -11.5709731026 60.1770459429 -10.7445023073 c 0
 46.5283224298 -6.24774193727 39.3887183504 9.40791568409 44.9424564872 22.6617641845 c 2
 251.942456487 516.661764184 l 2
206.562404719 278.987518115 m 1
 105.581805023 38 l 1
 170.372777471 38 l 1
 247.189233168 195.623376623 l 1
 206.562404719 278.987518115 l 1
324.005688864 38 m 1
 275 138.557127799 l 1
 225.994311136 38 l 1
 324.005688864 38 l 1
379.627222529 38 m 1
 444.418194977 38 l 1
 343.437595281 278.987518115 l 1
 302.810766832 195.623376623 l 1
 379.627222529 38 l 1
232.274984416 340.349906377 m 2
 232.342181696 340.218166418 232.408295689 340.085590138 232.473310562 339.952182996 c 2
 275 252.689625448 l 1
 317.526689438 339.952182996 l 2
 317.591704311 340.085590138 317.657818304 340.218166418 317.725015584 340.349906377 c 2
 275 442.312020862 l 1
 232.274984416 340.349906377 l 2
EndSplineSet
Ligature2: "Ligature Substitution lookup 263 subtable" p i m e j a
Ligature2: "Ligature Substitution lookup 252 subtable" p i m e j a tp_space
Ligature2: "tokiponaWords subtable" percent p i m e j a space
LCarets2: 7 0 0 0 0 0 0 0
EndChar

StartChar: tp_pini
Encoding: 61008 61008 80
Width: 416
VWidth: 0
Flags: W
HStem: 0 21G<61.1914 208 208 354.809> 470 50<43.2041 183 233 372.796>
VStem: 183 50<50 470>
LayerCount: 2
Back
SplineSet
208 495 m 5
 208 25 l 1029
68 25 m 5
 348 25 l 1029
68 495 m 4
 348 495 l 1029
EndSplineSet
Fore
SplineSet
43 495 m 0
 43 508.617128764 54.3828712355 520 68 520 c 2
 208 520 l 1
 348 520 l 2
 361.617128764 520 373 508.617128764 373 495 c 0
 373 481.382871236 361.617128764 470 348 470 c 2
 233 470 l 1
 233 50 l 1
 348 50 l 2
 361.617128764 50 373 38.6171287645 373 25 c 0
 373 11.3828712355 361.617128764 0 348 0 c 2
 208.000000345 1.21777588014e-15 l 1
 208 0 l 1
 68 0 l 2
 54.3828712355 0 43 11.3828712355 43 25 c 0
 43 38.6171287645 54.3828712355 50 68 50 c 2
 183 50 l 1
 183 470 l 1
 68 470 l 2
 54.3828712355 470 43 481.382871236 43 495 c 0
EndSplineSet
LCarets2: 5 0 0 0 0 0
Ligature2: "Ligature Substitution lookup 191 subtable" p i n i
Ligature2: "Ligature Substitution lookup 122 subtable" p i n i tp_space
Ligature2: "tokiponaWords subtable" percent p i n i space
EndChar

StartChar: tp_pipi
Encoding: 61009 61009 81
Width: 431
VWidth: 0
Flags: W
HStem: -12 21G<211.191 224.809> 150 50<43.2041 193 243 392.796> 320 50<43.2041 193 243 392.796> 512 20G<211.191 224.809> 609 82<81.9529 154.047 272.953 345.047>
VStem: 77 82<613.953 686.047> 193 50<-11.7959 150 200 320 370 531.796> 268 82<613.953 686.047>
LayerCount: 2
Back
SplineSet
68 175 m 1
 368 175 l 1025
68 345 m 1
 368 345 l 1025
218 507 m 1
 218 13 l 1025
EndSplineSet
Refer: 153 -1 S 1 0 0 1 118 649 2
Refer: 153 -1 S 1 0 0 1 309 649 2
Fore
SplineSet
218 532 m 0
 231.617128764 532 243 520.617128764 243 507 c 2
 243 370 l 1
 368 370 l 2
 381.617128764 370 393 358.617128764 393 345 c 0
 393 331.382871236 381.617128764 320 368 320 c 2
 243 320 l 1
 243 200 l 1
 368 200 l 2
 381.617128764 200 393 188.617128764 393 175 c 0
 393 161.382871236 381.617128764 150 368 150 c 2
 243 150 l 1
 243 13 l 2
 243 -0.617128764476 231.617128764 -12 218 -12 c 0
 204.382871236 -12 193 -0.617128764476 193 13 c 2
 193 150 l 1
 68 150 l 2
 54.3828712355 150 43 161.382871236 43 175 c 0
 43 188.617128764 54.3828712355 200 68 200 c 2
 193 200 l 1
 193 320 l 1
 68 320 l 2
 54.3828712355 320 43 331.382871236 43 345 c 0
 43 358.617128764 54.3828712355 370 68 370 c 2
 193 370 l 1
 193 507 l 2
 193 520.617128764 204.382871236 532 218 532 c 0
EndSplineSet
Refer: 153 -1 S 1 0 0 1 118 650 2
Refer: 153 -1 S 1 0 0 1 309 650 2
Ligature2: "Ligature Substitution lookup 192 subtable" p i p i
Ligature2: "Ligature Substitution lookup 123 subtable" p i p i tp_space
Ligature2: "tokiponaWords subtable" percent p i p i space
LCarets2: 5 0 0 0 0 0
EndChar

StartChar: tp_poka
Encoding: 61010 61010 82
Width: 550
VWidth: 0
Flags: W
HStem: 0 21G<74.635 477.566> 235 50<250.204 445> 512 20G<73.1914 86.8086 463.191 476.809>
VStem: 55 50<50 531.796> 445 50<50 235 285 531.796>
LayerCount: 2
Back
SplineSet
275 260 m 5
 470 260 l 1028
80 507 m 5
 80 25 l 5
 470 25 l 5
 470 507 l 1029
EndSplineSet
Fore
SplineSet
80 532 m 0
 93.6171287645 532 105 520.617128764 105 507 c 2
 105 50 l 1
 445 50 l 1
 445 235 l 1
 275 235 l 2
 261.382871236 235 250 246.382871236 250 260 c 0
 250 273.617128764 261.382871236 285 275 285 c 2
 445 285 l 1
 445 507 l 2
 445 520.617128764 456.382871236 532 470 532 c 0
 483.617128764 532 495 520.617128764 495 507 c 2
 495 260 l 1
 495 25 l 2
 495 14.2700956673 485.132537856 0 470 0 c 2
 80 0 l 2
 69.2700956673 0 55 9.86746214447 55 25 c 2
 55 507 l 2
 55 520.617128764 66.3828712355 532 80 532 c 0
EndSplineSet
Ligature2: "Ligature Substitution lookup 193 subtable" p o k a
Ligature2: "Ligature Substitution lookup 124 subtable" p o k a tp_space
Ligature2: "tokiponaWords subtable" percent p o k a space
LCarets2: 5 0 0 0 0 0
EndChar

StartChar: tp_poki
Encoding: 61011 61011 83
Width: 550
VWidth: 0
Flags: W
HStem: 0 21G<74.635 477.566> 512 20G<73.1914 86.8086 463.191 476.809>
VStem: 55 50<50 531.796> 445 50<50 531.796>
LayerCount: 2
Back
SplineSet
80 507 m 5
 80 25 l 5
 470 25 l 5
 470 507 l 1029
EndSplineSet
Fore
SplineSet
80 532 m 0
 93.6171287645 532 105 520.617128764 105 507 c 2
 105 50 l 1
 445 50 l 1
 445 507 l 2
 445 520.617128764 456.382871236 532 470 532 c 0
 483.617128764 532 495 520.617128764 495 507 c 2
 495 25 l 2
 495 14.2700956673 485.132537856 0 470 0 c 2
 80 0 l 2
 69.2700956673 0 55 9.86746214447 55 25 c 2
 55 507 l 2
 55 520.617128764 66.3828712355 532 80 532 c 0
EndSplineSet
Ligature2: "Ligature Substitution lookup 194 subtable" p o k i
Ligature2: "Ligature Substitution lookup 125 subtable" p o k i tp_space
Ligature2: "tokiponaWords subtable" percent p o k i space
LCarets2: 5 0 0 0 0 0
EndChar

StartChar: tp_pona
Encoding: 61012 61012 84
Width: 560
VWidth: 0
Flags: W
HStem: -12 21G<202.002 337.998> 512 20G<68.1914 81.8086 458.191 471.809>
VStem: 50 50<146.471 531.796> 440 50<146.471 531.796>
LayerCount: 2
Back
Refer: 13 60941 N 1 0 0 -1 0 520 2
Fore
SplineSet
75 532 m 0
 88.6171875 532 100 520.6171875 100 507 c 2
 100 260 l 2
 100 121.923828125 169.995117188 38 270 38 c 0
 370.004882812 38 440 121.923828125 440 260 c 2
 440 507 l 2
 440 520.6171875 451.3828125 532 465 532 c 0
 478.6171875 532 490 520.6171875 490 507 c 2
 490 260 l 2
 490 106.076171875 405.995117188 -12 270 -12 c 0
 134.004882812 -12 50 106.076171875 50 260 c 2
 50 507 l 2
 50 520.6171875 61.3828125 532 75 532 c 0
EndSplineSet
Ligature2: "Ligature Substitution lookup 195 subtable" p o n a
Ligature2: "Ligature Substitution lookup 126 subtable" p o n a tp_space
Ligature2: "tokiponaWords subtable" percent p o n a space
LCarets2: 5 0 0 0 0 0
EndChar

StartChar: tp_pu
Encoding: 61013 61013 85
Width: 820
VWidth: 0
Flags: HW
LayerCount: 2
Back
SplineSet
311.772460938 210.55078125 m 29
 311.772460938 210.55078125 315.782226562 120.337890625 408 120.337890625 c 4
 500.217773438 120.337890625 496.208007812 210.55078125 496.208007812 210.55078125 c 1053
  Spiro
    311.773 210.55 {
    316.216 187.202 o
    342.109 143.686 o
    408 120.338 o
    471.815 143.686 o
    493.841 187.202 o
    496.208 210.55 v
    0 0 z
  EndSpiro
614 586 m 29
 560 478 l 1053
408 600 m 29
 410 502 l 1053
194 578 m 5
 248 472 l 1053
207.52734375 200.52734375 m 4
 207.52734375 310.786132812 297.740234375 401 408 401 c 4
 518.260742188 401 608.473632812 310.786132812 608.473632812 200.52734375 c 4
 608.473632812 90.265625 518.260742188 0.0537109375 408 0.0537109375 c 4
 297.740234375 0.0537109375 207.52734375 90.265625 207.52734375 200.52734375 c 4
  Spiro
    207.527 200.527 o
    234.947 301.417 o
    307.111 373.58 o
    408 401 o
    508.89 373.58 o
    581.054 301.417 o
    608.474 200.527 o
    581.054 99.6366 o
    508.89 27.4732 o
    408 0.053269 o
    307.111 27.4732 o
    234.947 99.6366 o
    0 0 z
  EndSpiro
100 700 m 5
 100 -100 l 5
 720 -100 l 5
 720 700 l 5
 100 700 l 5
EndSplineSet
Fore
SplineSet
125 675 m 1
 125 -75 l 1
 695 -75 l 1
 695 675 l 1
 125 675 l 1
75 700 m 2
 75 710.729904333 84.8674621445 725 100 725 c 2
 720 725 l 2
 730.729904333 725 745 715.132537856 745 700 c 2
 745 -100 l 2
 745 -110.729904333 735.132537856 -125 720 -125 c 2
 100 -125 l 2
 89.2700956673 -125 75 -115.132537856 75 -100 c 2
 75 700 l 2
182.52734375 200.52734375 m 0
 182.52734375 324.630272525 283.895969415 426 408 426 c 0
 532.104916491 426 633.473632812 324.630324192 633.473632812 200.52734375 c 0
 633.473632812 76.4214816631 532.104752244 -24.9462890625 408 -24.9462890625 c 0
 283.896125629 -24.9462890625 182.52734375 76.4215413621 182.52734375 200.52734375 c 0
232.52734375 200.52734375 m 0
 232.52734375 104.109708638 311.584343121 25.0537109375 408 25.0537109375 c 0
 504.416732131 25.0537109375 583.473632812 104.109768337 583.473632812 200.52734375 c 0
 583.473632812 296.941941433 504.416567884 376 408 376 c 0
 311.584499335 376 232.52734375 296.9419931 232.52734375 200.52734375 c 0
182.651855465 600.275987421 m 0
 186.198803842 602.082923387 190.017176108 602.936441216 193.799586697 602.936441216 c 0
 202.956044711 602.936441216 211.901757572 597.934595721 216.275987421 589.348144535 c 2
 270.275987421 483.348144535 l 2
 272.082923387 479.801196158 272.936441216 475.982823892 272.936441216 472.200413303 c 0
 272.936441216 463.043955289 267.934595721 454.098242428 259.348144535 449.724012579 c 0
 255.801196158 447.917076613 251.982823892 447.063558784 248.200413303 447.063558784 c 0
 239.043955289 447.063558784 230.098242428 452.065404279 225.724012579 460.651855465 c 2
 171.724012579 566.651855465 l 2
 169.917076613 570.198803842 169.063558784 574.017176108 169.063558784 577.799586697 c 0
 169.063558784 586.956044711 174.065404279 595.901757572 182.651855465 600.275987421 c 0
407.987957398 624.999878808 m 0
 421.386245299 624.999878808 432.720347071 613.958068973 432.994795462 600.510097867 c 2
 434.994795462 502.510097867 l 2
 435.272638195 488.895803937 424.124391796 477.283047272 410.510097867 477.005204538 c 0
 410.343775044 477.001810195 410.17775095 477.000121192 410.012042602 477.000121192 c 0
 396.613754701 477.000121192 385.279652929 488.041931027 385.005204538 501.489902133 c 2
 383.005204538 599.489902133 l 2
 382.725367879 613.201898454 394.025548344 624.999878808 407.987957398 624.999878808 c 0
625.180339887 608.360679775 m 0
 633.858712831 604.021493303 638.93795364 595.020536191 638.93795364 585.798134457 c 0
 638.93795364 582.077497048 638.111258418 578.320817399 636.360679775 574.819660113 c 2
 582.360679775 466.819660113 l 2
 578.021493303 458.141287169 569.020536191 453.06204636 559.798134457 453.06204636 c 0
 556.077497048 453.06204636 552.320817399 453.888741582 548.819660113 455.639320225 c 0
 540.141287169 459.978506697 535.06204636 468.979463809 535.06204636 478.201865543 c 0
 535.06204636 481.922502952 535.888741582 485.679182601 537.639320225 489.180339887 c 2
 591.639320225 597.180339887 l 2
 595.978506697 605.858712831 604.979463809 610.93795364 614.201865543 610.93795364 c 0
 617.922502952 610.93795364 621.679182601 610.111258418 625.180339887 608.360679775 c 0
310.586089957 235.522615862 m 0
 310.974614831 235.541074043 311.360480656 235.550173602 311.743567769 235.550173602 c 0
 325.332189939 235.550173602 335.424588303 224.100947653 336.680134327 212.764605689 c 0
 337.158301571 205.219903828 341.509056458 145.337890625 408 145.337890625 c 0
 473.196258358 145.337890625 471.389298674 203.183266307 471.20220224 210.54922072 c 0
 471.503167626 224.554182821 482.153407864 234.990742071 495.174671036 235.529416423 c 0
 495.53312781 235.544245358 495.890391354 235.551609886 496.246287218 235.551609886 c 0
 508.660478515 235.551609886 521.173239291 225.895317007 521.173239291 210.857433689 c 0
 521.173239291 197.183016653 517.496609201 95.337890625 408 95.337890625 c 0
 293.070843855 95.337890625 286.864783976 208.013754736 286.763340725 210.149026186 c 0
 286.950319141 222.321789029 296.411632206 234.84921058 310.586089957 235.522615862 c 0
EndSplineSet
Validated: 33
Ligature2: "Ligature Substitution lookup 35 subtable" p u
Ligature2: "Ligature Substitution lookup 22 subtable" p u tp_space
Ligature2: "tokiponaWords subtable" percent p u space
EndChar

StartChar: tp_sama
Encoding: 61014 61014 86
Width: 430
VWidth: 0
Flags: HW
HStem: 150 50<43.2041 386.796> 320 50<43.2041 386.796>
LayerCount: 2
Back
SplineSet
362 345 m 5
 68 345 l 1029
362 175 m 1
 68 175 l 1025
EndSplineSet
Fore
SplineSet
387 345 m 0
 387 331.382871236 375.617128764 320 362 320 c 2
 68 320 l 2
 54.3828712355 320 43 331.382871236 43 345 c 0
 43 358.617128764 54.3828712355 370 68 370 c 2
 362 370 l 2
 375.617128764 370 387 358.617128764 387 345 c 0
387 175 m 0
 387 161.382871236 375.617128764 150 362 150 c 2
 68 150 l 2
 54.3828712355 150 43 161.382871236 43 175 c 0
 43 188.617128764 54.3828712355 200 68 200 c 2
 362 200 l 2
 375.617128764 200 387 188.617128764 387 175 c 0
EndSplineSet
Ligature2: "Ligature Substitution lookup 196 subtable" s a m a
Ligature2: "Ligature Substitution lookup 127 subtable" s a m a tp_space
Ligature2: "tokiponaWords subtable" percent s a m a space
LCarets2: 5 0 0 0 0 0
EndChar

StartChar: tp_seli
Encoding: 61015 61015 87
Width: 550
VWidth: 0
Flags: W
HStem: -14 82<238.953 311.047> 235 21G<268.191 281.809> 512 20G<268.191 281.809>
VStem: 234 82<-9.0471 63.0471> 250 50<235.204 531.796>
DStem2: 89.9407 417.983 46.0593 394.017 0.479339 -0.87763<-24.7959 227.615> 362.84 239.983 406.722 216.017 0.479339 0.87763<-24.7959 227.615>
LayerCount: 2
Back
SplineSet
482 406 m 5
 384.781002638 228 l 1029
165.218997362 228 m 5
 68 406 l 1029
275 260 m 29
 275 507 l 1029
EndSplineSet
Refer: 153 -1 S 1 0 0 1 275 27 2
Fore
SplineSet
493.983469632 427.940748747 m 0xe0
 505.934269667 421.413530786 510.467966708 405.967330403 503.940748747 394.016530368 c 2
 406.721751385 216.016530368 l 2
 400.194533424 204.065730333 384.748333041 199.532033292 372.797533006 206.059251253 c 0
 360.846732971 212.586469214 356.31303593 228.032669597 362.840253891 239.983469632 c 2
 460.059251253 417.983469632 l 2
 466.586469214 429.934269667 482.032669597 434.467966708 493.983469632 427.940748747 c 0xe0
177.202466994 206.059251253 m 0
 165.251666959 199.532033292 149.805466576 204.065730333 143.278248615 216.016530368 c 2
 46.0592512531 394.016530368 l 2
 39.532033292 405.967330403 44.0657303328 421.413530786 56.0165303678 427.940748747 c 0
 67.9673304028 434.467966708 83.4135307858 429.934269667 89.9407487469 417.983469632 c 2
 187.159746109 239.983469632 l 2
 193.68696407 228.032669597 189.153267029 212.586469214 177.202466994 206.059251253 c 0
275 235 m 0
 261.382871236 235 250 246.382871236 250 260 c 2
 250 507 l 2
 250 520.617128764 261.382871236 532 275 532 c 0
 288.617128764 532 300 520.617128764 300 507 c 2
 300 260 l 2xe8
 300 246.382871236 288.617128764 235 275 235 c 0
EndSplineSet
Refer: 153 -1 N 1 0 0 1 275 27 2
Ligature2: "Ligature Substitution lookup 197 subtable" s e l i
Ligature2: "Ligature Substitution lookup 128 subtable" s e l i tp_space
Ligature2: "tokiponaWords subtable" percent s e l i space
LCarets2: 5 0 0 0 0 0
EndChar

StartChar: tp_selo
Encoding: 61016 61016 88
Width: 640
VWidth: 0
Flags: W
HStem: -12 21G<73.1914 86.8086 233.191 246.809 393.191 406.809 553.191 566.809> 470 50<105 215 265 375 425 535>
VStem: 55 50<-11.7959 470> 215 50<-11.7959 470> 375 50<-11.7959 470> 535 50<-11.7959 470>
LayerCount: 2
Back
SplineSet
400 13 m 5
 400 495 l 1029
240 13 m 5
 240 495 l 1029
80 13 m 5
 80 495 l 5
 560 495 l 5
 560 13 l 1029
EndSplineSet
Fore
SplineSet
80 -12 m 0
 66.3828712355 -12 55 -0.617128764476 55 13 c 2
 55 495 l 2
 55 510.132537856 69.2700956673 520 80 520 c 2
 240 520 l 1
 400 520 l 1
 560 520 l 2
 575.132537856 520 585 505.729904333 585 495 c 2
 585 13 l 2
 585 -0.617128764476 573.617128764 -12 560 -12 c 0
 546.382871236 -12 535 -0.617128764476 535 13 c 2
 535 470 l 1
 425 470 l 1
 425 13 l 2
 425 -0.617128764476 413.617128764 -12 400 -12 c 0
 386.382871236 -12 375 -0.617128764476 375 13 c 2
 375 470 l 1
 265 470 l 1
 265 13 l 2
 265 -0.617128764476 253.617128764 -12 240 -12 c 0
 226.382871236 -12 215 -0.617128764476 215 13 c 2
 215 470 l 1
 105 470 l 1
 105 13 l 2
 105 -0.617128764476 93.6171287645 -12 80 -12 c 0
EndSplineSet
Ligature2: "Ligature Substitution lookup 198 subtable" s e l o
Ligature2: "Ligature Substitution lookup 129 subtable" s e l o tp_space
Ligature2: "tokiponaWords subtable" percent s e l o space
LCarets2: 5 0 0 0 0 0
EndChar

StartChar: tp_seme
Encoding: 61017 61017 89
Width: 550
VWidth: 0
Flags: W
HStem: -12 21G<204.613 345.388> 482 50<189.678 353.963> 678 50<174.863 359.834>
VStem: 43 50<146.908 373.092> 395 50<549.604 644.979> 457 50<147.927 372.073>
LayerCount: 2
Back
SplineSet
362 498 m 5
 385 526 420 552 420 607 c 7
 420 645.052595181 378 703 265 703 c 4
 174 703 139.586914062 661.778320312 122 642 c 1029
68 260 m 4
 68 406 151 507 275 507 c 4
 399 507 482 406 482 260 c 4
 482 114 399 13 275 13 c 4
 151 13 68 114 68 260 c 4
EndSplineSet
Fore
SplineSet
43 260 m 0
 43 415.278585301 134.22454825 532 275 532 c 0
 301.195390258 532 325.675121213 527.958378673 348.170649852 520.378771802 c 1
 372.809313625 548.926395486 394.999999996 566.797181907 395 607 c 0
 395 626.203278603 370.163000735 678 265 678 c 0
 182.758556971 678 157.392749934 644.180249956 140.682331743 625.387640727 c 0
 131.633826331 615.211652048 115.563629405 614.269162844 105.387640727 623.317668257 c 0
 95.2116520477 632.366173669 94.2691628443 648.436370595 103.317668257 658.612359273 c 0
 121.781078191 679.376390669 165.241443029 728 265 728 c 0
 385.836999265 728 445 663.901911758 445 607 c 0
 445 553.461714544 416.496663463 520.620639287 395.251523041 497.613889557 c 1
 465.485646237 451.952429809 507 364.749316803 507 260 c 0
 507 104.721414699 415.77545175 -12 275 -12 c 0
 134.225993246 -12 43 104.721488786 43 260 c 0
93 260 m 0
 93 123.278511214 167.774006754 38 275 38 c 0
 382.22454825 38 457 123.278585301 457 260 c 0
 457 396.721488786 382.225993246 482 275 482 c 0
 167.77545175 482 93 396.721414699 93 260 c 0
EndSplineSet
LCarets2: 5 0 0 0 0 0
Ligature2: "Ligature Substitution lookup 199 subtable" s e m e
Ligature2: "Ligature Substitution lookup 130 subtable" s e m e tp_space
Ligature2: "tokiponaWords subtable" percent s e m e space
EndChar

StartChar: tp_sewi
Encoding: 61018 61018 90
Width: 548
VWidth: 0
Flags: MW
HStem: -12 50<61.1914 87.3708 209.334 247.413 369.579 443.976> 512 20G<301.191 314.809> 707 20G<461.191 474.809>
VStem: 123 49.9996<66.7624 284.78> 283 50<66.809 531.796> 443 50<59.9867 726.796>
LayerCount: 2
Back
SplineSet
308 507 m 29
 308 260 l 1053
468 702 m 5
 468 702 468 325.080078125 468 260 c 7
 468 113.96875 468 13 388 13 c 7
 319 13 308 114.018554688 308 260 c 5
 308 114.018554688 307.146484375 13 228 13 c 7
 158.604492188 13 148.836914062 114 148 260 c 5
 147.836914062 114 145 13 68 13 c 1028
EndSplineSet
Fore
SplineSet
308 532 m 0
 321.617128764 532 333 520.617128764 333 507 c 2
 333 260 l 2
 333 102.860804758 351.340971199 38 388 38 c 0
 436.048432448 38 443 101.360096565 443 260 c 2
 443 702 l 2
 443 715.617128764 454.382871236 727 468 727 c 0
 481.617128764 727 493 715.617128764 493 702 c 2
 493 260 l 2
 493 126.577403435 499.951567552 -12 388 -12 c 0
 351.157294615 -12 324.917035238 10.8321905523 310.234625343 40.9879288449 c 1
 294.696759481 8.56543093966 266.825408134 -12 228 -12 c 0
 190.66767017 -12 164.476056707 11.0904844759 149.758859429 42.0761569311 c 1
 134.635699167 9.68732157133 106.741505458 -12 68 -12 c 0
 54.3828712355 -12 43 -0.617128764476 43 13 c 0
 43 26.6171287645 54.3828712355 38 68 38 c 0
 112.939427337 38 122.823255961 101.786772505 123.000015597 260.027925657 c 0
 123.014051497 272.593334095 133.00530584 283.822428475 145.895741979 284.911284555 c 0
 160.215150777 286.120846059 172.917215329 274.513472624 172.999589271 260.143304848 c 0
 173.902354203 102.65559369 190.953267305 38 228 38 c 0
 275.162138439 38 283 101.528187235 283 260 c 2
 283 507 l 2
 283 520.617128764 294.382871236 532 308 532 c 0
EndSplineSet
LCarets2: 5 0 0 0 0 0
Ligature2: "Ligature Substitution lookup 200 subtable" s e w i
Ligature2: "Ligature Substitution lookup 131 subtable" s e w i tp_space
Ligature2: "tokiponaWords subtable" percent s e w i space
EndChar

StartChar: tp_sijelo
Encoding: 61019 61019 91
Width: 480
VWidth: 0
Flags: W
HStem: -12 21G<73.1914 86.8086 233.191 246.809 393.191 406.809> 470 50<105 215 265 375>
VStem: 55 50<-11.7959 470> 215 50<-11.7959 470> 375 50<-11.7959 470>
CounterMasks: 1 38
LayerCount: 2
Back
SplineSet
240 13 m 5
 240 495 l 1029
80 13 m 5
 80 495 l 5
 400 495 l 5
 400 13 l 1029
EndSplineSet
Fore
SplineSet
80 -12 m 0
 66.3828712355 -12 55 -0.617128764476 55 13 c 2
 55 495 l 2
 55 510.132537856 69.2700956673 520 80 520 c 2
 240 520 l 1
 400 520 l 2
 415.132537856 520 425 505.729904333 425 495 c 2
 425 13 l 2
 425 -0.617128764476 413.617128764 -12 400 -12 c 0
 386.382871236 -12 375 -0.617128764476 375 13 c 2
 375 470 l 1
 265 470 l 1
 265 13 l 2
 265 -0.617128764476 253.617128764 -12 240 -12 c 0
 226.382871236 -12 215 -0.617128764476 215 13 c 2
 215 470 l 1
 105 470 l 1
 105 13 l 2
 105 -0.617128764476 93.6171287645 -12 80 -12 c 0
EndSplineSet
Ligature2: "Ligature Substitution lookup 264 subtable" s i j e l o
Ligature2: "Ligature Substitution lookup 253 subtable" s i j e l o tp_space
Ligature2: "tokiponaWords subtable" percent s i j e l o space
LCarets2: 7 0 0 0 0 0 0 0
EndChar

StartChar: tp_sike
Encoding: 61020 61020 92
Width: 550
VWidth: 0
Flags: W
HStem: -12 21G<204.613 345.388> 140 50<225.155 324.845> 330 50<225.155 324.845> 482 50<189.678 360.322>
VStem: 43 50<146.908 373.092> 155 50<210.155 309.845> 345 50<210.155 309.845> 457 50<146.908 373.092>
LayerCount: 2
Back
SplineSet
180 260 m 4
 180 312 223 355 275 355 c 4
 327 355 370 312 370 260 c 4
 370 208 327 165 275 165 c 4
 223 165 180 208 180 260 c 4
EndSplineSet
Refer: 12 60940 S 1 0 0 1 0 0 2
Fore
SplineSet
205 260 m 0
 205 221.890934342 236.890947401 190 275 190 c 0
 313.109065658 190 345 221.890947401 345 260 c 0
 345 298.109065658 313.109052599 330 275 330 c 0
 236.890934342 330 205 298.109052599 205 260 c 0
155 260 m 0
 155 325.890947401 209.109065658 380 275 380 c 0
 340.890947401 380 395 325.890934342 395 260 c 0
 395 194.109052599 340.890934342 140 275 140 c 0
 209.109052599 140 155 194.109065658 155 260 c 0
EndSplineSet
Refer: 12 60940 N 1 0 0 1 0 0 2
Ligature2: "Ligature Substitution lookup 201 subtable" s i k e
Ligature2: "Ligature Substitution lookup 132 subtable" s i k e tp_space
Ligature2: "tokiponaWords subtable" percent s i k e space
LCarets2: 5 0 0 0 0 0
EndChar

StartChar: tp_sin
Encoding: 61021 61021 93
Width: 550
VWidth: 0
Flags: W
HStem: 235 50<43.2041 202.796 347.204 506.796> 372 21G<268.191 281.809> 512 20G<268.191 281.809>
VStem: 250 50<372.204 531.796>
LayerCount: 2
Back
SplineSet
275 397 m 5
 275 507 l 1029
372 260 m 5
 482 260 l 1029
68 260 m 5
 178 260 l 1029
EndSplineSet
Fore
SplineSet
275 372 m 0
 261.382871236 372 250 383.382871236 250 397 c 2
 250 507 l 2
 250 520.617128764 261.382871236 532 275 532 c 0
 288.617128764 532 300 520.617128764 300 507 c 2
 300 397 l 2
 300 383.382871236 288.617128764 372 275 372 c 0
347 260 m 0
 347 273.617128764 358.382871236 285 372 285 c 2
 482 285 l 2
 495.617128764 285 507 273.617128764 507 260 c 0
 507 246.382871236 495.617128764 235 482 235 c 2
 372 235 l 2
 358.382871236 235 347 246.382871236 347 260 c 0
43 260 m 0
 43 273.617128764 54.3828712355 285 68 285 c 2
 178 285 l 2
 191.617128764 285 203 273.617128764 203 260 c 0
 203 246.382871236 191.617128764 235 178 235 c 2
 68 235 l 2
 54.3828712355 235 43 246.382871236 43 260 c 0
EndSplineSet
LCarets2: 4 0 0 0 0
Ligature2: "Ligature Substitution lookup 77 subtable" s i n
Ligature2: "Ligature Substitution lookup 55 subtable" s i n tp_space
Ligature2: "tokiponaWords subtable" percent s i n space
EndChar

StartChar: tp_sina
Encoding: 61022 61022 94
Width: 550
VWidth: 0
Flags: W
HStem: -12 21G<213.332 351.711> 482 50<199.608 365.305> 708 20G<73.1914 86.8086>
VStem: 55 50<147.77 372.236 437.643 727.796> 457 50<144.55 375.45>
LayerCount: 2
Back
SplineSet
80 260 m 3
 80 379.46484375 80 581.272460938 80 703 c 1025
80 260 m 3
 80 114 163 13 281 13 c 3
 405 13 482 114 482 260 c 3
 482 406 405 507 281 507 c 3
 163 507 80 406.012695312 80 260 c 3
EndSplineSet
Fore
SplineSet
105 437.643413623 m 1
 144.73460369 496.056694843 206.009871406 532 281 532 c 0
 422.421792867 532 507 414.295384813 507 260 c 0
 507 105.704677082 422.421312821 -12 281 -12 c 0
 145.664758978 -12 55 105.077189935 55 260 c 2
 55 703 l 2
 55 716.617128764 66.3828712355 728 80 728 c 0
 93.6171287645 728 105 716.617128764 105 703 c 2
 105 437.643413623 l 1
105 260 m 2
 105 122.922810065 180.335241022 38 281 38 c 0
 387.578687179 38 457 122.295322918 457 260 c 0
 457 397.704615187 387.578207133 482 281 482 c 0
 180.33404197 482 105.000000908 397.089541446 105 260.000002479 c 2
 105 260 l 2
EndSplineSet
Ligature2: "Ligature Substitution lookup 202 subtable" s i n a
Ligature2: "Ligature Substitution lookup 133 subtable" s i n a tp_space
Ligature2: "tokiponaWords subtable" percent s i n a space
LCarets2: 5 0 0 0 0 0
EndChar

StartChar: tp_sinpin
Encoding: 61023 61023 95
Width: 448
VWidth: 0
Flags: WO
HStem: 0 21G<61.1914 373.365> 235 50<164.204 343> 470 50<43.2041 343>
VStem: 343 50<50 235 285 470>
LayerCount: 2
Back
SplineSet
189 260 m 5
 369 260 l 1029
68 495 m 5
 368 495 l 5
 368 25 l 5
 68 25 l 1029
EndSplineSet
Fore
SplineSet
43 495 m 0
 43 508.617128764 54.3828712355 520 68 520 c 2
 368 520 l 2
 383.132537856 520 393 505.729904333 393 495 c 2
 393 266.90562729 l 2
 393.650241543 264.70525321 394 262.386952323 394 260 c 0
 394 257.613047677 393.650241543 255.29474679 393 253.09437271 c 2
 393 25 l 2
 393 9.86746214447 378.729904333 0 368 0 c 2
 68 0 l 2
 54.3828712355 0 43 11.3828712355 43 25 c 0
 43 38.6171287645 54.3828712355 50 68 50 c 2
 343 50 l 1
 343 235 l 1
 189 235 l 2
 175.382871236 235 164 246.382871236 164 260 c 0
 164 273.617128764 175.382871236 285 189 285 c 2
 343 285 l 1
 343 470 l 1
 68 470 l 2
 54.3828712355 470 43 481.382871236 43 495 c 0
EndSplineSet
Ligature2: "Ligature Substitution lookup 265 subtable" s i n p i n
Ligature2: "Ligature Substitution lookup 254 subtable" s i n p i n tp_space
Ligature2: "tokiponaWords subtable" percent s i n p i n space
LCarets2: 7 0 0 0 0 0 0 0
EndChar

StartChar: tp_sitelen
Encoding: 61024 61024 96
Width: 550
VWidth: 0
Flags: W
HStem: 0 21G<74.635 477.566> 219 82<238.953 311.047> 470 50<105 445>
VStem: 55 50<50 470> 234 82<223.953 296.047> 445 50<50 470>
CounterMasks: 1 1c
LayerCount: 2
Back
SplineSet
80 495 m 5
 80 25 l 5
 470 25 l 5
 470 495 l 5
 80 495 l 5
EndSplineSet
Refer: 153 -1 S 1 0 0 1 275 260 2
Fore
SplineSet
55 495 m 2
 55 505.729904333 64.8674621445 520 80 520 c 2
 470 520 l 2
 480.729904333 520 495 510.132537856 495 495 c 2
 495 25 l 2
 495 14.2700956673 485.132537856 0 470 0 c 2
 80 0 l 2
 69.2700956673 0 55 9.86746214447 55 25 c 2
 55 495 l 2
105 470 m 1
 105 50 l 1
 445 50 l 1
 445 470 l 1
 105 470 l 1
EndSplineSet
Refer: 153 -1 N 1 0 0 1 275 260 2
Ligature2: "Ligature Substitution lookup 274 subtable" s i t e l e n
Ligature2: "Ligature Substitution lookup 270 subtable" s i t e l e n tp_space
Ligature2: "tokiponaWords subtable" percent s i t e l e n space
LCarets2: 8 0 0 0 0 0 0 0 0
EndChar

StartChar: tp_sona
Encoding: 61025 61025 97
Width: 550
VWidth: 0
Flags: W
HStem: 0 21G<74.635 477.566> 470 50<105 445>
VStem: 55 50<50 470> 250 50<572.204 727.796> 445 50<50 470>
DStem2: 98.1689 689.048 59.8311 656.952 0.641937 -0.766758<-24.7959 136.957> 378.609 601.464 419.391 572.536 0.578544 0.815652<-24.7959 130.233>
CounterMasks: 1 38
AnchorPoint: "Small" 275 260 basechar 0
LayerCount: 2
Back
SplineSet
399 587 m 29
 460 673 l 1029
275 597 m 5
 275 703 l 1029
79 673 m 5
 151 587 l 1029
80 25 m 5
 470 25 l 5
 470 495 l 5
 80 495 l 5
 80 25 l 5
EndSplineSet
Fore
SplineSet
384.536412048 566.608712067 m 0
 373.42958031 574.486813649 370.730610486 590.356756214 378.608712067 601.463587952 c 2
 439.608712067 687.463587952 l 2
 447.486813649 698.57041969 463.356756214 701.269389514 474.463587952 693.391287933 c 0
 485.57041969 685.513186351 488.269389514 669.643243786 480.391287933 658.536412048 c 2
 419.391287933 572.536412048 l 2
 411.513186351 561.42958031 395.643243786 558.730610486 384.536412048 566.608712067 c 0
275 572 m 0
 261.382871236 572 250 583.382871236 250 597 c 2
 250 703 l 2
 250 716.617128764 261.382871236 728 275 728 c 0
 288.617128764 728 300 716.617128764 300 703 c 2
 300 597 l 2
 300 583.382871236 288.617128764 572 275 572 c 0
62.9515835885 692.168941825 m 0
 73.3926215528 700.910275934 89.4276077152 699.489454376 98.1689418248 689.048416411 c 2
 170.168941825 603.048416411 l 2
 178.910275934 592.607378447 177.489454376 576.572392285 167.048416411 567.831058175 c 0
 156.607378447 559.089724066 140.572392285 560.510545624 131.831058175 570.951583589 c 2
 59.8310581752 656.951583589 l 2
 51.0897240655 667.392621553 52.5105456242 683.427607715 62.9515835885 692.168941825 c 0
80 0 m 2
 69.2700956673 0 55 9.86746214447 55 25 c 2
 55 495 l 2
 55 505.729904333 64.8674621445 520 80 520 c 2
 470 520 l 2
 480.729904333 520 495 510.132537856 495 495 c 2
 495 25 l 2
 495 14.2700956673 485.132537856 0 470 0 c 2
 80 0 l 2
105 50 m 1
 445 50 l 1
 445 470 l 1
 105 470 l 1
 105 50 l 1
EndSplineSet
Ligature2: "Ligature Substitution lookup 203 subtable" s o n a
Ligature2: "Ligature Substitution lookup 134 subtable" s o n a tp_space
Ligature2: "tokiponaWords subtable" percent s o n a space
LCarets2: 5 0 0 0 0 0
EndChar

StartChar: tp_soweli
Encoding: 61026 61026 98
Width: 550
VWidth: 0
Flags: W
HStem: -208 21G<268.191 281.809> 219 82<73.9529 146.047 245.953 318.047> 470 50<43.2041 364.567>
VStem: 69 82<223.953 296.047> 241 82<223.953 296.047> 250 50<-207.796 -8.32321> 457 50<147.06 370.647>
LayerCount: 2
Back
SplineSet
68 495 m 5
 275 495 l 7
 399 495 482 406 482 260 c 7
 482 114 399 12.7383958513 275 13 c 5
 275 -183 l 1029
EndSplineSet
Refer: 153 -1 S 1 0 0 1 282 260 2
Refer: 153 -1 S 1 0 0 1 110 260 2
Fore
SplineSet
43 495 m 0xf6
 43 508.617128764 54.3828712355 520 68 520 c 2
 275 520 l 2
 414.043869345 520 507 416.491639589 507 260 c 0
 507 113.799213651 426.150870003 2.06804172925 300 -10.7743997419 c 1
 300 -183 l 2
 300 -196.617128764 288.617128764 -208 275 -208 c 0
 261.382871236 -208 250 -196.617128764 250 -183 c 2
 250 13 l 2
 250 23.8274837157 259.937310784 38.0318335552 275.052742655 37.9999443642 c 0
 382.19334637 37.7739086672 457 123.240103184 457 260 c 0
 457 395.508360411 383.956130655 470 275 470 c 2
 68 470 l 2
 54.3828712355 470 43 481.382871236 43 495 c 0xf6
EndSplineSet
Refer: 153 -1 N 1 0 0 1 282 260 2
Refer: 153 -1 N 1 0 0 1 110 260 2
Ligature2: "Ligature Substitution lookup 266 subtable" s o w e l i
Ligature2: "Ligature Substitution lookup 255 subtable" s o w e l i tp_space
Ligature2: "tokiponaWords subtable" percent s o w e l i space
LCarets2: 7 0 0 0 0 0 0 0
EndChar

StartChar: tp_suli
Encoding: 61027 61027 99
Width: 540
VWidth: 0
Flags: W
HStem: 470 50<100.944 439.056>
LayerCount: 2
Back
SplineSet
63 495 m 5
 270 13 l 5
 477 495 l 5
 63 495 l 5
EndSplineSet
Fore
SplineSet
40.0287759573 485.134764778 m 2
 39.6644456988 485.983108665 38.2816428621 490.43906844 38.0770627014 493.038572864 c 0
 36.9496026972 507.364679847 48.6295961308 520 63 520 c 2
 477 520 l 2
 477.923268048 520 482.56328907 519.512223298 485.032570267 518.674412662 c 0
 498.64100512 514.057161508 505.641920619 498.338995453 499.971224043 485.134764778 c 2
 292.971224043 3.13476477833 l 2
 290.850304977 -1.80380038976 286.70797996 -6.4594487489 281.637080842 -9.12641745686 c 0
 268.918458641 -15.8155995192 252.699472533 -10.0694658962 247.028775957 3.13476477833 c 2
 40.0287759573 485.134764778 l 2
100.944468215 470 m 1
 270 76.3537858912 l 1
 439.055531785 470 l 1
 100.944468215 470 l 1
EndSplineSet
Ligature2: "Ligature Substitution lookup 204 subtable" s u l i
Ligature2: "Ligature Substitution lookup 135 subtable" s u l i tp_space
Ligature2: "tokiponaWords subtable" percent s u l i space
LCarets2: 5 0 0 0 0 0
EndChar

StartChar: tp_suno
Encoding: 61028 61028 100
Width: 550
VWidth: 0
Flags: W
HStem: 235 50<43.2041 158.38 391.62 506.796>
VStem: 250 50<35.2041 143.38 376.62 484.796>
LayerCount: 2
Back
SplineSet
68 260 m 5
 175 260 l 1053
482 260 m 5
 375 260 l 1029
175 260 m 4
 175 315 220 360 275 360 c 4
 330 360 375 315 375 260 c 4
 375 205 330 160 275 160 c 4
 220 160 175 205 175 260 c 4
275 60 m 29
 275 160 l 1053
275 460 m 29
 275 360 l 1053
EndSplineSet
Fore
SplineSet
275 485 m 0
 288.617128764 485 300 473.617128764 300 460 c 2
 300 382.480667684 l 1
 348.855054932 372.495652498 387.495643448 333.855238599 397.480674931 285 c 1
 482 285 l 2
 495.617128764 285 507 273.617128764 507 260 c 0
 507 246.382871236 495.617128764 235 482 235 c 2
 397.480667684 235 l 1
 387.495652498 186.144945068 348.855238599 147.504356552 300 137.519325069 c 1
 300 60 l 2
 300 46.3828712355 288.617128764 35 275 35 c 0
 261.382871236 35 250 46.3828712355 250 60 c 2
 250 137.519332316 l 1
 201.144945068 147.504347502 162.504356552 186.144761401 152.519325069 235 c 1
 68 235 l 2
 54.3828712355 235 43 246.382871236 43 260 c 0
 43 273.617128764 54.3828712355 285 68 285 c 2
 152.519332316 285 l 1
 162.504347502 333.855054932 201.144761401 372.495643448 250 382.480674931 c 1
 250 460 l 2
 250 473.617128764 261.382871236 485 275 485 c 0
275 335 m 0
 233.84455479 335 200 301.155851107 200 260 c 0
 200 218.84455479 233.844148893 185 275 185 c 0
 316.15544521 185 350 218.844148893 350 260 c 0
 350 301.15544521 316.155851107 335 275 335 c 0
EndSplineSet
Ligature2: "Ligature Substitution lookup 205 subtable" s u n o
Ligature2: "Ligature Substitution lookup 136 subtable" s u n o tp_space
Ligature2: "tokiponaWords subtable" percent s u n o space
LCarets2: 5 0 0 0 0 0
EndChar

StartChar: tp_supa
Encoding: 61029 61029 101
Width: 550
VWidth: 0
Flags: W
HStem: -12 21G<185.191 198.809 345.191 358.809> 470 50<43.2041 167 217 327 377 506.796>
VStem: 167 50<-11.7959 470> 327 50<-11.7959 470>
LayerCount: 2
Back
SplineSet
352 13 m 29
 352 495 l 1029
192 13 m 29
 192 495 l 1029
482 495 m 5
 68 495 l 1029
EndSplineSet
Fore
SplineSet
352 -12 m 0
 338.382871236 -12 327 -0.617128764476 327 13 c 2
 327 470 l 1
 217 470 l 1
 217 13 l 2
 217 -0.617128764476 205.617128764 -12 192 -12 c 0
 178.382871236 -12 167 -0.617128764476 167 13 c 2
 167 470 l 1
 68 470 l 2
 54.3828712355 470 43 481.382871236 43 495 c 0
 43 508.617128764 54.3828712355 520 68 520 c 2
 192 520 l 1
 352 520 l 1
 482 520 l 2
 495.617128764 520 507 508.617128764 507 495 c 0
 507 481.382871236 495.617128764 470 482 470 c 2
 377 470 l 1
 377 13 l 2
 377 -0.617128764476 365.617128764 -12 352 -12 c 0
EndSplineSet
Ligature2: "Ligature Substitution lookup 206 subtable" s u p a
Ligature2: "Ligature Substitution lookup 137 subtable" s u p a tp_space
Ligature2: "tokiponaWords subtable" percent s u p a space
LCarets2: 5 0 0 0 0 0
EndChar

StartChar: tp_suwi
Encoding: 61030 61030 102
Width: 550
VWidth: 0
Flags: W
HStem: 95 82<238.953 311.047>
VStem: 234 82<99.9529 172.047>
DStem2: 47.1987 301.868 88.8013 274.132 0.5547 0.83205<-24.7959 106.722> 168.801 421.868 148 362.931 0.5547 -0.83205<37.5 169.018> 301.199 301.868 342.801 274.132 0.5547 0.83205<-24.7959 106.722> 422.801 421.868 402 362.931 0.5547 -0.83205<37.5 169.018>
LayerCount: 2
Back
SplineSet
322 288 m 5
 402 408 l 5
 482 288 l 1029
68 288 m 5
 148 408 l 5
 228 288 l 1029
EndSplineSet
Refer: 153 -1 S 1 0 0 1 275 136 2
Fore
SplineSet
308.132495094 267.198742642 m 0
 296.802359098 274.752166639 293.645318644 290.537368909 301.198742642 301.867504906 c 2
 381.198742642 421.867504906 l 2
 389.170008488 433.824403675 406.162124989 436.533931081 417.456764236 427.649133298 c 0
 419.766263099 425.832392636 422.801257358 421.867504906 422.801257358 421.867504906 c 1
 502.801257358 301.867504906 l 2
 510.354681356 290.537368909 507.197640902 274.752166639 495.867504906 267.198742642 c 0
 484.537368909 259.645318644 468.752166639 262.802359098 461.198742642 274.132495094 c 2
 402 362.930609057 l 1
 342.801257358 274.132495094 l 2
 335.247833361 262.802359098 319.462631091 259.645318644 308.132495094 267.198742642 c 0
54.1324950944 267.198742642 m 0
 42.8023590979 274.752166639 39.6453186439 290.537368909 47.1987426416 301.867504906 c 2
 127.198742642 421.867504906 l 2
 135.170008488 433.824403675 152.162124989 436.533931081 163.456764236 427.649133298 c 0
 165.766263099 425.832392636 168.801257358 421.867504906 168.801257358 421.867504906 c 1
 248.801257358 301.867504906 l 2
 256.354681356 290.537368909 253.197640902 274.752166639 241.867504906 267.198742642 c 0
 230.537368909 259.645318644 214.752166639 262.802359098 207.198742642 274.132495094 c 2
 148 362.930609057 l 1
 88.8012573584 274.132495094 l 2
 81.2478333608 262.802359098 65.4626310909 259.645318644 54.1324950944 267.198742642 c 0
EndSplineSet
Refer: 153 -1 N 1 0 0 1 275 136 2
Ligature2: "Ligature Substitution lookup 207 subtable" s u w i
Ligature2: "Ligature Substitution lookup 138 subtable" s u w i tp_space
Ligature2: "tokiponaWords subtable" percent s u w i space
LCarets2: 5 0 0 0 0 0
EndChar

StartChar: tp_tan
Encoding: 61031 61031 103
Width: 550
VWidth: 0
Flags: MW
HStem: -12 50 482 50<307.363 392.585>
VStem: 445 49.9985<235.247 259.169>
DStem2: 88.9485 178.644 47.0515 151.356 0.545763 -0.837939<-24.7959 118.869> 202.949 62.7916 179.557 -8.61791 0.864716 0.50226<0 161.829>
LayerCount: 2
Back
SplineSet
334 110 m 5
 167 13 l 1029
68 165 m 5
 167 13 l 5
 198 128 194 507 354 507 c 7
 470.619037897 507 470 260 470 260 c 1029
EndSplineSet
Fore
SplineSet
54.3559200459 185.948486394 m 0
 65.7662495119 193.380214138 81.5167586499 190.05440942 88.9484863942 178.644079954 c 2
 153.822722892 79.0391915945 l 1
 173.398005906 217.292846781 183.536026633 532 354 532 c 0
 505.900820443 532 494.998549174 259.169437021 494.998549174 259.169437021 c 1
 494.064677468 244.739864255 482.991919602 234.976609184 469.955067458 235.000040379 c 0
 456.337960687 235.024514467 444.97556629 246.427825772 445.000040379 260.044932542 c 0
 445.022431842 272.503289875 435.321988953 482 354 482 c 0
 242.226449735 482 229.639879628 218.935783307 202.94862374 62.7915511071 c 1
 321.443489313 131.617910152 l 2
 333.218443959 138.457255067 348.778565238 134.331465334 355.617910152 122.556510687 c 0
 362.457255067 110.781556041 358.331465334 95.221434762 346.556510687 88.3820898476 c 2
 179.556510687 -8.61791015243 l 2
 172.569124046 -12.676452094 164.248842009 -12.8737697108 157.208926912 -9.90277398986 c 0
 152.777680317 -8.04713508293 148.838725832 -4.9234353295 146.051513606 -0.644079954092 c 2
 47.0515136058 151.355920046 l 2
 39.6197858615 162.766249512 42.9455905799 178.51675865 54.3559200459 185.948486394 c 0
EndSplineSet
LCarets2: 4 0 0 0 0
Ligature2: "Ligature Substitution lookup 78 subtable" t a n
Ligature2: "Ligature Substitution lookup 56 subtable" t a n tp_space
Ligature2: "tokiponaWords subtable" percent t a n space
EndChar

StartChar: tp_taso
Encoding: 61032 61032 104
Width: 355
VWidth: 0
Flags: W
HStem: -12 21G<268.191 281.809> 235 50<43.2041 250> 512 20G<268.191 281.809>
VStem: 250 50<-11.7959 235 285 531.796>
LayerCount: 2
Back
SplineSet
275 507 m 5
 275 13 l 1029
68 260 m 5
 275 260 l 1029
EndSplineSet
Fore
SplineSet
43 260 m 0
 43 273.617128764 54.3828712355 285 68 285 c 2
 250 285 l 1
 250 507 l 2
 250 520.617128764 261.382871236 532 275 532 c 0
 288.617128764 532 300 520.617128764 300 507 c 2
 300 260 l 1
 300 13 l 2
 300 -0.617128764476 288.617128764 -12 275 -12 c 0
 261.382871236 -12 250 -0.617128764476 250 13 c 2
 250 235 l 1
 68 235 l 2
 54.3828712355 235 43 246.382871236 43 260 c 0
EndSplineSet
Ligature2: "Ligature Substitution lookup 208 subtable" t a s o
Ligature2: "Ligature Substitution lookup 139 subtable" t a s o tp_space
Ligature2: "tokiponaWords subtable" percent t a s o space
LCarets2: 5 0 0 0 0 0
EndChar

StartChar: tp_tawa
Encoding: 61033 61033 105
Width: 654
VWidth: 0
Flags: HMW
HStem: 0 50<276 300.796> 235 50
DStem2: 45.0459 34.9053 106.017 50 0.396217 0.918157<38.017 466.038> 299.074 516.622 275.605 442.99 0.384881 -0.922966<58.927 475.568> 482.111 77.6885 505.041 3.29883 0.388057 0.921635<0 233.135>
LayerCount: 2
Back
Refer: 22 60950 S -1 0 0 1 654 0 2
Fore
SplineSet
301 25 m 0
 301 11.3828125 289.6171875 0 276 0 c 2
 68 0 l 2
 53.6298828125 0 41.94921875 12.6357421875 43.0771484375 26.9619140625 c 0
 43.283203125 29.5830078125 44.638671875 33.9599609375 45.0458984375 34.9052734375 c 2
 253.045898438 516.905273438 l 2
 258.740234375 530.099609375 274.96875 535.817382812 287.67578125 529.106445312 c 0
 292.885742188 526.354492188 297.303710938 520.8671875 299.07421875 516.622070312 c 2
 482.111328125 77.6884765625 l 1
 562.958984375 269.701171875 l 2
 568.243164062 282.250976562 583.151367188 288.325195312 595.701171875 283.041015625 c 0
 608.250976562 277.756835938 614.325195312 262.848632812 609.041015625 250.298828125 c 2
 505.041015625 3.298828125 l 2
 502.89453125 -1.798828125 498.642578125 -6.5625 493.40234375 -9.248046875 c 0
 480.614257812 -15.802734375 464.45703125 -9.8857421875 458.92578125 3.3779296875 c 2
 275.60546875 442.990234375 l 1
 106.016601562 50 l 1
 276 50 l 2
 289.6171875 50 301 38.6171875 301 25 c 0
EndSplineSet
Ligature2: "Ligature Substitution lookup 209 subtable" t a w a
Ligature2: "Ligature Substitution lookup 140 subtable" t a w a tp_space
Ligature2: "tokiponaWords subtable" percent t a w a space
LCarets2: 5 0 0 0 0 0
EndChar

StartChar: tp_telo
Encoding: 61034 61034 106
Width: 550
VWidth: 0
Flags: W
HStem: -13 21G<73.1914 86.8086 313.767 408.982> 194 50<136.821 223.027> 276 50<327.815 419.011> 482 50<136.821 223.027>
VStem: 55 50<-12.7959 157.943 275.204 445.943> 445 50<65.8169 243.796 353.817 531.796>
LayerCount: 2
Back
SplineSet
80 12 m 7
 80 158.00390625 111 219 191 219 c 7
 255 219 275 118 275 118 c 6
 275 118 295 13 359 13 c 7
 439 13 470 56.9970703125 470 219 c 1028
80 300 m 7
 80 446.00390625 111 507 191 507 c 7
 255 507 275 406 275 406 c 6
 275 406 295 301 359 301 c 7
 439 301 470 344.99691361 470 507 c 1028
EndSplineSet
Fore
SplineSet
80 -13 m 0
 66.3828712355 -13 55 -1.61712876448 55 12 c 0
 55 157.493640233 88.5791960061 244 191 244 c 0
 282.981333409 244 299.532328985 122.81387159 299.532328985 122.81387159 c 1
 301.189797155 114.198855683 323.266098353 38 359 38 c 0
 419.035902433 38 445 57.4185531392 445 219 c 0
 445 232.617128764 456.382871236 244 470 244 c 0
 483.617128764 244 495 232.617128764 495 219 c 0
 495 56.5755874859 458.964097567 -12 359 -12 c 0
 268.533980503 -12 250.489433544 113.075054321 250.489433544 113.075054321 c 1
 248.591787231 122.270971682 226.991566455 194 191 194 c 0
 133.420803994 194 105 158.514172267 105 12 c 0
 105 -1.61712876448 93.6171287645 -13 80 -13 c 0
80 275 m 0
 66.3828712355 275 55 286.382871236 55 300 c 0
 55 445.493640233 88.5791960061 532 191 532 c 0
 282.981333409 532 299.532328985 410.81387159 299.532328985 410.81387159 c 1
 301.189797155 402.198855683 323.266098353 326 359 326 c 0
 419.035925753 326 445 345.418404916 445 507 c 0
 445 520.617128764 456.382871236 532 470 532 c 0
 483.617128764 532 495 520.617128764 495 507 c 0
 495 344.575422303 458.964074247 276 359 276 c 0
 268.533980503 276 250.489433544 401.075054321 250.489433544 401.075054321 c 1
 248.591787231 410.270971682 226.991566455 482 191 482 c 0
 133.420803994 482 105 446.514172267 105 300 c 0
 105 286.382871236 93.6171287645 275 80 275 c 0
EndSplineSet
LCarets2: 5 0 0 0 0 0
Ligature2: "Ligature Substitution lookup 210 subtable" t e l o
Ligature2: "Ligature Substitution lookup 141 subtable" t e l o tp_space
Ligature2: "tokiponaWords subtable" percent t e l o space
EndChar

StartChar: tp_tenpo
Encoding: 61035 61035 107
Width: 550
VWidth: 0
Flags: W
HStem: -12 21G<204.613 345.388> 235 50<300 456.136> 480.392 51.6083<190.166 250 300 359.834>
VStem: 43 50<147.927 373.24> 250 50<285 480.392> 456.136 50.8642<145.889 235 285 373.47>
LayerCount: 2
Back
SplineSet
470 260 m 5
 275 260 l 5
 275 495 l 1029
EndSplineSet
Refer: 12 60940 S 1 0 0 1 0 0 2
Fore
SplineSet
43 260 m 0
 43 415.278320312 134.224609375 532 275 532 c 0
 415.774414062 532 507 415.278320312 507 260 c 0
 507 104.721679688 415.775390625 -12 275 -12 c 0
 134.225585938 -12 43 104.721679688 43 260 c 0
93 260 m 0
 93 123.278320312 167.774414062 38 275 38 c 0
 375.529717122 38 447.535841918 112.961559523 456.135765835 235 c 1
 275 235 l 2
 259.867462144 235 250 249.270095667 250 260 c 2
 250 480.391729131 l 1
 156.330098333 468.078466619 93 385.823893882 93 260 c 0
300 480.391755129 m 1
 300 285 l 1
 456.135776544 285 l 1
 448.267073016 396.663299305 387.315478525 468.913979666 300 480.391755129 c 1
EndSplineSet
Ligature2: "Ligature Substitution lookup 243 subtable" t e n p o
Ligature2: "Ligature Substitution lookup 230 subtable" t e n p o tp_space
Ligature2: "tokiponaWords subtable" percent t e n p o space
LCarets2: 6 0 0 0 0 0 0
EndChar

StartChar: tp_toki
Encoding: 61036 61036 108
Width: 550
VWidth: 0
Flags: W
HStem: -12 21G<204.613 345.388> 482 50<189.678 360.322>
VStem: 43 50<146.908 373.092> 247 50<590.204 754.796> 457 50<146.908 373.092>
DStem2: 99.577 700.198 58.423 671.802 0.567925 -0.82308<-24.7959 146.291> 380.763 601.967 419.237 570.033 0.638669 0.769481<-24.7959 154.754>
LayerCount: 2
Back
SplineSet
483 686 m 5
 400 586 l 1053
272 730 m 29
 272 615 l 1028
79 686 m 5
 148 586 l 1053
EndSplineSet
Refer: 12 60940 S 1 0 0 1 0 0 2
Fore
SplineSet
498.966735582 705.237030822 m 0
 509.444860612 696.540187047 510.933874597 680.511389448 502.237030822 670.033264418 c 2
 419.237030822 570.033264418 l 2
 410.540187047 559.555139388 394.511389448 558.066125403 384.033264418 566.762969178 c 0
 373.555139388 575.459812953 372.066125403 591.488610552 380.762969178 601.966735582 c 2
 463.762969178 701.966735582 l 2
 472.459812953 712.444860612 488.488610552 713.933874597 498.966735582 705.237030822 c 0
272 755 m 0
 285.617128764 755 297 743.617128764 297 730 c 2
 297 615 l 2
 297 601.382871236 285.617128764 590 272 590 c 0
 258.382871236 590 247 601.382871236 247 615 c 2
 247 730 l 2
 247 743.617128764 258.382871236 755 272 755 c 0
64.8018680065 706.577002889 m 0
 76.0098559236 714.310514552 91.8434912263 711.406119911 99.5770028891 700.198131993 c 2
 168.577002889 600.198131993 l 2
 176.310514552 588.990144076 173.406119911 573.156508774 162.198131993 565.422997111 c 0
 150.990144076 557.689485448 135.156508774 560.593880089 127.422997111 571.801868007 c 2
 58.4229971109 671.801868007 l 2
 50.6894854481 683.009855924 53.5938800895 698.843491226 64.8018680065 706.577002889 c 0
EndSplineSet
Refer: 12 60940 N 1 0 0 1 0 0 2
Ligature2: "Ligature Substitution lookup 211 subtable" t o k i
Ligature2: "Ligature Substitution lookup 142 subtable" t o k i tp_space
Ligature2: "tokiponaWords subtable" percent t o k i space
LCarets2: 5 0 0 0 0 0
EndChar

StartChar: tp_tomo
Encoding: 61037 61037 109
Width: 550
VWidth: 0
Flags: W
HStem: 0 21G<72.4336 475.365>
VStem: 55 50<50 251.321> 445 50<50 251.321>
LayerCount: 2
Back
SplineSet
80 25 m 1
 80 260 l 1
 275 507 l 1
 470 260 l 1
 470 25 l 1
 80 25 l 1
EndSplineSet
Fore
SplineSet
105 50 m 1
 445 50 l 1
 445 251.321289062 l 1
 275 466.654296875 l 1
 105 251.321289062 l 1
 105 50 l 1
55 25 m 2
 55 260 l 2
 55 265.638671875 57.248046875 271.526367188 60.3779296875 275.491210938 c 2
 255.377929688 522.491210938 l 2
 265.250976562 534.997070312 284.802734375 534.928710938 294.622070312 522.491210938 c 2
 489.622070312 275.491210938 l 2
 493.116210938 271.065429688 495 265.05078125 495 260 c 2
 495 25 l 2
 495 9.8671875 480.729492188 0 470 0 c 2
 80 0 l 2
 64.8671875 0 55 14.2705078125 55 25 c 2
EndSplineSet
Ligature2: "Ligature Substitution lookup 212 subtable" t o m o
Ligature2: "Ligature Substitution lookup 143 subtable" t o m o tp_space
Ligature2: "tokiponaWords subtable" percent t o m o space
LCarets2: 5 0 0 0 0 0
EndChar

StartChar: tp_tu
Encoding: 61038 61038 110
Width: 320
VWidth: 0
Flags: W
HStem: -12 21G<73.1914 86.8086 233.191 246.809> 512 20G<73.1914 86.8086 233.191 246.809>
VStem: 55 50<-11.7959 531.796> 215 50<-11.7959 531.796>
LayerCount: 2
Back
SplineSet
240 507 m 5
 240 13 l 1029
80 507 m 1
 80 13 l 1025
EndSplineSet
Fore
SplineSet
240 532 m 0
 253.6171875 532 265 520.6171875 265 507 c 2
 265 13 l 2
 265 -0.6171875 253.6171875 -12 240 -12 c 0
 226.3828125 -12 215 -0.6171875 215 13 c 2
 215 507 l 2
 215 520.6171875 226.3828125 532 240 532 c 0
80 532 m 0
 93.6171875 532 105 520.6171875 105 507 c 2
 105 13 l 2
 105 -0.6171875 93.6171875 -12 80 -12 c 0
 66.3828125 -12 55 -0.6171875 55 13 c 2
 55 507 l 2
 55 520.6171875 66.3828125 532 80 532 c 0
EndSplineSet
Ligature2: "Ligature Substitution lookup 36 subtable" t u
Ligature2: "Ligature Substitution lookup 23 subtable" t u tp_space
Ligature2: "tokiponaWords subtable" percent t u space
LCarets2: 3 0 0 0
EndChar

StartChar: tp_unpa
Encoding: 61039 61039 111
Width: 550
VWidth: 0
Flags: W
HStem: -12 21G<255.977 294.377> 150 50<204.704 344.004> 482 50<127.342 213.392 335.042 418.798>
VStem: 43 50<285.635 443.932> 148 50<58.6578 163.333> 350 50<56.4482 162.755> 457 50<286.909 437.128>
LayerCount: 2
Back
SplineSet
68 348 m 7
 68 260.09469928 175.000091602 174.138136279 275 175 c 7
 375 175 482 259 482 348 c 7
 482 445 431 507 369 507 c 7
 313 507 173 329.012695312 173 155 c 7
 173 12.873046875 243 13 275 13 c 7
 307 13 375 12.78125 375 159 c 7
 375 329.013671875 239 507 177 507 c 7
 107 507 68 441 68 348 c 7
EndSplineSet
Fore
SplineSet
43 348.000001435 m 0
 43 445.294700087 86.0275818246 532 177 532 c 0
 211.651714333 532 244.194265768 504.94251783 274.65871491 471.074476392 c 1
 304.501697188 504.637166266 335.5899773 532 369 532 c 0
 450.522493398 532 507 452.02297116 507 348 c 0
 507 280.49042765 458.465771492 221.173863035 398.981102516 185.817993421 c 1
 399.645222379 176.901134963 400 167.884631145 400 159 c 0
 400 -0.633016491979 313.754877534 -12 275 -12 c 0
 236.95349867 -12 148 -1.48965596959 148 155 c 0
 148 165.343406131 148.503394462 176.185162328 149.397534913 186.712263395 c 1
 90.710977862 222.492982002 43 281.769025781 43 348.000001435 c 0
391.028146626 240.401284417 m 1
 431.697255683 270.149459896 457 310.820765476 457 348 c 0
 457 437.97702884 411.477506602 482 369 482 c 0
 364.723914241 482 336.843921077 467.392377405 306.274494309 431.186419271 c 1
 342.721716802 379.371488519 375.717335804 311.892121746 391.028146626 240.401284417 c 1
198.118018968 163.518249309 m 1
 198.048231471 160.675091325 198 157.481734705 198 155 c 0
 198 27.2357497196 249.04650133 38 275 38 c 0
 300.245122466 38 350 26.195516492 350 159 c 0
 350 160.035339707 349.987787113 161.712723761 349.973512159 163.070705442 c 1
 325.924108171 154.79873645 300.268885454 150 275.107731063 150 c 0
 249.088436414 149.775748934 222.816695113 154.77003844 198.118018968 163.518249309 c 1
345.082713728 214.648447139 m 1
 334.17886846 277.47022959 306.455163239 340.01635435 274.784504566 388.571922923 c 1
 243.341546382 340.358969808 215.225905631 278.111462643 203.608089126 214.997042439 c 1
 226.960466869 205.214461158 251.475625595 199.798180262 274.892268937 200 c 0
 297.926103826 200 322.08319496 205.280603687 345.082713728 214.648447139 c 1
243.207035407 431.082651816 m 1
 212.645693538 466.943285625 184.297149032 482 177 482 c 0
 127.972418175 482 93 436.705300563 93 347.999998503 c 0
 92.9999958645 311.881525107 117.873175254 271.216075734 157.910517856 241.214615635 c 1
 174.011637452 312.858756935 207.297831787 379.912339611 243.207035407 431.082651816 c 1
EndSplineSet
LCarets2: 5 0 0 0 0 0
Ligature2: "Ligature Substitution lookup 213 subtable" u n p a
Ligature2: "Ligature Substitution lookup 144 subtable" u n p a tp_space
Ligature2: "tokiponaWords subtable" percent u n p a space
EndChar

StartChar: tp_uta
Encoding: 61040 61040 112
Width: 550
VWidth: 0
Flags: W
HStem: -12 21G<204.009 345.991> 470 50<105 445>
VStem: 55 50<140.295 470> 445 50<140.295 470>
LayerCount: 2
Back
SplineSet
275 13 m 3
 399 13 470 113 470 260 c 0
 470 495 l 1
 80 495 l 1
 80 260 l 3
 80 113 151 13 275 13 c 3
EndSplineSet
Fore
SplineSet
275 -12 m 0
 133.018554688 -12 55 105.69140625 55 260 c 2
 55 495 l 2
 55 505.729492188 64.8671875 520 80 520 c 2
 470 520 l 2
 480.729492188 520 495 510.1328125 495 495 c 2
 495 260 l 2
 495 105.69140625 416.981445312 -12 275 -12 c 0
275 38 m 0
 381.018554688 38 445 120.30859375 445 260 c 2
 445 470 l 1
 105 470 l 1
 105 260 l 2
 105 120.30859375 168.981445312 38 275 38 c 0
EndSplineSet
LCarets2: 4 0 0 0 0
Ligature2: "Ligature Substitution lookup 79 subtable" u t a
Ligature2: "Ligature Substitution lookup 57 subtable" u t a tp_space
Ligature2: "tokiponaWords subtable" percent u t a space
EndChar

StartChar: tp_utala
Encoding: 61041 61041 113
Width: 550
VWidth: 0
Flags: W
HStem: 131.271 93.8495<228.075 321.925>
VStem: 245.458 59.0834<148.654 207.738>
DStem2: 90.3823 231.137 45.6177 208.863 0.445483 -0.895291<-24.7959 186.703> 89.1565 520.319 46.8435 493.681 0.532768 -0.846261<-24.7959 348.826 428.248 539.237> 173.555 63.9836 192.157 -0.319196 0.532768 0.846261<0 110.99 190.411 564.033> 376.445 63.9836 401.382 1.86293 0.445483 0.895291<0 211.499>
LayerCount: 2
Back
SplineSet
482 507 m 5
 171 13 l 5
 68 220 l 1029
68 507 m 5
 379 13 l 5
 482 220 l 1029
EndSplineSet
Fore
SplineSet
54.6808041601 528.156536157 m 0
 66.2044552426 535.411304349 81.9017679657 531.842846923 89.1565361573 520.31919584 c 2
 275 225.12089636 l 1
 460.843463843 520.31919584 l 2
 468.098232034 531.842846923 483.795544757 535.411304349 495.31919584 528.156536157 c 0
 506.842846923 520.901767966 510.411304349 505.204455243 503.156536157 493.68080416 c 2
 304.541697911 178.196141479 l 1
 376.444746188 63.9835824797 l 1
 459.617736678 231.137068223 l 2
 465.68393236 243.328354691 480.945781755 248.448459004 493.137068223 242.382263322 c 0
 505.328354691 236.31606764 510.448459004 221.054218245 504.382263322 208.862931777 c 2
 401.382263322 1.86293177715 l 2
 399.662374065 -1.59354468959 397.072931453 -4.71027900844 393.938019476 -7.04633567816 c 0
 382.415061885 -15.6329505935 365.49955278 -12.4803146021 357.843463843 -0.319195839949 c 2
 275 131.271386598 l 1
 192.156536157 -0.319195839949 l 2
 184.50044722 -12.4803146021 167.584938115 -15.6329505935 156.061980524 -7.04633567816 c 0
 152.924358678 -4.7082596832 150.313481725 -1.54502185939 148.617736678 1.86293177715 c 2
 45.6177366784 208.862931777 l 2
 39.5515409964 221.054218245 44.6716453095 236.31606764 56.8629317772 242.382263322 c 0
 69.0542182448 248.448459004 84.3160676397 243.328354691 90.3822633216 231.137068223 c 2
 173.555253812 63.9835824797 l 1
 245.458302089 178.196141479 l 1
 46.8434638427 493.68080416 l 2
 39.588695651 505.204455243 43.1571530775 520.901767966 54.6808041601 528.156536157 c 0
EndSplineSet
Ligature2: "Ligature Substitution lookup 244 subtable" u t a l a
Ligature2: "Ligature Substitution lookup 231 subtable" u t a l a tp_space
Ligature2: "tokiponaWords subtable" percent u t a l a space
LCarets2: 6 0 0 0 0 0 0
EndChar

StartChar: tp_walo
Encoding: 61042 61042 114
Width: 550
VWidth: 0
Flags: W
HStem: 0 21G<67.5384 489.185>
DStem2: 45.0288 34.8652 105.944 50 0.394609 0.918849<37.9445 219.764 274.831 466.357> 86.5824 361.724 49.4176 328.276 0.668965 -0.743294<-24.7959 100.001> 297.971 516.865 275 443.646 0.394609 -0.918849<58.2126 249.738 304.805 486.625> 396.52 287.394 418.25 236.796 0.668965 0.743294<0 124.797>
LayerCount: 2
Back
SplineSet
482 345 m 5
 392 245 l 1029
68 345 m 5
 158 245 l 1029
68 25 m 5
 482 25 l 5
 275 507 l 5
 68 25 l 5
EndSplineSet
Fore
SplineSet
105.944468215 50 m 1
 444.055531785 50 l 1
 275 443.646214109 l 1
 105.944468215 50 l 1
68 0 m 2
 67.0767319523 0 62.43671093 0.487776701893 59.9674297328 1.32558733774 c 0
 46.3589948799 5.94283849162 39.3580793813 21.6610045471 45.0287759573 34.8652352217 c 2
 131.749905187 236.795594105 l 1
 49.4176463438 328.275881709 l 2
 40.3082674544 338.397413809 41.1543496101 354.472974767 51.2758817094 363.582353656 c 0
 61.3974138088 372.691732546 77.4729747668 371.84565039 86.5823536562 361.724118291 c 2
 153.479775488 287.393649588 l 1
 252.028775957 516.865235222 l 2
 254.149695023 521.80380039 258.29202004 526.459448749 263.362919158 529.126417457 c 0
 276.081541359 535.815599519 292.300527467 530.069465896 297.971224043 516.865235222 c 2
 396.520224512 287.393649588 l 1
 463.417646344 361.724118291 l 2
 472.527025233 371.84565039 488.602586191 372.691732546 498.724118291 363.582353656 c 0
 508.84565039 354.472974767 509.691732546 338.397413809 500.582353656 328.275881709 c 2
 418.250094813 236.795594105 l 1
 504.971224043 34.8652352217 l 2
 505.335554301 34.0168913347 506.718357138 29.56093156 506.922937299 26.9614271361 c 0
 508.050397303 12.6353201526 496.370403869 0 482 0 c 2
 68 0 l 2
EndSplineSet
Ligature2: "Ligature Substitution lookup 214 subtable" w a l o
Ligature2: "Ligature Substitution lookup 145 subtable" w a l o tp_space
Ligature2: "tokiponaWords subtable" percent w a l o space
LCarets2: 5 0 0 0 0 0
EndChar

StartChar: tp_wan
Encoding: 61043 61043 115
Width: 248
VWidth: 0
Flags: HW
HStem: -12 21G<161.191 174.809>
VStem: 143 50<-11.7959 445.645>
DStem2: 50.3223 423.678 85.6777 388.322 0.707107 0.707107<-24.7959 81.066>
LayerCount: 2
Back
SplineSet
68 406 m 1
 168 506 l 1
 168 13 l 1024
EndSplineSet
Fore
SplineSet
50.3223304703 388.32233047 m 0
 40.6935663807 397.95109456 40.6935663807 414.04890544 50.3223304703 423.67766953 c 2
 150.32233047 523.67766953 l 2
 160.483740495 533.839079554 177.677263618 533.163561553 187.0101164 522.236239542 c 0
 191.086691974 517.463202289 193 508.846796431 193 506 c 2
 193 13 l 2
 193 -0.617128764476 181.617128764 -12 168 -12 c 0
 154.382871236 -12 143 -0.617128764476 143 13 c 2
 143 445.644660941 l 1
 85.6776695297 388.32233047 l 2
 76.04890544 378.693566381 59.95109456 378.693566381 50.3223304703 388.32233047 c 0
EndSplineSet
Ligature2: "Ligature Substitution lookup 80 subtable" w a n
Ligature2: "Ligature Substitution lookup 58 subtable" w a n tp_space
Ligature2: "tokiponaWords subtable" percent w a n space
LCarets2: 4 0 0 0 0
EndChar

StartChar: tp_waso
Encoding: 61044 61044 116
Width: 550
VWidth: 0
Flags: W
HStem: -208 21G<268.191 281.809> 219 82<64.9529 137.047 236.953 309.047>
VStem: 60 82<223.953 296.047> 232 82<223.953 296.047> 250 50<-207.796 3.90941>
DStem2: 86.2654 720.07 49.7346 685.93 0.682788 -0.730616<-24.7959 584.209> 255.839 29.058 300 3.90941 0.642318 0.766438<9.09059 300.142>
LayerCount: 2
Back
SplineSet
68 703 m 4
 482 260 l 5
 275 13 l 5
 275 -183 l 1029
EndSplineSet
Refer: 153 -1 S 1 0 0 1 101 260 2
Refer: 153 -1 S 1 0 0 1 273 260 2
Fore
SplineSet
50.9302949147 721.265409065 m 0xe8
 60.8791920015 730.563023949 76.96779418 730.018602172 86.2654090647 720.069705085 c 2
 500.265409065 277.069705085 l 2
 509.265106743 267.439593801 508.23584624 252.384068572 501.160947652 243.942039822 c 2
 300 3.90941146433 l 1
 300 -183 l 2
 300 -196.617128764 288.617128764 -208 275 -208 c 0
 261.382871236 -208 250 -196.617128764 250 -183 c 2
 250 13 l 2
 250 18.4742312955 252.064271532 24.5537531168 255.839052348 29.057960178 c 2
 448.625466622 259.097787839 l 1
 49.7345909353 685.930294915 l 2
 40.4369760506 695.879192001 40.9813978279 711.96779418 50.9302949147 721.265409065 c 0xe8
EndSplineSet
Refer: 153 -1 N 1 0 0 1 101 260 2
Refer: 153 -1 N 1 0 0 1 273 260 2
Ligature2: "Ligature Substitution lookup 215 subtable" w a s o
Ligature2: "Ligature Substitution lookup 146 subtable" w a s o tp_space
Ligature2: "tokiponaWords subtable" percent w a s o space
LCarets2: 5 0 0 0 0 0
EndChar

StartChar: tp_wawa
Encoding: 61045 61045 117
Width: 550
VWidth: 0
Flags: W
HStem: -12 21G<73.1914 86.8086 241.423 308.577 463.191 476.809> 182 50<224.998 325.002> 512 20G<73.1914 86.8086 463.191 476.809>
VStem: 55 50<-11.7959 531.796> 154 50<59.6772 160.323> 346 50<59.6772 160.323> 445 50<-11.7959 531.796>
LayerCount: 2
Back
SplineSet
179 110 m 4
 179 163 222 207 275 207 c 4
 328 207 371 163 371 110 c 4
 371 57 328 13 275 13 c 4
 222 13 179 57 179 110 c 4
470 507 m 5
 470 13 l 1029
80 507 m 5
 80 13 l 1029
EndSplineSet
Fore
SplineSet
204 110 m 0
 204 70.5600704844 236.154822205 38 275 38 c 0
 313.84512154 38 346 70.5600590421 346 110 c 0
 346 149.439929516 313.845177795 182 275 182 c 0
 236.15487846 182 204 149.439940958 204 110 c 0
154 110 m 0
 154 176.560059042 207.84512154 232 275 232 c 0
 342.154822205 232 396 176.560070484 396 110 c 0
 396 43.4399409579 342.15487846 -12 275 -12 c 0
 207.845177795 -12 154 43.4399295156 154 110 c 0
470 532 m 0
 483.617128764 532 495 520.617128764 495 507 c 2
 495 13 l 2
 495 -0.617128764476 483.617128764 -12 470 -12 c 0
 456.382871236 -12 445 -0.617128764476 445 13 c 2
 445 507 l 2
 445 520.617128764 456.382871236 532 470 532 c 0
80 532 m 0
 93.6171287645 532 105 520.617128764 105 507 c 2
 105 13 l 2
 105 -0.617128764476 93.6171287645 -12 80 -12 c 0
 66.3828712355 -12 55 -0.617128764476 55 13 c 2
 55 507 l 2
 55 520.617128764 66.3828712355 532 80 532 c 0
EndSplineSet
Ligature2: "Ligature Substitution lookup 216 subtable" w a w a
Ligature2: "Ligature Substitution lookup 147 subtable" w a w a tp_space
Ligature2: "tokiponaWords subtable" percent w a w a space
LCarets2: 5 0 0 0 0 0
EndChar

StartChar: tp_weka
Encoding: 61046 61046 118
Width: 416
VWidth: 0
Flags: W
VStem: 46.2507 323.499
DStem2: 46.2507 25.3275 89.7493 0.672464 0.493101 0.869972<-24.7959 193.118 374.716 592.63> 89.7493 519.328 46.2507 494.672 0.493101 -0.869972<-24.7959 193.118 374.716 592.63>
LayerCount: 2
Back
SplineSet
68 507 m 5
 151 360.564285714 l 1029
265 159.435714286 m 5
 348 13 l 1029
68 13 m 5
 151 159.435714286 l 1029
265 360.564285714 m 5
 348 507 l 1029
EndSplineSet
Fore
SplineSet
55.6724640534 528.749295563 m 0
 67.5189823821 535.463921336 83.0346697896 531.174054275 89.749295563 519.327535947 c 2
 172.749295563 372.891821661 l 2
 179.463921336 361.045303332 175.174054275 345.529615925 163.327535947 338.814990151 c 0
 151.481017618 332.100364378 135.96533021 336.390231439 129.250704437 348.236749768 c 2
 46.250704437 494.672464053 l 2
 39.5360786637 506.518982382 43.8259457247 522.03466979 55.6724640534 528.749295563 c 0
252.672464053 181.185009849 m 0
 264.518982382 187.899635622 280.03466979 183.609768561 286.749295563 171.763250232 c 2
 369.749295563 25.3275359466 l 2
 376.463921336 13.4810176179 372.174054275 -2.03466978961 360.327535947 -8.74929556296 c 0
 348.481017618 -15.4639213363 332.96533021 -11.1740542753 326.250704437 0.672464053384 c 2
 243.250704437 147.108178339 l 2
 236.536078664 158.954696668 240.825945725 174.470384075 252.672464053 181.185009849 c 0
55.6724640534 -8.74929556296 m 0
 43.8259457247 -2.03466978961 39.5360786637 13.4810176179 46.250704437 25.3275359466 c 2
 129.250704437 171.763250232 l 2
 135.96533021 183.609768561 151.481017618 187.899635622 163.327535947 181.185009849 c 0
 175.174054275 174.470384075 179.463921336 158.954696668 172.749295563 147.108178339 c 2
 89.749295563 0.672464053384 l 2
 83.0346697896 -11.1740542753 67.5189823821 -15.4639213363 55.6724640534 -8.74929556296 c 0
252.672464053 338.814990151 m 0
 240.825945725 345.529615925 236.536078664 361.045303332 243.250704437 372.891821661 c 2
 326.250704437 519.327535947 l 2
 332.96533021 531.174054275 348.481017618 535.463921336 360.327535947 528.749295563 c 0
 372.174054275 522.03466979 376.463921336 506.518982382 369.749295563 494.672464053 c 2
 286.749295563 348.236749768 l 2
 280.03466979 336.390231439 264.518982382 332.100364378 252.672464053 338.814990151 c 0
EndSplineSet
Ligature2: "Ligature Substitution lookup 217 subtable" w e k a
Ligature2: "Ligature Substitution lookup 148 subtable" w e k a tp_space
Ligature2: "tokiponaWords subtable" percent w e k a space
LCarets2: 5 0 0 0 0 0
EndChar

StartChar: tp_wile
Encoding: 61047 61047 119
Width: 550
VWidth: 0
Flags: W
HStem: -12 21G<127.228 194.854 342.536 411.673>
VStem: 43 50<68.5696 219.626> 457 50<60.9761 196.213>
LayerCount: 2
Back
Refer: 78 61006 S 1 0 0 -1 0 520 2
Fore
SplineSet
273.59765625 460.817382812 m 1
 171.333007812 314.466796875 93 224.116210938 93 133 c 0
 93 86.578125 122.543945312 38 171 38 c 0
 217.721679688 38 249.876953125 100.095703125 252.576171875 106.087890625 c 0
 259.805664062 119.494140625 274.880859375 123.467773438 286.866210938 117.004882812 c 0
 293.396484375 113.482421875 298.14453125 106.205078125 299.396484375 100.463867188 c 0
 300.817382812 93.736328125 315.107421875 38 367 38 c 0
 429.654296875 38 457 67.8740234375 457 133 c 0
 457 193.059570312 350.229492188 337.522460938 273.59765625 460.817382812 c 1
254.283203125 520.993164062 m 0
 255.603515625 522.948242188 258.258789062 525.827148438 260.828125 527.594726562 c 0
 272.666015625 535.741210938 289.451171875 531.953125 296.643554688 519.512695312 c 0
 368.458984375 395.291992188 507 234.403320312 507 133 c 0
 507 46.1259765625 456.345703125 -12 367 -12 c 0
 318.072265625 -12 288.192382812 14.8447265625 270.721679688 41.625 c 1
 252.266601562 18.88671875 218.70703125 -12 171 -12 c 0
 83.4560546875 -12 43 71.421875 43 133 c 0
 43 259.418945312 148.653320312 364.602539062 254.283203125 520.993164062 c 0
EndSplineSet
Ligature2: "Ligature Substitution lookup 218 subtable" w i l e
Ligature2: "Ligature Substitution lookup 149 subtable" w i l e tp_space
Ligature2: "tokiponaWords subtable" percent w i l e space
LCarets2: 5 0 0 0 0 0
EndChar

